<?xml version="1.0" encoding="UTF-8"?>
<svg id="Capa_1" data-name="Capa 1" xmlns="http://www.w3.org/2000/svg" viewBox="0 0 480 270">
  <defs>
    <style>
      .cls-1 {
        fill: none;
      }

      .cls-2 {
        fill: #fff;
      }
    </style>
  </defs>
  <rect class="cls-1" width="480" height="270"/>
  <g>
    <path class="cls-2" d="M337.22,145.84c.7-1.7,1.34-3.57,1.83-5.21,.45-1.53,.8-3.02,1.21-4.43l.89-4.79c1.51-11.59-.28-23.37-5.18-33.99-.46-1.32-1.13-2.56-1.97-3.67-1.32-2.42-2.79-4.74-4.42-6.96-.49-.6-.75-1.09-1.28-1.66l-2.46-2.78c-1.17-1.43-.91-1.13-1.74-1.28,.07,6.13-.64,7.42-4.04,10.7-1.35,1.18-2.91,2.11-4.59,2.74-3.07,1.25-4.85,.75-5.64,1.64,1.67,.92,2.04,.44,3.85,.85,1.13,.4,2.19,.98,3.14,1.72,1.89,1.23,3.5,2.84,4.72,4.74,2.28,3.16,2.05,8.04,.5,11.76-.57,1.39-1,1.94-2.87,1.75-.38-.47-.73-.97-1.03-1.49-.27-.48-.54-1.19-.86-1.66-1.1-1.61-4.57-2.29-5.86-4.22-.34-.53-.62-1.1-.82-1.7-.28-.7-.31-1.25-1.1-1.45-.21,.27-.11,.03-.22,.48l.05,3.12c.25,8.13-.98,3.02-.77,10.1,.22,7.74-1.57,4.48-3.66,7.16-.99,1.27-1.29,.45-1.61,2.01-.6,2.9-.01,7.11-3.47,11.01-1.24,1.17-2.21,2.61-2.83,4.2,1.19-1.22,2.82-1.92,4.53-1.96,3.77-.32,5.33,1.4,5.78,4.03,.55-.19,1.13-.32,1.71-.38,1.06-.18,2.15-.07,3.14,.33,.57,.24,1.09,.59,1.53,1.03,.39-1.13,.87-2.22,1.44-3.28,1.78-3.25,4.38-5.61,8.03-5.33h.11c.23,.02,.42,.04,.56,.07,1.47,.25,2.83,.91,3.93,1.91,.9,.81,1.67,1.76,2.28,2.8,.58,.94,1.03,1.96,1.34,3.03,1.14-.57,2.43-.79,3.7-.63,.38,.01,.54,.14,.65,.08,.32-.16,.66-.27,1.01-.3,.17-.02,.33-.05,.5-.08h0Zm-13.91,15.75c.97-.78,1.82-1.72,2.49-2.78-.53,.17-1.07,.32-1.62,.45-.1,.03-.2,.05-.3,.07l-.96,.17c.04,.57,.14,1.13,.29,1.67h0s0,.05,0,.05l.1,.37Z"/>
    <path class="cls-2" d="M223.91,105.4c2.82,.2,12.44-1.58,14.23-2.82,1.31-10.19-.06-14.83,13.77-14.87,3.05,0,6.06,.66,8.82,1.95,2.33,1.11,2.92,4.27,9.02,5.32,1.06,.37,2.16,.56,3.28,.57-.23-.64-.28-.47-.99-1.06-2.16-1.8-5.08-4.59-5.9-7.28-.58-1.52-.84-3.14-.76-4.77,.08-1.62,.49-3.21,1.22-4.67,.18-.31,.53-.91,.72-1.2,1.92-3.02,1.27,5.02,1.77,6.13,.58,1.64,1.65,3.08,3.06,4.11,1.46,1.31,3.17,2.31,5.02,2.94,1.85,.63,3.81,.89,5.77,.75l1.25-1.87c.5-.53,1.59-.41,2.49-.86,3.83-1.88,10.16-.48,11.92-.64,3.06-.27,5.92-1.01,8.72,.69,1.36,.82,.46,1.14,1.56,1.81,1.49,.91,3.77-.16,5-.7,3.33-1.47,6.36-2.94,6.81-6.53,.64-5.1-1.53-6.32-4.62-8.42-5.43-3.88-11.49-6.8-17.91-8.62-3.6-1.11-7.31-1.84-11.07-2.18-7.92-.7-15.91,.13-23.52,2.43-9.34,2.84-17.85,7.92-24.78,14.8-3.92,3.9-7.3,8.3-10.05,13.1-1.21,2.16-2.28,4.39-3.22,6.68-.83,1.62-1.36,3.37-1.58,5.17h0Z"/>
    <path class="cls-2" d="M157.25,129.43c1-1.32,9.55-.3,11.41-.14,3.3,.52,6.53,1.41,9.63,2.65,5.16,2.07,11.73,6.25,12.07,12.79,.73,13.79-19.94,19.42-30.56,18.95,.2-.87,.68-1.07,1.11-1.84,1.08-1.92,1.78-4.04,2.04-6.24l1.41-20.54c.13-.74,.03-1.51-.27-2.2-.3-.69-.8-1.27-1.44-1.68-.54-.55-1.2-.96-1.93-1.19-.73-.23-1.51-.29-2.27-.15l-.18,.33c-1.63,3.56-1.71,27.22-.94,31.8,.16,.55,.29,1.12,.37,1.69-4.71-.04-9.41-.64-13.98-1.76-2.26-.54-4.07-1-6.24-1.57-1.63-.43-4.54-1.9-6.2-1.44-.05,.93,.13,.6,.09,1.39-.03,.64-.36,.47,.12,1.25,.69,1.12,4.61,3.23,5.87,3.84,9.42,4.57,21.61,7,32.39,5.1,13.32-2.35,27.27-9.17,27.24-24.46,.07-3.36-.66-6.69-2.13-9.71-1.47-3.02-3.64-5.65-6.34-7.66-5.79-4.68-10.97-6.17-18.09-7.77-9.24-2.08-23.69,.2-31.32,6.51-2.53,2.1-5.34,4.88-4.14,8.35,1.66,.59,4.05-.75,5.68-1.36,3.26-1.22,13.89-5.65,16.6-4.94h0Z"/>
    <path class="cls-2" d="M199.48,145.65c3.39,.98,5.7-3.9,6.83-6.58,1.45-3.42,2.09-7.48-1.46-9.75-.83-.53-3.84-2.19-5.15-1.29-.69,.48-.13,1.62-.03,2.6,.11,1.06,.25,2.12,.37,3.29,.15,2.06,.04,4.14-.32,6.18-.24,1.76-1.36,2.39-.24,5.55h0Z"/>
    <path class="cls-2" d="M348.03,147.43c-1.77-2.07-3.82-1.36-5.43-.54-1.78,.86-3.66,1.47-5.61,1.8-1.16,.6-3.26-.23-4.42,.6-1.43,1.02-.95,2.28-.8,3.89s-5.3,11.35-8.78,11.33c-1.75,0-2.08-1.17-2.47-2.58-.32-1.16-.93-4.55,.59-4.96l2.29-.41c3.12-.78,5.69-1.73,5.65-5.52,.14-2.07-.37-4.13-1.44-5.91-.42-.84-1.02-1.58-1.75-2.17-.74-.58-1.59-1-2.51-1.22-5.64-.95-8.15,9.03-8.55,13.48,.03,.76-.09,1.52-.37,2.22-.28,.71-.7,1.35-1.25,1.88-.55,.47-.75,.33-.91,.32-2.13-.18,.55-8.18-.12-9.67-.31-.45-.75-.79-1.26-.97-.51-.19-1.07-.21-1.59-.07-3.52,.41-4.59,4.29-5.69,6.8-.85-2.13,3.82-10.93-1.89-10.44-4.61,.39-3.9,6.16-3.79,10.99,.08,1.37-.25,2.72-.96,3.89-.52,1.05-1.13,2.68-2.19,2.81-1.98-2.07,1.89-10.05,.32-12.99-1.86-.78-3.85,.14-4.38-.41-.63-1.32,.45-3.28-1.45-3.62-4.01-.73-3.97,3.72-3.65,6.19,.11,.82,0,1.69,.05,2.47,.17,2.4,1.99-.32-.38,4.86-.4,.88-.96,2.29-1.89,2.39-2.48-2.56,2.02-12.06-.6-14.45-1.48-1.35-2.93-.69-4.47-.39-2.39-3.76-7.11-3.26-9.81,.06-2.8,3.44-3.15,6.83-3.35,12.15-2.12,1.76-12.48,4.69-16.03,5.02-7.49,.68-12.37,.8-19.11-1.48-5.28-1.78-10-4.63-12.37-8.84-8.93-15.87,16.14-29.82,33.57-26.25,15.06,3.07,6.82,11.83-2.94,12.45-3.21,.2-7.24,.14-9.01-1.71,.53-1.29,2.73-2.46,4.39-3.14,2.64-1.09,2.53-1.88,2.48-3.03-.03-.74,.17-.62-.02-1.56-4.55-2.11-10.2,1.02-12.07,3.6-.63,1.06-1.03,2.24-1.19,3.46-.16,1.22-.07,2.46,.27,3.65,2.55,9.22,20.28,9.25,29.25,1.69,7.94-6.7,6.9-24.11-17.9-24.14-12.84-.02-26.97,6.51-32.56,17.84-2.13,4.43-2.89,9.4-2.18,14.27,1.18,12.81,16.69,20.81,29.7,20.68,4.93-.06,9.82-.86,14.51-2.37,3.05-1,6.01-2.27,8.84-3.8,.87-.55,1.78-1.04,2.72-1.47,.85,1.15,1.59,6.04,5.68,6.57,3.84,.5,5.88-2.59,6.93-5.43,.6,.18,.61,.48,1.16,1.06,3.22,3.35,7.07-.01,8.68-3.7l.59-1.34c.08-.13,.18-.26,.29-.37,.15,2.66,.56,6.05,2.36,7.16,2.72,1.68,5.65-.8,6.88-2.25,.43,.5,1,.88,1.62,1.09,.63,.21,1.3,.25,1.95,.12,.63-.05,1.22-.33,1.65-.79,.43-.46,.68-1.07,.68-1.7,.24-1.88,1.34-6.72,2.41-7.29,.16,2.9,.18,5.94,1.96,7.51,2.17,1.91,5.79,.14,6.63-1.36,.7,2.51,1.89,5.13,4.04,6.01,3.04,1.23,6.25-.19,8.13-1.45,3.56-2.39,6.64-8.12,7.83-12.79,3.23,.43,12.34,7.84,2.36,14.37-7.68,5.03-23.22,5.06-32.98,4.26-4.06-.33-8.25-.19-12.31-.51-4.89-.39-19.52-.53-25.1-.53-8.45,0-16.67,.07-25.02,.32-8.11,.24-16.07,.93-23.97,1.5-7.42,.64-14.78,1.81-22.03,3.5-2.13,.46-18.79,5.5-19.56,6.04-.65,4.61,.68,10.24,1.31,14.62,1.74,12-.69,9.46,17.43,2.11,3.78-1.72,7.69-3.17,11.69-4.31,12.03-3.57,33.25-7.53,46.6-9.31,4.65-.62,9.93-1.53,14.37-1.92l14.32-1.66c2.25-.21,4.75-.45,7.1-.79,9.02-1.27,20.41-1.81,29.61-2.64,9.75-.88,17.54-2.23,24.14-7.77,3.68-3.09,8.39-11.1,2.44-16.12-3.27-2.76-4.9-1.82-5.02-3.13,2.19-.89,7.58-.92,8.16-2.56,.18-.54,.22-1.11,.11-1.67-.1-.56-.34-1.08-.69-1.52Zm-26.39,3.17c.15-1.07,.51-2.09,1.06-3.02,.44-.65,.81-.99,1.37-.24,.92,1.24,.38,4.12-1.53,4.22-.99,.05-1.01-.15-.89-.97h0Zm-44.66,6.77c-2.38,12.78-7.19,9.02-6.23,.96,.3-2.6,1.26-6.61,3.12-7.8,3.26-2.08,3.52,4.63,3.11,6.83h0Zm-48.4,20.81c.6-.82,.35-1.34,1.74-1.1,.15,.5,.13,1.04-.04,1.53-.18,.49-.51,.92-.95,1.21-1.27,.54-2.51-.28-3.62-.25-.56,.73-.3,1.26-1.66,1.09-.94-4.31,3.95-2.47,4.54-2.48h0Zm-10.11,.85c1.36-.07,1.6,.86,1.46,2.15-1.16,.86-1.42,.95-2.72,.01-.14-1.11-.02-2.1,1.26-2.17h0Zm-19.87,17.99c-.82,.43-11.58,4.89-12.08,4.9-.52-.64-.82-1.43-.86-2.25l1.24-.64c-1.28-3.08-2.82-6.05-4.59-8.88l-1.66,.48c-.57-.66-.92-1.47-1.02-2.33,4.07-2.01,8.26-3.74,12.56-5.2,.82,1.35,1.49,2.78,2,4.27-.82,.46-1.7,.78-2.63,.95l-.99-1.72c-1.48,.39-2.91,.96-4.25,1.7,.24,1.05,.66,2.05,1.23,2.96,1.48,.02,2.35-1.06,3.75-1.21,.45,.68,.77,1.44,.93,2.25-.95,.59-1.97,1.07-3.03,1.42,.15,1.29,.68,2.51,1.52,3.5,1.4-.33,2.75-.86,4.01-1.56,.03-1.23-.46-.84-.58-2.1,.79-.55,1.71-.88,2.67-.98,.84,1.37,1.44,2.87,1.78,4.44h0Zm1.16-.52c-.5-.59-.81-1.32-.87-2.09,.5-.49,.43-.33,1.13-.57,0-1.62-3.12-7.84-3.79-9.55l-1.78,.33c-.28-.89-.79-1.25-.74-2.2l4.75-1.84c1.06,1.91,3.95,9.25,5.04,11.75l1.51-.2c.45,.68,.71,1.47,.75,2.28-1.95,.83-3.96,1.52-6,2.08h0Zm15.33-13.26c-.18,1.73-.43,7.37-.95,8.51l-2.9,.72-5.99-8.61c-1.6-2.1-.47-1.48-2.98-1.49-.4-.68-.61-1.45-.6-2.24,2.39-.74,4.82-1.3,7.29-1.68l.53,2.23-1.51,.43c.95,2,2.21,3.83,3.74,5.43,.04-.05,.08-.21,.09-.18,.18,.41,.48-2.56,.49-2.68,.12-1.2,.16-2.41,.1-3.61l-1.72,.22c-.31-.73-.45-1.51-.41-2.3,2.05-.66,4.15-1.13,6.29-1.41,1.37,2.85-.24,2.37-.74,2.6-.97,.43-.61,2.8-.74,4.05h0Zm8.06,6.81c-1.61,.52-3.29,.81-4.98,.89-.36-2.35-.49-1.02,.73-2.2l-.69-3.6-1.32-.15-.38-1.7,3.79-.84,1.32,5.88c1.34,.06,1.63,.33,1.53,1.73h0Zm6.79-1.47c-1.06-1.19,.43-7.15-2.87-4.92-.06,1.21,.04,2.42,.32,3.59,.47,.23,.75-.07,1.19,.4,.13,.22,.22,.47,.25,.73,.03,.26,0,.52-.07,.76-1.61,.4-3.25,.65-4.9,.72l-.19-1.56c.14-.09,.28-.18,.43-.25l.55-.38c-.04-.93-.15-1.85-.32-2.76-.19-1.37-.31-1.02-1.6-1.27l-.12-1.66c1.29-.31,2.6-.46,3.92-.47,1.23,.05,1.96-1.13,3.57-.65,1.95,.59,1.7,3.45,2.02,4.92,.32,1.42,.43,.4,1.45,1l.08,1.54c-.93,.17-3.09,.99-3.71,.23h-.01Zm9.27-2.61c1.91-.69-.22-.95,3.28-.67-.51,2.29-4.7,3.56-6.99,2.14-.54-.37-.99-.86-1.31-1.42-.33-.57-.52-1.2-.57-1.85-.05-.65,.05-1.31,.28-1.91,.24-.61,.6-1.16,1.08-1.61,2.9-2.81,7.42-.75,7.54,2.46,.03,.89-.57,.71-1.55,.79-1.66,.13-2.83,.4-4.44,.64,.15,1.44,1.24,1.96,2.68,1.44h-.01Zm9.26,.35c-3.71,1.85-6.4-3.15-4.44-6.3,1.12-1.81,2.29-1.9,4.85-1.45v-1.62c-.07-.04-.16-.15-.2-.09l-1.1-.33-.13-1.65c1.29-.39,2.63-.53,3.97-.43l.64,8.2c.07,1.95,.39,.84,1.46,1.45l.08,1.68c-3.76,.91-3.47-.29-5.11,.53h-.01Zm13.91-4.11c-1.51,4.6-10.18,3.51-8.13-3.11,1.3-4.18,10.41-3.77,8.14,3.11h-.01Zm-2.39-2.19c.52,3.41-2.64,3.87-3.1,1.66-.71-3.43,2.73-4.15,3.11-1.66h-.01Zm-12.91,4.46c-.34-.33-.59-.74-.73-1.19-.14-.45-.16-.93-.07-1.4,0-.25,.08-.49,.2-.71,.12-.22,.3-.4,.51-.53,.21-.13,.45-.21,.7-.23,.25-.02,.5,.02,.73,.12,1.15,.33,2.21,4.37-1.33,3.93h-.01Zm-7.32-1.97l-3.16,.39c-.05-.42,.06-.84,.32-1.18,.26-.33,.64-.55,1.06-.6,.42-.05,.84,.06,1.18,.32,.33,.26,.55,.64,.6,1.06h0Z"/>
  </g>
</svg>