<?xml version="1.0" encoding="UTF-8"?>
<svg id="Capa_1" data-name="Capa 1" xmlns="http://www.w3.org/2000/svg" viewBox="0 0 480 270">
  <defs>
    <style>
      .cls-1 {
        fill: none;
      }

      .cls-2 {
        fill: #fff;
      }
    </style>
  </defs>
  <rect class="cls-1" width="480" height="270"/>
  <g>
    <path class="cls-2" d="M87.72,175.31c-1.17-.49-2.34-.95-3.5-1.44-3.3-1.39-6.61-2.76-9.88-4.22-2.06-.93-3.97-2.19-5.63-3.73-.99-.9-1.92-1.86-2.78-2.89-1.45-1.73-2.39-3.83-2.74-6.06-.53-2.84-.06-5.78,1.32-8.33,1.08-1.97,2.78-3.52,4.83-4.43,2.37-.99,4.86-1.66,7.4-2.02,1.73-.29,3.47-.49,5.22-.59,1.97-.14,3.95-.24,5.92-.34,3.26-.16,6.52-.15,9.78-.24,4.35-.12,8.71-.07,13.06-.04,1.92,0,3.84,.04,5.77,.07,.19,0,.38,.02,.56,.06,.3,.04,.58,.18,.79,.41,.21,.23,.32,.52,.33,.83,.11,.92,.1,1.84-.03,2.76-.21,2.04-.6,4.07-1.16,6.04-1.06,3.77-2.86,7.28-5.29,10.35-2.64,3.36-5.94,6.14-9.69,8.19-2.71,1.41-5.51,2.64-8.38,3.67-1.48,.56-2.96,1.13-4.44,1.69-.2,.05-.39,.15-.55,.28-.31-.02-.61-.02-.91-.02Z"/>
    <path class="cls-2" d="M58.08,111.43c.1-.25,.13-.51,.1-.78,0-2.94,.03-5.88,0-8.82,0-1.75,.62-3.44,1.75-4.78,.47-.63,1.06-1.15,1.74-1.55,.68-.4,1.42-.66,2.2-.76,.28-.04,.56-.06,.84-.06,7.6,0,15.2-.07,22.79,.03,6.6,.09,13.19,.06,19.79,.06,1.34,0,2.67-.09,4.01-.1,.8-.02,1.58,.16,2.29,.52,1.08,.53,2.02,1.3,2.76,2.25,.74,.95,1.25,2.05,1.5,3.23,.05,.28,.07,.56,.06,.84v7.23c0,1.2,.13,2.41,.11,3.61-.03,1.34-.43,1.77-1.76,1.77h-9.33c-.4-.02-.79,.03-1.17,.14-.27,.08-.52,.23-.72,.43-.2,.21-.34,.46-.4,.74-.16,.53-.21,1.08-.15,1.62,.05,.37,.07,.75,.06,1.13,0,4.18,0,8.37,.01,12.55,.02,.45-.03,.9-.13,1.34-.04,.22-.16,.43-.32,.59s-.38,.26-.6,.29c-.17,.03-.34,.05-.5,.06-.15,0-.3,0-.45,0-2.22-.05-4.45,.07-6.67,.13-1.54,.04-3.08,.14-4.62,.28-1.27,.12-2.55,.22-3.82,.36-1.57,.16-3.14,.37-4.71,.61-2.81,.43-5.62,.92-8.39,1.56-2.61,.54-5.13,1.42-7.5,2.62-2.01,1.01-3.84,2.33-5.44,3.91-.57,.57-1.05,1.23-1.43,1.95-.11,.22-.23,.43-.38,.63-.06,.11-.15,.2-.26,.26-.11,.06-.23,.1-.35,.11-.12,0-.25-.02-.36-.07-.11-.05-.21-.13-.29-.23-.09-.09-.18-.19-.27-.28v-.79c.12-.19,.19-.41,.22-.63,.28-1.43,.89-2.77,1.79-3.93,.86-1.08,1.87-2.02,3.02-2.79,2.98-2.01,6.28-3.47,9.77-4.32,3.85-.94,7.74-1.65,11.67-2.13,1.75-.25,3.51-.45,5.28-.6,1.46-.13,2.92-.27,4.39-.3,1.52-.03,3.05-.14,4.58-.12,.21,.03,.42,0,.62-.05,.2-.06,.39-.16,.55-.3,.16-.14,.29-.31,.37-.5,.09-.19,.13-.4,.14-.61,.02-.17,.04-.34,.04-.51,.03-1.43,.03-2.86,.08-4.29,.09-2.33,.03-4.67,.13-7,.07-1.56,.01-3.12,.09-4.69,.09-1.6,.03-3.2,.04-4.8,0-.25-.04-.49-.12-.72-.06-.21-.18-.4-.34-.54-.16-.15-.36-.24-.58-.28-.33-.07-.67-.11-1.01-.12-1.49,.03-2.97,0-4.46,.07-1.52,.09-3.04,.14-4.57,.24-1.65,.11-3.3,.29-4.94,.5-3.46,.45-6.88,1.16-10.23,2.15-3.31,.92-6.51,2.19-9.55,3.78-2.12,1.13-3.94,2.76-5.29,4.75-.1,.16-.21,.31-.34,.45-.06,.08-.14,.15-.23,.19-.09,.04-.19,.06-.29,.06-.1,0-.2-.03-.29-.08-.09-.05-.16-.12-.21-.21-.11-.13-.18-.29-.32-.38,0-1.63,0-3.29,0-4.95Z"/>
    <path class="cls-2" d="M421.92,144.9s-.04,.07-.05,.1c-.18,.85-.72,1.34-1.88,1.38-.94,.03-1.88,.01-2.82,0-.17,0-.34-.02-.5-.05-.38-.03-.74-.2-1-.48-.26-.28-.41-.65-.42-1.03-.08-.6-.12-1.2-.12-1.8,0-3.71,0-7.42,0-11.13,0-.68,0-1.36-.02-2.04,0-.59-.13-1.17-.41-1.69-.18-.34-.46-.61-.8-.77-.34-.17-.73-.23-1.1-.16-.38,.04-.74,.13-1.1,.25-1.14,.41-2.21,.98-3.19,1.69-.6,.44-1.11,1-1.48,1.65-.38,.64-.62,1.36-.71,2.1-.16,1.08-.18,2.18-.04,3.27,.01,.09,.02,.19,.02,.28-.01,1.51,.18,3.01,.1,4.52-.07,1.28-.06,2.56-.08,3.84,.02,.19,0,.37-.06,.55-.06,.18-.15,.34-.27,.48-.12,.14-.27,.26-.44,.34s-.35,.13-.54,.14c-.2,.04-.41,.05-.62,.06h-3.05c-.34,0-.68-.05-1.01-.13-.25-.04-.47-.16-.64-.34-.17-.18-.27-.42-.29-.66-.03-.21-.04-.41-.03-.62v-31.36c0-.38,.04-.75,.12-1.12,.03-.21,.13-.4,.27-.55,.15-.15,.34-.25,.54-.28,.28-.07,.56-.11,.84-.11h2.94c.34,0,.68,.05,1,.14,.26,.05,.5,.17,.69,.36,.19,.19,.32,.42,.38,.68,.09,.33,.14,.67,.14,1,0,.82,.02,1.65,.04,2.48,.02,.96,.06,1.92,.05,2.88,.02,1.75-.11,3.5-.4,5.23-.05,.24-.05,.49,0,.73,.02,.12,.07,.24,.15,.33,.08,.1,.18,.17,.3,.21,.12,.04,.24,.05,.37,.03,.12-.02,.23-.08,.33-.16,.19-.16,.36-.33,.52-.52,1.52-1.59,3.45-2.73,5.58-3.27,1.78-.47,3.67-.35,5.39,.32,.86,.32,1.6,.87,2.15,1.6,.55,.73,.87,1.6,.94,2.51,.09,.9,.12,1.8,.1,2.71v6.1c-.04,.24,0,.49,.11,.71,0,3.21-.01,6.42-.01,9.62Z"/>
    <path class="cls-2" d="M276.44,135.86v9.02c.02,.34-.1,.68-.33,.94-.23,.26-.55,.42-.89,.45-.18,.04-.37,.07-.56,.08-1.04,.02-2.07,.05-3.11,.02-.19,.02-.39,0-.58-.07-.19-.06-.36-.16-.51-.29-.15-.13-.27-.28-.36-.46-.09-.18-.14-.37-.15-.56-.07-.37-.11-.75-.1-1.12,0-3.79-.02-7.57,0-11.36,0-1.02-.08-2.03-.12-3.05,.02-.58-.18-1.14-.55-1.57-.37-.44-.89-.72-1.46-.8-.47-.09-.95-.03-1.38,.17-1.33,.54-2.51,1.4-3.44,2.5-.68,.87-1.05,1.94-1.06,3.04-.05,1.17,.12,2.33,.11,3.5,0,1.38,.03,2.75-.02,4.13-.04,.97-.08,1.95-.07,2.94,.05,.47,.05,.94,0,1.41-.02,.37-.17,.72-.43,1-.25,.27-.59,.45-.96,.5-.24,.06-.48,.09-.73,.1-.77,.01-1.55,.02-2.32,0-1.48-.04-2.02-.57-2.04-2.03-.02-1.58,0-3.17-.02-4.75-.05-3.25-.1-6.48-.09-9.72,.04-.39-.02-.78-.15-1.14-.13-.37-.35-.7-.63-.97-.3-.29-.66-.5-1.07-.61-.4-.11-.83-.11-1.23,0-1.12,.34-2.15,.93-3.02,1.72-.91,.75-1.53,1.8-1.74,2.96-.05,.3-.08,.6-.07,.9,0,.92,.03,1.85,0,2.77-.04,1.04-.15,2.06-.18,3.1-.13,1.86-.09,3.73,.13,5.58,.06,.2,.09,.42,.07,.63-.02,.21-.08,.42-.19,.61-.1,.19-.24,.35-.41,.48-.17,.13-.36,.23-.57,.28-.54,.23-1.13,.32-1.72,.24-.82-.12-1.65-.18-2.48-.18-.17,.02-.35,.01-.52-.04-.17-.05-.33-.13-.46-.25-.13-.11-.24-.25-.32-.41-.08-.16-.12-.33-.13-.51-.01-.09-.02-.19-.03-.28-.1-3.01-.15-6.03-.07-9.04,.04-1.54-.06-3.08-.03-4.63,.04-2.22,.01-4.45,0-6.67,0-.41,.04-.83,.11-1.24,0-.16,.04-.31,.11-.46s.16-.27,.28-.38c.12-.11,.25-.19,.4-.24,.15-.05,.31-.07,.47-.06,.6-.02,1.2-.11,1.79-.27,.18-.05,.37-.08,.56-.09,.42-.09,.86-.02,1.23,.2,.37,.22,.64,.58,.76,.99,.08,.19,.17,.38,.27,.56,.04,.09,.1,.18,.17,.24,.08,.07,.17,.11,.27,.13,.1,.02,.2,.02,.3,0,.1-.03,.19-.08,.26-.15,.23-.16,.45-.34,.66-.53,1.39-1.15,3.11-1.82,4.91-1.92,1.54-.07,3.09-.01,4.62,.16,.73,.04,1.41,.36,1.91,.88,.33,.31,.63,.64,.91,1,.14,.18,.29,.35,.45,.5,.09,.13,.22,.23,.36,.3,.14,.07,.3,.11,.45,.11,.16,0,.31-.03,.45-.1s.26-.17,.36-.3c.28-.25,.56-.5,.85-.75,1.32-1.06,2.92-1.69,4.61-1.81,1.2-.1,2.41-.06,3.6,.1,.88,.1,1.71,.42,2.43,.92,.72,.51,1.3,1.19,1.69,1.98,.4,.73,.61,1.55,.63,2.38,.17,3.26,.04,6.5,.1,9.26Z"/>
    <path class="cls-2" d="M139.53,138.98c0-.9-.03-1.81,0-2.71,.06-1.82,.11-3.65,.19-5.47,.07-1.49-.02-2.98,.05-4.46,.16-3.86,.04-7.72,.08-11.58,0-.26,.01-.53,.06-.79,.04-.26,.16-.51,.35-.69,.19-.18,.44-.3,.71-.32,.22-.03,.45-.04,.68-.04l5.15-.02c.53,.01,1.06-.01,1.58-.07,.3-.04,.6-.04,.9,0,.73,.1,1.47,.05,2.2,.09,2.23,.07,4.43,.44,6.55,1.12,1.33,.42,2.52,1.19,3.45,2.23,.93,1.04,1.55,2.32,1.81,3.69,.45,2.14,.6,4.34,.43,6.52-.08,1.43-.37,2.84-.86,4.19-.34,1.03-.94,1.95-1.73,2.68-.8,.73-1.76,1.25-2.81,1.5-1.35,.36-2.74,.55-4.13,.57-.77,.02-1.54,0-2.31,.08-.62,.07-1.24-.12-1.86-.08-.75,.05-1.5,.06-2.26,.12-.16-.01-.32,.01-.46,.07-.15,.05-.28,.14-.4,.25-.11,.11-.2,.24-.26,.39-.06,.15-.09,.3-.09,.46-.08,.52-.11,1.05-.1,1.57v5.93c.01,.25,0,.49-.02,.74-.02,.31-.14,.6-.33,.83-.2,.23-.46,.4-.76,.47-.29,.09-.59,.14-.89,.14h-2.54c-.27,.03-.53,0-.79-.08-.25-.08-.49-.21-.69-.39-.2-.17-.37-.39-.49-.63-.12-.24-.19-.5-.2-.77-.12-.57-.18-1.15-.19-1.74v-3.79s0-.01,0-.01Zm7.13-12.66c0,.76-.02,1.44,0,2.11-.01,.1,0,.21,.03,.31,.03,.1,.08,.19,.14,.28,.07,.08,.15,.15,.24,.2,.09,.05,.19,.08,.3,.09,.29,.06,.59,.09,.89,.09,1.81,.06,3.61-.08,5.42-.1,.57,.03,1.13-.15,1.59-.49,.46-.34,.79-.83,.93-1.38,.44-1.4,.65-2.87,.61-4.34-.01-.85-.22-1.69-.61-2.45-.27-.51-.65-.95-1.1-1.31-.45-.36-.98-.61-1.54-.76-.83-.25-1.7-.36-2.56-.35-.94-.03-1.88,0-2.82,.11-.33,0-.65,.14-.89,.37-.24,.23-.39,.55-.4,.88-.06,.29-.1,.59-.11,.89,.07,1.98-.16,3.95-.13,5.84h0Z"/>
    <path class="cls-2" d="M374.63,133.84v10.12c0,.43-.05,.87-.17,1.28-.07,.32-.25,.6-.5,.8-.25,.2-.57,.32-.89,.32-1.04,.04-2.07,.04-3.11,0-.3,0-.58-.09-.83-.26-.24-.17-.43-.4-.54-.68-.13-.28-.21-.57-.31-.85-.12-.32-.3-.4-.61-.24-.15,.08-.29,.18-.41,.3-1.48,1.19-3.27,1.93-5.15,2.11-1.6,.13-3.2,.07-4.78-.19-.6-.06-1.19-.2-1.75-.42-.67-.3-1.28-.74-1.77-1.29-.5-.55-.87-1.19-1.1-1.89-.82-2.17-1.32-4.45-1.51-6.76-.25-3.39,.13-6.8,1.14-10.04,.3-1.12,.9-2.13,1.74-2.93,.83-.8,1.87-1.36,3-1.62,1.17-.3,2.37-.48,3.57-.54,.94-.09,1.88-.12,2.82-.1,2.15,.09,4.29,.13,6.44,.28,.9,.07,1.81,.03,2.71,.04,1.37,.02,1.87,.46,2.01,1.82,.02,.22,.02,.45,.02,.68v10.07h.01Zm-7.02-2.16h-.02v-2.65c0-.36-.03-.71-.09-1.07,0-.23-.05-.46-.14-.67-.09-.21-.23-.4-.41-.55-.17-.15-.38-.26-.6-.33-.22-.06-.45-.08-.68-.05-.88-.02-1.77,0-2.65,0-.42,0-.83,.04-1.24,.13-.78,.1-1.51,.46-2.08,1.01-.56,.56-.93,1.28-1.04,2.06-.19,.98-.26,1.98-.21,2.98,.12,.59,.09,1.21-.08,1.79-.01,.05-.01,.11,0,.16,.09,1.11,.03,2.22,.18,3.32,.03,.72,.19,1.42,.48,2.07,.15,.33,.4,.6,.71,.79,.31,.19,.66,.28,1.02,.28,.76-.01,1.5-.19,2.18-.52,1.1-.54,2.1-1.26,2.97-2.13,.55-.5,.99-1.12,1.28-1.8s.44-1.43,.42-2.17v-2.66Z"/>
    <path class="cls-2" d="M164.19,133.62c-.02-2.58,.38-5.16,1.2-7.61,.5-1.5,1.5-2.78,2.84-3.62,.98-.56,2.08-.91,3.21-1.01,1.26-.11,2.52-.15,3.78-.11h9.73c.36,0,.72,.04,1.07,.12,.35,.06,.67,.23,.91,.48s.4,.58,.45,.93c.14,.84,.17,1.69,.09,2.53-.03,.34-.06,.68-.06,1.01v17.58c0,.3,0,.61-.02,.9,0,.34-.13,.68-.35,.94-.22,.26-.53,.44-.87,.5-.35,.09-.71,.13-1.06,.12-.58,0-1.17,.02-1.75,0-.41,.04-.82-.08-1.15-.34-.33-.26-.54-.63-.6-1.04-.1-.34-.14-.7-.23-1.05-.07-.31-.17-.35-.41-.12-.5,.48-1.06,.91-1.65,1.28-1.4,.83-2.96,1.35-4.58,1.51-1.09,.13-2.18,.16-3.27,.09-.89,0-1.77-.19-2.58-.55-.82-.35-1.55-.87-2.16-1.51-.87-1.03-1.47-2.26-1.75-3.57-.26-1.12-.44-2.25-.52-3.4-.16-1.35-.25-2.71-.26-4.07Zm7.14,.71v2.54c-.02,.64,0,1.28,.09,1.92,.04,.36,.16,.7,.34,1.01,.18,.31,.43,.58,.72,.78,.29,.21,.63,.35,.98,.42,.35,.07,.71,.07,1.07,0,.85-.18,1.67-.49,2.41-.94,.84-.43,1.58-1.04,2.16-1.78,.58-.75,.99-1.61,1.19-2.54,.16-.64,.25-1.29,.28-1.95,.07-1.83,.03-3.65-.12-5.48-.03-.43-.13-.86-.31-1.26-.09-.24-.25-.45-.44-.61-.2-.16-.43-.28-.68-.33-.24-.05-.48-.08-.73-.09-.81,0-1.62,.05-2.42,.17-.62,.05-1.23,.15-1.84,.31-.61,.15-1.16,.46-1.6,.91-.44,.45-.74,1.01-.88,1.62-.15,.58-.22,1.18-.23,1.79,0,1.16,0,2.33,0,3.5Z"/>
    <path class="cls-2" d="M229.23,121.27h6.17c.38,0,.75,.04,1.12,.12,.28,.05,.54,.19,.75,.38,.21,.2,.35,.45,.41,.73,.11,.36,.15,.74,.13,1.12-.05,.62-.06,1.24-.05,1.86v16.56c-.02,.62,0,1.24,.07,1.86,.04,.47-.02,.95-.17,1.39-.08,.3-.27,.57-.52,.76-.25,.19-.56,.28-.88,.28-.87,.06-1.73,.06-2.6,0-1.06-.08-1.55-.61-1.79-1.73-.16-.84-.37-.9-1.04-.32-1.65,1.39-3.69,2.25-5.84,2.45-1.94,.17-3.89-.06-5.74-.67-.68-.2-1.31-.55-1.84-1.03-.53-.48-.94-1.07-1.2-1.73-.46-1.22-.79-2.48-.99-3.77-.49-2.36-.68-4.78-.56-7.19,.06-2.21,.48-4.39,1.23-6.47,.42-1.16,1.14-2.19,2.1-2.97,.96-.78,2.1-1.29,3.33-1.47,.61-.1,1.23-.15,1.86-.15,2.02-.01,4.04,0,6.05,0v-.02Zm-1.67,4.97c-.82-.01-1.64,.02-2.46,.1-.75,.09-1.45,.4-2.01,.89-.56,.5-.96,1.15-1.14,1.88-.17,.64-.26,1.29-.27,1.95v6.56c0,.43,.07,.87,.18,1.29,.18,.69,.61,1.29,1.21,1.68,.6,.38,1.33,.53,2.03,.39,1.11-.23,2.16-.72,3.04-1.43,1.28-.89,2.22-2.19,2.67-3.68,.26-.87,.4-1.76,.43-2.67,.07-1.86-.07-3.72-.12-5.59-.03-.89-.43-1.21-1.32-1.34-.19-.02-.38-.03-.56-.03-.51,0-1.02,0-1.67,0h0Z"/>
    <path class="cls-2" d="M295.83,146.36c-.97-.03-2.16,.04-3.35-.07-.58-.02-1.17-.02-1.75,.02-2.78,.22-5.56-.4-7.98-1.79-1.91-1.26-3.27-3.2-3.81-5.42-.31-1.18-.52-2.39-.61-3.62-.11-1.22-.13-2.45-.09-3.67,.02-1.58,.23-3.16,.63-4.69,.3-1.38,1.01-2.63,2.03-3.59,1.02-.97,2.32-1.6,3.71-1.82,2.46-.51,4.97-.69,7.48-.55,1.76,.08,3.48,.48,5.1,1.17,.88,.38,1.66,.96,2.28,1.69,.62,.73,1.06,1.6,1.28,2.53,.42,1.55,.48,3.18,.19,4.76-.14,.74-.45,1.45-.9,2.05-.45,.61-1.04,1.1-1.71,1.45-1.07,.61-2.26,.98-3.48,1.07-2.36,.22-4.72,.49-7.08,.75-.34,.01-.68,.04-1.01,.1-.84,.2-1.1,.63-.84,1.45,.18,.62,.52,1.18,.99,1.63,.47,.44,1.05,.75,1.69,.89,.62,.15,1.26,.23,1.9,.23,1.38,.03,2.75,.04,4.13,0,.77-.02,1.54-.05,2.31-.1,.48-.04,.96,.02,1.42,.19,.45,.17,.87,.43,1.2,.77,.43,.37,.77,.83,1,1.35,.23,.52,.34,1.08,.32,1.65,0,.3-.08,.6-.22,.87-.09,.18-.23,.33-.39,.44s-.36,.18-.56,.19c-.67,.08-1.35,.11-2.03,.1-.54-.02-1.08-.03-1.84-.03Zm-1.88-17.26h.02c-.01-.21,0-.41-.03-.62,0-.28-.04-.55-.14-.81-.1-.26-.25-.49-.44-.69-.19-.2-.42-.36-.68-.46-.25-.11-.53-.16-.8-.16-.9-.12-1.8-.15-2.7-.08-.44,.02-.88,.12-1.29,.3-.4,.19-.77,.45-1.07,.77-.75,.78-1.24,1.77-1.38,2.85-.08,.64,.05,1.29,.36,1.85,.08,.16,.2,.3,.36,.39s.33,.14,.51,.14c.38,.01,.75-.03,1.12-.13,.38-.13,.77-.2,1.16-.21,.81-.01,1.62-.1,2.42-.25,.43-.07,.85-.2,1.24-.39,.38-.16,.72-.43,.96-.77,.24-.34,.38-.75,.4-1.16,0-.19,0-.38,0-.57Z"/>
    <path class="cls-2" d="M205.93,137.14v-6.67c.01-.68-.09-1.35-.31-2-.1-.41-.35-.76-.69-1.01-.34-.24-.76-.36-1.18-.33-.97,.02-1.91,.29-2.74,.79-1.16,.67-2.25,1.46-3.25,2.36-.33,.26-.59,.62-.73,1.02-.14,.4-.17,.84-.07,1.25,.02,.15,.04,.3,.04,.45,.04,2.03-.04,4.06-.18,6.09-.15,1.63-.1,3.28,.13,4.9,.04,.26,.06,.52,.05,.79,0,.33-.11,.66-.32,.92-.21,.26-.5,.44-.83,.51-.18,.06-.37,.09-.56,.1-1.35,.1-2.71,.07-4.06-.08-.67-.11-.92-.38-1.06-1.06-.1-.56-.12-1.13-.06-1.69,.09-.84,.09-1.69,0-2.54-.03-.38-.04-.76-.02-1.14,.07-5.09,.1-10.17,.09-15.26-.03-.47-.03-.94,0-1.41,0-.2,.05-.4,.13-.58,.08-.18,.2-.35,.34-.48,.15-.14,.32-.24,.51-.31,.19-.07,.39-.1,.59-.09,.97-.02,1.96,0,2.94,0,.17,0,.34,.02,.5,.07,.19,.02,.37,.12,.49,.26,.12,.15,.18,.34,.17,.53,.02,.3,.07,.6,.16,.89,.22,.67,.59,.79,1.14,.37,.2-.14,.39-.3,.57-.46,1.22-1.05,2.71-1.74,4.31-1.99,2.2-.38,4.45-.32,6.62,.18,.68,.15,1.31,.44,1.86,.86,.55,.42,1.01,.95,1.33,1.56,.58,.95,.88,2.06,.86,3.17,0,1.02-.03,2.04,.02,3.05,.18,3.57,.05,7.16,.07,10.73,0,1.3-.09,2.6-.09,3.9,.01,.18,0,.35-.06,.52-.05,.17-.14,.32-.26,.46-.12,.13-.26,.24-.41,.32-.16,.08-.33,.12-.51,.14-.22,.05-.45,.08-.67,.09-1,.02-2,.04-3,.02-.22,.03-.45,.01-.67-.05-.22-.06-.42-.17-.59-.32-.17-.15-.31-.33-.41-.53-.1-.2-.15-.42-.15-.65-.06-.33-.09-.67-.09-1.01v-6.64Z"/>
    <path class="cls-2" d="M390.26,126.61h-4.24c-.62,0-1.24,.05-1.86,.1-.28,0-.55,.09-.76,.26-.22,.17-.38,.41-.45,.67-.07,.28-.05,.57,.05,.83,.1,.27,.28,.49,.52,.66,.35,.23,.72,.41,1.11,.56,1.9,.78,3.8,1.56,5.71,2.33,1.37,.48,2.69,1.1,3.94,1.84,1.22,.72,2.19,1.79,2.8,3.07,.6,1.28,.8,2.72,.57,4.12-.09,1.03-.41,2.04-.95,2.92-.38,.62-.9,1.15-1.51,1.54s-1.3,.65-2.03,.75c-1.25,.19-2.51,.27-3.76,.37-2.11,.16-4.22,.1-6.33,.09-1.66-.03-3.31-.14-4.95-.34-.21,0-.42-.05-.61-.14-.19-.09-.37-.21-.51-.36-.14-.15-.26-.33-.33-.53-.07-.2-.11-.41-.1-.61-.03-.54-.03-1.09-.01-1.64-.02-.23,0-.47,.09-.69,.08-.22,.21-.42,.38-.58,.17-.16,.37-.29,.59-.37,.22-.08,.46-.1,.69-.08,2.2-.01,4.41,0,6.62,0,1.24,0,2.48-.12,3.73-.12,.43-.02,.86-.12,1.25-.3,.2-.11,.38-.26,.51-.45,.13-.19,.22-.4,.26-.63,.04-.23,.02-.46-.05-.68-.07-.22-.19-.42-.35-.58-.3-.26-.63-.47-1-.62-1.97-.81-3.95-1.59-5.94-2.36-1.32-.47-2.57-1.08-3.76-1.83-1.1-.66-2-1.59-2.63-2.71-.63-1.11-.96-2.37-.97-3.65-.04-.92,.11-1.85,.44-2.71,.28-.67,.7-1.28,1.22-1.78,.53-.51,1.15-.9,1.83-1.15,.75-.31,1.55-.5,2.36-.55,2.48-.23,4.96-.33,7.45-.31,1.79,.04,3.57,.14,5.36,.22,.3,.02,.6,.07,.89,.15,.31,.06,.59,.22,.8,.45,.21,.23,.34,.53,.36,.85,.09,.83,.09,1.66,0,2.48,0,.21-.05,.42-.13,.61-.09,.19-.21,.36-.37,.5-.16,.14-.34,.25-.54,.31-.2,.07-.41,.09-.62,.07-1.59,.02-3.17,0-4.75,0h0Z"/>
    <path class="cls-2" d="M344.2,146.83c-.96,0-1.92,.04-2.88,0-1.72-.04-3.42-.37-5.02-.97-1.15-.44-2.18-1.13-3.04-2.02-.85-.88-1.5-1.94-1.91-3.11-.6-1.73-.97-3.53-1.1-5.36-.22-2.65,.01-5.32,.7-7.9,.33-1.41,1.04-2.7,2.05-3.73,1.01-1.03,2.28-1.77,3.68-2.13,1.29-.37,2.62-.56,3.96-.59,.83-.03,1.65-.14,2.48-.1,2.07,.09,4.14,.12,6.2,.32,.38,.01,.74,.17,1.01,.44,.27,.27,.43,.63,.45,1.01,.09,.77,.07,1.54-.05,2.31,0,.49-.2,.96-.54,1.31-.34,.35-.8,.56-1.29,.58-.5,.09-1.01,.14-1.52,.14h-5.15c-.47,0-.94,.06-1.4,.16-.6,.13-1.16,.41-1.62,.82-.46,.41-.8,.93-1,1.52-.28,.78-.47,1.59-.56,2.42-.22,1.87-.1,3.77,.34,5.61,.13,.73,.41,1.42,.84,2.02,.34,.37,.74,.67,1.2,.88,.45,.21,.95,.33,1.45,.34,.92,.11,1.84,.15,2.76,.12h4.01c.68-.05,1.35,.15,1.88,.57,.53,.42,.89,1.03,.99,1.7,.15,.6,.22,1.23,.19,1.85-.04,1.03-.46,1.43-1.49,1.54-1.88,.18-3.76,.25-5.64,.23Z"/>
    <path class="cls-2" d="M302.88,140.39v-10.61c.01-.64,0-1.28-.07-1.92-.06-.66,0-1.32,.14-1.97,.1-.53,.33-1.03,.66-1.45s.76-.77,1.25-.99c1.17-.52,2.4-.9,3.66-1.14,1.94-.46,3.91-.8,5.9-1.01,1.01-.11,2.02-.17,3.04-.25,.23-.02,.45-.02,.68,0,.18,0,.35,.02,.52,.09,.16,.07,.31,.17,.43,.3,.12,.13,.21,.28,.27,.45,.06,.17,.07,.35,.06,.52,.02,1.17,.02,2.34,0,3.5,.02,.17,0,.35-.05,.51-.05,.16-.13,.32-.25,.45-.11,.13-.25,.24-.41,.31-.16,.07-.33,.11-.5,.12-.97,.16-1.94,.28-2.91,.42-1.12,.16-2.24,.32-3.35,.49-.2,.03-.41,.08-.61,.14-.55,.11-1.05,.41-1.4,.86s-.52,1-.48,1.57c-.04,.87-.01,1.74,.09,2.6,.01,.09,.02,.19,.02,.28-.02,1.83,.16,3.65,.13,5.48-.01,.62,.05,1.24,.07,1.86,.04,1.09-.04,2.18-.23,3.26-.02,.09-.04,.18-.07,.27-.11,.61-.43,1.17-.91,1.57-.48,.4-1.09,.61-1.71,.59-1.06,.04-2.11-.13-3.11-.49-.23-.07-.42-.22-.57-.4-.14-.19-.23-.42-.24-.65-.02-.22-.03-.45-.03-.68-.03-1.35-.02-2.71-.02-4.06Z"/>
    <path class="cls-2" d="M328.36,133.75v10.46c0,1.53-.59,2.13-2.11,2.16-.81,.02-1.62,0-2.44,.01h-.34c-.25,.03-.5,0-.73-.08-.24-.08-.45-.2-.63-.37-.18-.17-.33-.37-.43-.6-.1-.23-.15-.47-.15-.72-.06-.33-.08-.67-.09-1.01v-20.52c0-.11,0-.23,.01-.34,0-.23,.04-.47,.13-.68,.09-.22,.22-.41,.38-.58,.16-.17,.36-.3,.57-.39,.22-.09,.45-.14,.68-.14,1.16-.06,2.34-.06,3.51-.02,.33,0,.66,.12,.92,.33,.26,.2,.46,.49,.55,.81,.13,.4,.18,.81,.16,1.22v10.46h0Z"/>
    <path class="cls-2" d="M325.25,117.43c-.6,.01-1.19-.02-1.79-.1-.51,0-1-.2-1.36-.56-.37-.35-.58-.84-.6-1.35-.14-.93-.13-1.88,.04-2.81,.06-.42,.26-.8,.56-1.09,.3-.29,.69-.48,1.11-.53,1.09-.21,2.22-.21,3.31,0,.59,.07,1.13,.37,1.51,.82,.38,.45,.58,1.04,.55,1.63,.05,.75,.01,1.51-.11,2.25-.03,.43-.23,.83-.54,1.13-.31,.3-.72,.47-1.15,.49-.51,.08-1.02,.12-1.54,.11Z"/>
    <path class="cls-2" d="M387.46,119.81c-.45,0-.9,.01-1.36,0-.45,.01-.89-.14-1.23-.43-.34-.29-.57-.69-.63-1.14-.13-.55-.13-1.13-.01-1.68,.06-.32,.2-.61,.43-.84,.22-.23,.51-.39,.83-.46,.02,0,.04,0,.06-.01,1.31-.17,2.63-.16,3.94,.04,.26,.04,.51,.16,.7,.35,.19,.19,.33,.43,.38,.69,.22,.79,.2,1.62-.06,2.39-.11,.32-.32,.6-.61,.8-.28,.19-.62,.29-.96,.28-.49,.03-.97,0-1.46,0h0Z"/>
    <path class="cls-2" d="M387.38,152.71c-.47,0-.94,.02-1.41,0-.41,.01-.81-.12-1.13-.39-.31-.26-.52-.63-.58-1.04-.14-.55-.15-1.12-.03-1.68,.05-.39,.24-.75,.53-1.01,.29-.26,.67-.41,1.06-.41,1.05-.04,2.11-.04,3.16,.02,.22-.02,.44,.01,.65,.09,.21,.07,.4,.19,.56,.34,.16,.15,.28,.34,.37,.54,.08,.2,.13,.42,.12,.64,.08,.5,.06,1.02-.06,1.51-.08,.39-.29,.75-.6,1-.31,.25-.7,.39-1.1,.38-.51,.02-1.02,0-1.52,0h0Z"/>
  </g>
</svg>