<?xml version="1.0" encoding="UTF-8"?>
<svg id="Capa_1" data-name="Capa 1" xmlns="http://www.w3.org/2000/svg" viewBox="0 0 480 270">
  <defs>
    <style>
      .cls-1 {
        fill: none;
      }

      .cls-2 {
        fill: #fff;
      }
    </style>
  </defs>
  <rect class="cls-1" width="480" height="270"/>
  <g>
    <path class="cls-2" d="M160.95,160.44v-5.25c1.15,.44,2.22,.8,3.26,1.24,3.69,1.62,7.75,2.18,11.74,1.62,4.12-.62,5.71-2.28,6.21-6.42,.21-1.76,.22-3.55,.33-5.43-.27,.07-.45,.06-.53,.14-1.32,1.16-2.86,2.02-4.53,2.55-1.67,.53-3.43,.7-5.18,.51-1.94-.05-3.87-.31-5.75-.77-4.97-1.35-7.96-5.46-8.3-11.07-.07-1.22,0-2.45,0-3.76h-20.94c-.06,3.07,.98,6.07,2.93,8.44,1.95,2.38,4.68,3.98,7.71,4.52,3.34,.55,6.76,.41,10.04-.43,.34-.09,.68-.15,1.1-.25,0,.37,.02,.74,.06,1.11,.19,1.07-.26,1.5-1.32,1.75-4.41,1.04-8.96,1.34-13.47,.89-3.09-.26-6.09-1.17-8.8-2.67-1.85-.99-3.4-2.44-4.52-4.21-1.12-1.77-1.75-3.8-1.85-5.89-.34-4.22,.52-8.04,4.02-10.86,1.87-1.42,4.09-2.33,6.43-2.61,3.92-.66,7.93-.61,11.84,.13,1.64,.23,3.19,.87,4.5,1.87,1.31,1,2.34,2.33,2.99,3.84,.1,.19,.22,.38,.33,.56,2.87-6.31,8.39-6.93,14.26-6.82,1.7,0,3.38,.42,4.88,1.21,1.51,.79,2.8,1.94,3.77,3.33,.07-1.45,.12-2.63,.18-3.9h8.11v24.06c0,7.79-3.18,11.73-10.91,13.06-6.05,.99-12.22,.87-18.22-.37-.12-.04-.24-.08-.36-.14Zm21.3-24.36c-.21-1.68-.54-3.34-.97-4.98-.46-1.37-1.35-2.54-2.54-3.35-1.19-.81-2.62-1.2-4.06-1.12-1.42-.18-2.85,.13-4.06,.88-1.21,.75-2.14,1.89-2.61,3.23-1.39,3.49-1.44,7.37-.15,10.89,.36,1.29,1.12,2.43,2.18,3.25,1.05,.83,2.34,1.3,3.67,1.35,4.55,.47,7.24-1.43,8.06-5.9,.23-1.28,.3-2.58,.49-4.27h0Zm-30.51-4.98c.05-1.05-.22-2.09-.78-2.98-.56-.89-1.37-1.59-2.34-2.01-2.51-.95-5.29-.92-7.78,.1-.96,.42-1.78,1.1-2.37,1.97-.59,.87-.91,1.88-.93,2.93h14.19Z"/>
    <path class="cls-2" d="M398.6,124.3v2.55c.9-.66,1.87-1.21,2.9-1.65,1.97-.6,3.98-1.02,6.02-1.27,3.67-.45,7.39-.28,11,.53,1.62,.28,3.09,1.11,4.19,2.33,1.09,1.23,1.74,2.79,1.84,4.43,.13,1.06,.19,2.12,.2,3.18,.02,4.75,0,9.5,0,14.24v1.35h-8.02v-3.31c-5.94,4.77-12.18,5.08-18.84,1.91,0,.21-.04,.46-.06,.71-.02,.25-.04,.54-.06,1.01-1.72,.19-3.44,.27-5.17,.26-2.76-.12-5.51-.46-8.21-1.03-2.9-.7-4.08-2.63-4.09-5.63-.01-5.1-.03-10.21-.04-15.32v-1.41h-5.96v-2.85h5.94c0-1.79,.04-3.44,0-5.09-.05-.29,0-.58,.17-.82,.16-.24,.4-.42,.68-.49,2.35-.92,4.68-1.9,7.2-2.92v9.29h10.33Zm-10.2,2.92c-.03,.34-.06,.53-.06,.72v14.36c-.03,.87,.11,1.74,.4,2.56,.27,.81,.8,1.51,1.51,1.99,1.93,.75,4.03,.94,6.07,.55-.36-1.21-.59-2.46-.68-3.72,.07-1.35,.59-2.63,1.48-3.64,.89-1.01,2.1-1.69,3.42-1.93,3.05-.83,6.16-1.48,9.29-1.95,2.21-.35,4.47-.4,6.76-.56,.28-2.3,.05-4.63-.67-6.83-.34-.87-.95-1.61-1.75-2.09-.87-.52-1.86-.81-2.87-.84-1.01-.03-2.02,.21-2.92,.68-.9,.47-1.66,1.17-2.21,2.03-.55,.85-.87,1.84-.92,2.85,0,.06-.08,.12-.12,.17h-8.57c.55-1.52,1.03-2.86,1.54-4.26-.09-.04-.19-.07-.29-.08-3.09-.04-6.19-.04-9.4-.04h0Zm28.14,10.79c-1.17,.01-2.34,.11-3.5,.29-2.32,.47-4.59,1.12-6.8,1.94-.72,.32-1.29,.9-1.62,1.61-.33,.71-.39,1.52-.17,2.28,.16,.76,.55,1.45,1.12,1.97,.57,.52,1.29,.86,2.06,.96,1.24,.31,2.55,.29,3.78-.06,1.23-.35,2.36-1.01,3.26-1.93,.9-.91,1.54-2.05,1.87-3.29,.33-1.24,.33-2.54,0-3.78h0Z"/>
    <path class="cls-2" d="M327.6,150.01h-7.9v-3.39c-2.42,2.26-5.53,3.64-8.83,3.92-3.17,.42-6.39-.17-9.22-1.67-.3,.23-.63,.43-.99,.58-6.13,1.64-12.58,1.61-18.7-.08-9.22-2.8-10.86-10.41-9.31-16.96,.48-1.9,1.48-3.63,2.89-4.99,1.41-1.36,3.18-2.29,5.11-2.69,4.77-1.33,9.8-1.39,14.59-.17,2.22,.49,4.17,1.82,5.42,3.72,.76-1.07,1.74-1.98,2.87-2.65,1.13-.68,2.39-1.11,3.7-1.27,4.54-.85,9.19-.85,13.73,0,4.16,.82,6.43,3.18,6.58,7.39,.2,6.03,.04,12.09,.04,18.28Zm-34.12-17.3c-.26-1.36-.4-2.58-.73-3.76-.13-.54-.38-1.05-.74-1.47-.36-.42-.82-.75-1.34-.95-.81-.36-1.69-.55-2.58-.57-.89-.02-1.77,.14-2.6,.46-.83,.32-1.58,.81-2.22,1.42-.64,.62-1.15,1.35-1.51,2.16-.08,.16-.14,.35-.21,.53-.85,2.53-.87,5.27-.06,7.81,2.45,8.42,9.95,10.66,17.9,8.69-.06-.14-.11-.29-.17-.42-.66-1.19-.84-2.58-.53-3.91,.31-1.32,1.11-2.48,2.23-3.25,1.05-.79,2.24-1.37,3.51-1.69,3.8-.77,7.63-1.34,11.46-1.93,1.23-.19,2.49-.16,3.98-.26-.25-2.19-.35-4.24-.75-6.24-.09-.93-.54-1.79-1.25-2.39-.72-.6-1.64-.9-2.57-.83-4.44-.26-6.58,.8-7.14,5.5h-6.22c-.11,.45-.18,.79-.26,1.08h-8.19Zm26.17,5.28c-3.46-.05-6.89,.62-10.08,1.96-.78,.33-1.42,.91-1.81,1.66-.4,.74-.53,1.6-.37,2.43,.17,.82,.6,1.57,1.23,2.12,.64,.55,1.43,.87,2.27,.92,1.22,.14,2.46,.04,3.65-.31,1.18-.35,2.28-.93,3.23-1.72,.56-.42,1.01-.96,1.33-1.58,.32-.62,.51-1.3,.53-2,.07-1.08,.01-2.19,.01-3.47Z"/>
    <path class="cls-2" d="M85.85,149.38h-8v-25.58h8v5.61c.75-.92,1.27-1.59,1.83-2.22,1.35-1.49,3.04-2.64,4.93-3.34,1.89-.7,3.92-.93,5.91-.67,1.83,.04,3.62,.54,5.2,1.47,1.64,1.02,2.81,2.65,3.25,4.53,.38-.39,.74-.8,1.07-1.23,1.27-1.77,3-3.15,5.01-3.99,2.01-.84,4.21-1.11,6.36-.78,.59,.05,1.19,.08,1.78,.16,1.86,.11,3.6,.96,4.84,2.35,1.24,1.39,1.87,3.22,1.77,5.08,.23,6.16,.06,12.33,.06,18.59h-8.05v-16.32c0-3.27-.82-4.95-2.68-5.53-1.38-.43-2.85-.42-4.22,.03-1.37,.45-2.57,1.31-3.42,2.46-1.68,2.52-2.57,5.48-2.57,8.51-.03,3.29,0,6.57,0,9.86v.99h-8.06v-1.27c0-4.99,0-9.97-.06-14.96-.04-1.1-.19-2.2-.45-3.27-.15-.67-.5-1.27-1.01-1.72-.51-.45-1.15-.72-1.83-.79-1.68-.42-3.45-.19-4.97,.64-1.52,.83-2.67,2.19-3.23,3.83-.94,2.27-1.43,4.7-1.43,7.16v10.39h0Z"/>
    <path class="cls-2" d="M331.62,124.42h7.86c.07,1.23,.13,2.39,.19,3.58,.16-.03,.27,0,.31-.06,3.18-3.73,7.33-4.58,11.93-4.07,.63,.07,1.27,.13,1.89,.25,6.14,1.23,9.4,4.96,9.92,11.44,.34,2.97-.16,5.97-1.44,8.67-2.19,4.34-6.03,5.97-10.58,6.33-1.59,.13-3.19,.12-4.77-.04-2.78-.29-3.05-.49-7.22-3.69v14.72h-8.08v-37.11Zm8.31,12.93l-.3,.06c.47,2.15,.82,4.32,1.42,6.43,.25,.89,.76,1.68,1.46,2.27,.7,.6,1.57,.97,2.49,1.06,1.29,.2,2.59,.24,3.89,.12,1.02-.07,1.99-.43,2.82-1.03,.83-.6,1.47-1.41,1.85-2.35,1.7-3.61,1.96-7.74,.72-11.54-.27-1.05-.78-2.02-1.49-2.85-.71-.82-1.6-1.47-2.6-1.89-1-.42-2.08-.61-3.17-.55-1.08,.06-2.14,.37-3.08,.91-1.03,.56-1.89,1.38-2.49,2.39-1.15,2.13-1.68,4.54-1.53,6.96h0Z"/>
    <path class="cls-2" d="M59.32,150.26c-2.54-.31-5.07-.77-7.56-1.36-2.38-.57-4.5-1.9-6.05-3.78-1.55-1.89-2.44-4.23-2.54-6.67-.15-1.89-.04-3.8,.33-5.66,.35-2.05,1.3-3.94,2.73-5.45,1.43-1.51,3.27-2.56,5.29-3.02,5.51-1.68,11.4-1.61,16.86,.19,2.32,.69,4.35,2.11,5.8,4.05,1.45,1.94,2.24,4.29,2.25,6.7,.1,1.73-.02,3.47-.36,5.17-1.15,5.16-4.81,7.83-9.73,8.95-2.16,.45-4.39,.56-7.01,.89Zm8.62-13.77c-.25-2.07-.62-4.13-1.09-6.16-.44-1.5-1.38-2.81-2.67-3.69-1.29-.89-2.84-1.3-4.4-1.17-1.54-.18-3.09,.2-4.37,1.08-1.28,.88-2.19,2.19-2.57,3.69-1.3,3.93-1.4,8.16-.3,12.15,.29,1.46,1.06,2.77,2.2,3.73,1.13,.96,2.56,1.51,4.04,1.55,4.86,.37,7.12-1.39,8.13-5.31,.5-1.91,.7-3.88,1.04-5.88Z"/>
    <path class="cls-2" d="M220.99,149.39h-8v-3.21c-1.03,.7-1.88,1.39-2.83,1.91-2.12,1.19-4.48,1.88-6.9,2.02-2.42,.14-4.85-.28-7.09-1.23-3.84-1.48-5.24-4.6-3.79-7.81,.75-1.55,2.09-2.74,3.71-3.32,3.54-1.29,7.25-2.08,11.01-2.34,1.88-.21,3.79-.26,5.8-.4,.29-2.58-.04-5.2-.97-7.62-.14-.33-.36-.62-.64-.84-.97-.63-2.07-1.02-3.22-1.13-1.15-.11-2.31,.05-3.38,.48-.84,.26-1.58,.77-2.12,1.46-.54,.69-.85,1.54-.9,2.42-.06,.4-.13,.8-.2,1.22h-8.31c-.05-.91,.12-1.82,.48-2.66,.36-.84,.91-1.58,1.6-2.17,1.49-1.33,3.34-2.18,5.32-2.44,4.22-.76,8.55-.82,12.79-.19,4.92,.72,7.31,3.03,7.56,8.06,.28,5.89,.06,11.79,.06,17.78Zm-8.04-11.85c-1.01,0-1.84-.06-2.66,0-.95,.06-1.89,.21-2.81,.43-1.58,.36-3.12,.84-4.63,1.44-.73,.32-1.33,.87-1.72,1.57-.39,.69-.54,1.49-.43,2.28,.11,.79,.47,1.52,1.02,2.08,.56,.57,1.28,.93,2.07,1.05,1.48,.3,3.02,.2,4.45-.3,1.43-.5,2.7-1.37,3.68-2.53,1.54-1.72,.98-3.94,1.03-6.02h0Z"/>
    <path class="cls-2" d="M429,149.99v-37.07h7.9v37.07h-7.9Z"/>
    <path class="cls-2" d="M365.45,124.4h7.95v25.58h-7.95v-25.58Z"/>
    <path class="cls-2" d="M373.72,112.92v5.24h-8.61v-5.24h8.61Z"/>
    <path class="cls-2" d="M267.92,109.8c0-1.1-.3-1.41-1.41-1.41-7.23,.04-14.45,.01-21.68,.04-1.11,0-2.22,.1-3.31,.3-4.16,.62-7.95,2.75-10.65,5.98-2.7,3.23-4.11,7.34-3.98,11.54-.04,7.16,.02,14.32-.04,21.48,0,1.15,.39,1.38,1.44,1.38h19.06c6.35,0,12.71-.02,19.06,.02,1.1,0,1.5-.26,1.5-1.45-.03-12.63-.03-25.25,0-37.88Zm-3.93,33.87c-.22,.12-.47,.17-.72,.15-3.93-.03-7.86,0-11.79,0-.7,0-1.03-.21-.97-.95,.12-1.42,.15-2.84,.31-4.25,.03-.3,.12-.58,.27-.84,.28-.44,.68-.79,1.15-1.01,.25-.13,.51-.28,.76-.44,1.01-.58,1.89-1.35,2.61-2.26,.02-.03,.04-.06,.06-.09,2.62-3.77,2.88-11.01-2.02-14.82-1.37-1.19-3.07-1.95-4.88-2.17-1.81-.22-3.64,.1-5.26,.93-1.69,.68-3.13,1.86-4.14,3.38-1.01,1.52-1.53,3.31-1.51,5.13-.05,1.85,.14,3.69,.57,5.49,.31,1.16,.9,2.22,1.72,3.09,.81,.88,1.83,1.54,2.96,1.94,.28,.14,.53,.35,.72,.6,.19,.25,.33,.54,.4,.84,.21,1.52,.32,3.05,.33,4.59,0,.04,0,.08-.02,.12-.08,.27-.45,.66-.66,.66-4.13,.05-8.26,.05-12.38,0-.26,0-.71-.51-.71-.79-.06-1.7-.06-3.4,0-5.1,.02-.18,.09-.35,.19-.5,.1-.15,.24-.27,.4-.35,.18-.02,.36,.02,.53,.09,.17,.07,.31,.19,.42,.34,.69,2.22,2.47,2.13,4.24,2.11,1.65-.02,3.31,0,4.97,0,.01-.1,.02-.21,.02-.31,0-.66-.38-.81-.99-.96-1.6-.38-3.11-1.1-4.41-2.12-1.3-1.01-2.37-2.29-3.13-3.75-.77-1.46-1.21-3.07-1.3-4.71-.09-1.65,.17-3.29,.77-4.83,1.28-2.74,3.6-4.85,6.44-5.88,2.72-1.26,5.66-1.95,8.66-2.02,4.34,.02,8.56,1.47,12,4.11,1.09,.8,1.99,1.82,2.64,3,.65,1.18,1.05,2.49,1.15,3.83,.27,2.95-.6,5.89-2.43,8.21-.33,.39-.66,.75-1.01,1.1-1.51,1.56-3.45,2.65-5.57,3.13-.29,.06-.51,.42-.76,.64,.29,.18,.58,.51,.87,.52,1.87,.05,3.73,.07,5.6,0,.67,.03,1.33-.18,1.87-.58,.32-.3,.56-.68,.67-1.11,.02-.05,.04-.1,.07-.14,.02-.03,.04-.05,.06-.07l.04-.04c.3-.23,.61-.44,.94-.63,.27,.37,.47,.79,.58,1.23,.07,1.5,0,3.01,.04,4.51,.02,.49-.06,.81-.33,.97Z"/>
  </g>
</svg>