<?xml version="1.0" encoding="UTF-8"?>
<svg id="Capa_1" data-name="Capa 1" xmlns="http://www.w3.org/2000/svg" viewBox="0 0 480 270">
  <defs>
    <style>
      .cls-1 {
        fill: none;
      }

      .cls-2 {
        fill: #fff;
      }
    </style>
  </defs>
  <rect class="cls-1" width="480" height="270"/>
  <g>
    <path class="cls-2" d="M233.69,146.68c-1.45,.19-2.97,.35-4.57,.48-1.59,.13-3.53,.19-5.8,.18-5.07,0-8.66-.62-10.76-1.85-2.1-1.23-2.67-3.32-1.7-6.27l3.7-11.45h-5.36l1.74-5.29h5.36l2.25-6.96h13.04l-2.25,6.96h12.25l-1.74,5.29h-12.25l-2.83,8.7c-.24,.82-.46,1.56-.65,2.21-.2,.56-.17,1.17,.07,1.7,.11,.3,.29,.57,.52,.78,.23,.21,.51,.37,.82,.45,1.16,.35,2.38,.49,3.59,.43,.68,0,2.78-.24,6.3-.72l-1.74,5.36Z"/>
    <path class="cls-2" d="M245.79,114.22h13.34l-3.12,9.41c1.88-1.06,5.05-1.64,9.49-1.74,7.1,0,12.22,1.16,15.36,3.48,3.14,2.32,4.06,5.48,2.75,9.49l-3.84,11.67h-13.48l3.7-11.6c.44-1.15,.63-2.39,.54-3.62-.08-.87-.45-1.69-1.05-2.32-.66-.62-1.47-1.06-2.36-1.27-1.1-.28-2.23-.41-3.37-.4-1.16-.01-2.31,.09-3.44,.32-1.12,.25-2.21,.65-3.22,1.2-1.01,.62-1.91,1.42-2.65,2.36-.87,1.12-1.54,2.39-1.99,3.73l-3.55,11.6h-13.62l10.51-32.31Z"/>
    <path class="cls-2" d="M298.91,147.12c-6.09,.1-10.46-.39-13.12-1.45-2.03-2.13-2.42-5.12-1.16-8.99l7.32-22.32h13.04l-6.16,18.84c-.84,1.71-1.26,3.6-1.23,5.51,.15,1.35,1.23,2.13,3.26,2.32l-1.95,6.09Z"/>
    <path class="cls-2" d="M349.64,134.72c-.75,2.11-1.94,4.03-3.47,5.66-1.53,1.63-3.39,2.92-5.44,3.8-5.51,2.47-11.5,3.65-17.54,3.44-7.05,0-12.17-1.15-15.33-3.44-3.16-2.29-4.09-5.45-2.79-9.46,.77-2.12,1.96-4.05,3.51-5.69,1.55-1.64,3.41-2.94,5.48-3.84,5.48-2.47,11.46-3.65,17.46-3.44,7.1,0,12.22,1.16,15.36,3.48,3.14,2.32,4.06,5.48,2.76,9.49Zm-17.97,5.94c1.01-.58,1.91-1.34,2.65-2.25,.81-1.09,1.41-2.32,1.77-3.62,.44-1.15,.63-2.39,.54-3.62-.08-.87-.45-1.69-1.05-2.32-.67-.63-1.5-1.07-2.39-1.27-1.11-.28-2.26-.41-3.41-.4-1.16-.01-2.31,.09-3.44,.32-1.12,.25-2.21,.65-3.22,1.2-1.01,.62-1.91,1.42-2.65,2.36-.86,1.12-1.51,2.38-1.91,3.73-.41,1.1-.58,2.27-.51,3.44,.05,.89,.44,1.74,1.09,2.36,.66,.62,1.47,1.05,2.35,1.23,1.18,.26,2.38,.38,3.59,.36,1.17,0,2.33-.1,3.48-.32,1.11-.19,2.16-.6,3.12-1.2Z"/>
    <path class="cls-2" d="M392.39,139.29c-.82,2.51-3.36,4.53-7.61,6.05-5.24,1.67-10.73,2.44-16.23,2.28-4.58,.08-9.17-.11-13.73-.58-2.26-.27-4.5-.71-6.7-1.31l2.1-6.45c2.9,.92,5.05,1.57,6.45,1.96,1.43,.37,2.88,.66,4.35,.87,3.15,.31,6.32,.43,9.49,.36,1.96,.06,3.92-.11,5.83-.51,1.33-.34,2.11-.84,2.36-1.52,.19-.58-.04-1.01-.69-1.31-1.26-.41-2.56-.65-3.88-.72-.92-.15-2.86-.29-5.83-.43-2.15-.07-4.29-.26-6.41-.58-2.62-.24-5.14-1.18-7.28-2.71-.65-.53-1.12-1.26-1.34-2.07-.21-.81-.17-1.68,.14-2.46,.77-2.37,3.26-4.33,7.46-5.9,4.2-1.57,10.87-2.35,20-2.36,2.87-.01,5.74,.18,8.59,.58,2.06,.27,4.11,.65,6.12,1.16l-2.03,6.16c-2.32-.76-4.68-1.4-7.07-1.91-2.39-.51-4.83-.77-7.28-.76-3.19-.11-6.38,.07-9.53,.54-1.52,.36-2.4,.86-2.65,1.49-.05,.12-.08,.26-.08,.39,0,.13,.03,.27,.08,.39,.06,.12,.13,.23,.23,.32,.1,.09,.21,.16,.34,.2,2.74,.57,5.53,.89,8.33,.94,1.26,.15,2.63,.31,4.13,.48s3,.35,4.49,.54c2.45,.22,4.79,1.09,6.78,2.54,.61,.52,1.04,1.22,1.23,2,.19,.78,.13,1.6-.18,2.34Z"/>
    <path class="cls-2" d="M203.44,124.07c-2.49-1.35-7.45-2.03-14.89-2.03-4.83,0-8.95,.14-12.36,.43-3.41,.29-5.81,.56-7.21,.8l-1.96,5.87c1.93-.24,4.19-.59,6.78-1.05,3.42-.52,6.87-.75,10.33-.69,2.65-.11,5.29,.16,7.86,.8,.36,.07,.7,.21,1,.43,.3,.21,.55,.48,.74,.8,.19,.31,.31,.67,.35,1.03,.04,.36,0,.73-.1,1.08-.97-1.21-4.13-1.86-9.49-1.96-5.81-.18-11.61,.64-17.14,2.42-4.42,1.62-7.09,3.83-8.01,6.63-.92,2.85,.31,5.06,3.7,6.63,3.38,1.57,8.6,2.36,15.65,2.36,5.83,.18,11.64-.62,17.21-2.36,4.42-1.57,7.19-3.78,8.3-6.63l-.07,.07,2.68-8.19c.19-1.29-.03-2.61-.64-3.77-.6-1.16-1.56-2.09-2.73-2.68Zm-21.71,18.67c-5.19,.11-9.43-1.62-9.48-3.86-.05-2.24,4.12-4.15,9.31-4.26,5.19-.11,9.43,1.62,9.48,3.86,.05,2.24-4.12,4.14-9.31,4.25h0Z"/>
    <path class="cls-2" d="M116.28,103.11c-1.77,4.38-.71,8.95,2.37,10.2,3.08,1.25,7.02-1.3,8.79-5.68,1.77-4.39,.71-8.95-2.37-10.2-3.08-1.25-7.02,1.3-8.79,5.68Z"/>
    <path class="cls-2" d="M120.07,151.94c.27,2.59,.74,5.16,1.41,7.67,0,0,16.63,20.48,18.02,37.91,0,0,5.22-26.98-19.4-53.16-.34,2.52-.35,5.07-.03,7.58"/>
    <path class="cls-2" d="M109.27,113.77c.14-.34,.34-.66,.6-.93,.16-.15,.36-.24,.57-.26,.21-.02,.43,.03,.61,.15,4.1,2.65,8.39,4.99,12.84,7.01l.04,.02c4.77,2.12,8.7,3.23,11.01,3.06,1.11-.02,2.18-.4,3.05-1.08,4.04-3.39-2.96-15.06-3.31-15.64,20.79,29.15,1.29,25.9-8.77,22.87-.7-.21-1.44-.28-2.17-.2-.73,.08-1.43,.31-2.07,.68-.64,.36-1.19,.85-1.63,1.44-.44,.59-.76,1.26-.93,1.97-3.03,12.72-3.47,32.65,13.63,52.15,0,0-43.44-25.59-23.49-71.24"/>
    <path class="cls-2" d="M105.91,157.15c-1.11-2.51-2.02-5.1-2.71-7.76-10.02-9.21-17.27-19.62-14.9-24.34,2.73-5.43,11.92-2.84,15.3-2-8.41-2.95-15.19-2.95-17.93,.71-4.71,6.3,4.31,21.06,20.23,33.38m36.62,7.84c-.87,1.47-2.84,2.05-5.21,2.09,.67,1.61,1.25,3.19,1.76,4.72,1.3,.09,2.6-.12,3.8-.61,1.2-.49,2.28-1.25,3.14-2.23,4.83-6.45-4.76-21.79-21.41-34.27-.93-.7-1.87-1.38-2.8-2.02,.93,.75,26.92,21.84,20.74,32.32"/>
  </g>
</svg>