<?xml version="1.0" encoding="UTF-8"?>
<svg id="Capa_1" data-name="Capa 1" xmlns="http://www.w3.org/2000/svg" viewBox="0 0 480 270">
  <defs>
    <style>
      .cls-1 {
        fill: none;
      }

      .cls-2 {
        fill: #fff;
      }
    </style>
  </defs>
  <rect class="cls-1" width="480" height="270"/>
  <g>
    <path class="cls-2" d="M181.24,135c0,15.64-11.61,27.63-26.85,27.63h-22.11v-55.27h22.11c15.24,0,26.85,12,26.85,27.63m-12.16,0c0-9.48-6-15.48-14.69-15.48h-9.47v30.95h9.47c8.69,0,14.69-6,14.69-15.47h0Z"/>
    <path class="cls-2" d="M109.16,148.3l4.58,14.33h13.82l-4.87-14.33h-13.52Z"/>
    <path class="cls-2" d="M96.25,135.78l4.46-13.96,4.46,13.96h13.26l-9.66-28.41h-16.11l-9.66,28.41h13.26Z"/>
    <path class="cls-2" d="M78.74,148.3l-4.88,14.34h13.82l4.57-14.33h-13.51Z"/>
    <path class="cls-2" d="M235.28,162.63h-15.09l-21.32-30v30h-12.64v-55.27h9.48l21.32,30,18.25,25.27Z"/>
    <path class="cls-2" d="M234.75,145.96l-14.25-19v-19.52h14.25v38.52Z"/>
    <path class="cls-2" d="M258.6,145.25c-.03-1.48-.64-2.89-1.7-3.93-.49-.5-1.09-.9-1.74-1.17-.65-.27-1.35-.4-2.06-.39-.73,0-1.46,.15-2.13,.44-.65,.27-1.23,.68-1.72,1.18-.49,.51-.88,1.1-1.16,1.74-.29,.67-.44,1.4-.44,2.13v15.61c0,.44-.18,.87-.49,1.18-.31,.31-.74,.49-1.18,.49s-.87-.18-1.18-.49c-.31-.31-.49-.74-.49-1.18v-15.61c0-1.18,.22-2.36,.67-3.45,.43-1.05,1.06-2,1.86-2.8,.8-.8,1.75-1.44,2.8-1.89,1.09-.47,2.26-.71,3.45-.7,1.43-.02,2.84,.32,4.1,1,1.2,.64,2.23,1.56,3.02,2.67,.82-1.1,1.86-2.01,3.07-2.67,1.26-.67,2.67-1.02,4.09-1,1.19,0,2.36,.23,3.45,.7,2.11,.89,3.79,2.57,4.68,4.68,.47,1.09,.71,2.26,.7,3.45v15.61c0,.44-.18,.87-.49,1.18-.31,.31-.74,.49-1.18,.49s-.87-.18-1.18-.49c-.31-.31-.49-.74-.49-1.18v-15.61c0-.73-.15-1.46-.44-2.13-.56-1.32-1.62-2.37-2.93-2.93-.67-.28-1.4-.43-2.13-.43s-1.45,.15-2.12,.43c-.65,.27-1.23,.68-1.72,1.18-.49,.51-.88,1.1-1.16,1.74-.29,.67-.44,1.4-.44,2.13v15.61c0,.44-.18,.87-.49,1.18s-.74,.49-1.18,.49-.87-.18-1.18-.49c-.31-.31-.49-.74-.49-1.18v-15.61h.03Z"/>
    <path class="cls-2" d="M282.45,151.11c.17,1.13,.56,2.22,1.13,3.21,1.13,1.96,2.9,3.46,5.01,4.26,2.3,.86,4.83,.82,7.11-.11,1.14-.48,2.18-1.16,3.07-2.02,.32-.3,.74-.46,1.17-.46,.44,0,.85,.18,1.16,.49,.31,.31,.49,.73,.49,1.16s-.16,.86-.46,1.17c-1.08,1.26-2.46,2.23-4.01,2.83-1.65,.58-3.39,.86-5.14,.83-1.73,.01-3.44-.32-5.03-.97-1.53-.62-2.93-1.54-4.12-2.69-1.2-1.16-2.15-2.56-2.8-4.09-.69-1.64-1.04-3.4-1.02-5.17-.01-1.73,.33-3.44,1-5.03,.64-1.53,1.57-2.92,2.74-4.09,1.2-1.18,2.6-2.13,4.15-2.8,1.64-.71,3.41-1.1,5.2-1.16,1.68-.01,3.34,.34,4.87,1.02,1.51,.67,2.88,1.6,4.07,2.75,2.43,2.37,3.86,5.6,3.98,8.99,.05,.25,.03,.51-.05,.76-.08,.25-.22,.47-.41,.64-.33,.3-.76,.48-1.21,.48h-20.9Zm9.53-11.25c-1.15,0-2.29,.21-3.37,.62-1.04,.4-2,.96-2.86,1.67-.85,.7-1.56,1.55-2.1,2.51-.56,.97-.95,2.03-1.16,3.12h19.01c-.42-2.2-1.59-4.19-3.3-5.63-.86-.71-1.82-1.27-2.86-1.67-1.07-.42-2.22-.63-3.37-.62h0Z"/>
    <path class="cls-2" d="M319.44,136.47c1.93,.05,3.82,.58,5.49,1.53,1.58,.9,3.02,2.03,4.26,3.37v-11.9c0-.44,.18-.87,.49-1.18,.31-.31,.74-.49,1.18-.49s.87,.18,1.18,.49c.31,.31,.49,.74,.49,1.18v20.09c.02,1.78-.33,3.54-1.02,5.17-.65,1.54-1.6,2.93-2.8,4.09-1.2,1.16-2.61,2.07-4.15,2.69-1.59,.65-3.29,.98-5.01,.97-1.76,.02-3.5-.33-5.12-1.02-1.54-.66-2.94-1.61-4.12-2.8-1.17-1.19-2.11-2.59-2.77-4.12-.68-1.59-1.03-3.3-1.02-5.02,0-1.73,.36-3.43,1.05-5.02,1.36-3.11,3.84-5.6,6.94-6.97,1.55-.7,3.24-1.06,4.94-1.05m9.75,13.09c-.06-1.34-.36-2.65-.89-3.87-.49-1.14-1.2-2.18-2.07-3.07-.88-.88-1.92-1.57-3.07-2.04-1.15-.47-2.38-.71-3.61-.7-1.3,0-2.58,.25-3.78,.75-2.34,.97-4.2,2.83-5.17,5.17-.5,1.19-.76,2.47-.76,3.77-.01,1.29,.25,2.56,.76,3.74,.99,2.32,2.84,4.17,5.17,5.14,1.19,.51,2.48,.76,3.78,.76,1.29,0,2.56-.25,3.74-.76,2.31-.99,4.15-2.83,5.14-5.14,.51-1.19,.76-2.46,.75-3.75h.01Z"/>
    <path class="cls-2" d="M335.06,130.6c0-.51,.18-1.01,.5-1.4,.32-.4,.78-.67,1.28-.77,.5-.1,1.02-.02,1.47,.22s.81,.63,1,1.1c.2,.47,.22,1,.08,1.49-.15,.49-.46,.91-.89,1.2-.43,.28-.94,.41-1.45,.36-.51-.05-.99-.28-1.35-.64-.21-.2-.37-.44-.49-.71-.11-.27-.17-.56-.16-.85Zm.54,7.49c0-.44,.18-.87,.49-1.18,.31-.31,.74-.49,1.18-.49s.87,.18,1.18,.49c.31,.31,.49,.74,.49,1.18v22.78c0,.44-.18,.87-.49,1.18-.31,.31-.74,.49-1.18,.49s-.87-.18-1.18-.49c-.31-.31-.49-.74-.49-1.18v-22.78Z"/>
    <path class="cls-2" d="M361.22,142.5c-.91-.8-1.95-1.44-3.07-1.91-2.39-.98-5.07-.97-7.46,.03-1.15,.49-2.19,1.19-3.07,2.07-.89,.89-1.59,1.94-2.07,3.1-.5,1.19-.76,2.47-.76,3.77-.01,1.29,.25,2.56,.76,3.74,.99,2.31,2.83,4.15,5.14,5.14,1.18,.51,2.46,.76,3.74,.76,1.28,.01,2.54-.24,3.72-.73,1.14-.48,2.18-1.16,3.07-2.02,.32-.31,.74-.48,1.18-.48s.87,.17,1.18,.48c.16,.16,.28,.35,.36,.55,.08,.21,.11,.43,.1,.65-.03,.5-.25,.98-.62,1.32-.41,.4-.86,.77-1.32,1.11-.62,.45-1.29,.84-1.99,1.16-.83,.38-1.7,.68-2.58,.89-2.16,.53-4.41,.5-6.55-.08-2.14-.58-4.1-1.69-5.7-3.23-1.2-1.16-2.15-2.56-2.8-4.09-.69-1.64-1.04-3.4-1.02-5.17-.01-1.69,.31-3.37,.95-4.94,.64-1.57,1.59-2.99,2.79-4.19,1.19-1.19,2.6-2.14,4.15-2.8,1.64-.71,3.41-1.1,5.2-1.16,1.01,0,2.01,.13,2.99,.4,1.6,.46,3.1,1.19,4.44,2.18,.57,.44,1.04,.81,1.4,1.13,.27,.28,.47,.62,.57,1,.08,.23,.09,.48,.03,.71-.06,.24-.19,.45-.38,.6-.15,.16-.34,.28-.54,.36-.2,.08-.42,.12-.64,.12-.22,0-.44-.04-.64-.12-.2-.08-.39-.21-.54-.37"/>
    <path class="cls-2" d="M379.69,136.47c1.7,0,3.38,.35,4.93,1.05,3.11,1.37,5.59,3.86,6.95,6.97,.7,1.59,1.06,3.32,1.05,5.06v11.36c0,.44-.18,.87-.49,1.18-.31,.31-.74,.49-1.18,.49s-.87-.18-1.18-.49c-.31-.31-.49-.74-.49-1.18v-3.28c-1.23,1.37-2.68,2.52-4.28,3.42-1.65,.95-3.51,1.44-5.41,1.43-3.41,.03-6.7-1.29-9.15-3.66-1.2-1.16-2.15-2.56-2.8-4.09-.69-1.64-1.04-3.4-1.02-5.17-.01-1.69,.32-3.37,.96-4.94,.64-1.57,1.59-2.99,2.79-4.19,1.19-1.19,2.6-2.14,4.15-2.8,1.64-.71,3.4-1.11,5.19-1.16m-9.75,13.09c-.01,1.29,.25,2.56,.76,3.74,.49,1.15,1.19,2.19,2.07,3.07,.88,.88,1.92,1.58,3.07,2.07,1.17,.49,2.43,.75,3.7,.76,1.27,0,2.53-.24,3.71-.73,1.13-.47,2.17-1.16,3.04-2.02,.89-.87,1.6-1.9,2.1-3.04,.53-1.22,.83-2.52,.89-3.85,0-1.29-.25-2.58-.76-3.77-.97-2.34-2.83-4.2-5.17-5.17-1.2-.5-2.48-.76-3.78-.75-1.29,0-2.56,.25-3.74,.75-1.15,.49-2.19,1.19-3.07,2.07-.9,.9-1.61,1.97-2.09,3.15-.49,1.18-.73,2.44-.73,3.71h0Z"/>
    <path class="cls-2" d="M406.13,160.86c0,.22-.04,.44-.12,.64-.08,.2-.21,.39-.36,.54-.16,.16-.34,.28-.54,.36-.2,.08-.42,.12-.64,.12-1.44,.02-2.86-.32-4.14-.97-1.05-.56-1.98-1.33-2.72-2.26-.68-.85-1.19-1.82-1.51-2.86-.28-.87-.44-1.78-.46-2.69v-24.39c0-.44,.18-.87,.49-1.18,.31-.31,.74-.49,1.18-.49s.87,.18,1.18,.49c.31,.31,.49,.74,.49,1.18v24.39c.02,.44,.08,.87,.19,1.29,.15,.63,.42,1.24,.78,1.78,.49,.75,1.16,1.36,1.95,1.77,.79,.42,1.68,.62,2.57,.6,.22,0,.44,.04,.64,.12,.2,.08,.39,.21,.55,.36,.16,.16,.28,.34,.36,.54,.08,.2,.12,.42,.12,.64"/>
  </g>
</svg>