<?xml version="1.0" encoding="UTF-8"?>
<svg id="Capa_1" data-name="Capa 1" xmlns="http://www.w3.org/2000/svg" viewBox="0 0 480 270">
  <defs>
    <style>
      .cls-1 {
        fill: none;
      }

      .cls-2 {
        fill: #fff;
      }
    </style>
  </defs>
  <rect class="cls-1" width="480" height="270"/>
  <g>
    <path class="cls-2" d="M72.68,121.5c-4.1-4.5-11.77-.65-11.35,5.76-.36,6.77,7.92,10.4,11.63,5.05l4.38,3.24c-6.77,8.72-22.13,2.92-21.44-8.26-.67-10.75,13.4-16.93,20.79-9.09l-4.01,3.31Z"/>
    <path class="cls-2" d="M91.63,114.63c16.78-1.01,16.9,25.82,.11,24.96-16.78,1.01-16.9-25.82-.11-24.96Zm.09,20.13c9.72,.36,9.64-15.75-.07-15.3-9.72-.36-9.64,15.75,.07,15.3Z"/>
    <path class="cls-2" d="M108,115.16l8.85-.04c7.52-1.45,12.87,8.03,4.65,11.25v.07c9.5,2,4.7,13.67-3.67,12.43l-9.73,.04-.11-23.75Zm5.28,9.47c2.25-.19,7.01,.9,7.07-2.62-.14-3.4-4.87-2.27-7.09-2.45l.02,5.07Zm.05,9.83c2.48-.3,8.06,1.18,8.17-2.83-.33-3.72-5.73-2.32-8.2-2.58l.03,5.41Z"/>
    <path class="cls-2" d="M129.94,115.06l16.15-.07,.02,4.83-10.91,.05v4.43s10.31-.05,10.31-.05l.02,4.83-10.3,.05,.02,4.83,11.51-.05,.02,4.83-16.74,.08-.11-23.75Z"/>
    <path class="cls-2" d="M150.87,114.97l9.19-.04c8.83-1.73,12.99,11.47,3.89,13.7l6.08,10-6.27,.03-5.01-9.47h-2.58s.04,9.51,.04,9.51l-5.23,.02-.11-23.75Zm5.27,9.8c2.45-.29,7.33,1.08,7.47-2.68-.11-3.75-5.04-2.51-7.5-2.72l.03,5.4Z"/>
    <path class="cls-2" d="M176.62,119.48l-6.78,.03-.03-4.63,18.79-.08,.02,4.63-6.78,.03,.08,19.12-5.23,.02-.09-19.12Z"/>
    <path class="cls-2" d="M211.35,129.29c1.2,12.81-21.13,12.87-20.03,.09l-.07-14.59,5.23-.03c.96,4.32-3,19.82,4.89,19.5,7.82,.26,3.77-15.28,4.68-19.55l5.23-.02,.07,14.59Z"/>
    <path class="cls-2" d="M216.11,114.68l9.19-.04c8.83-1.73,12.99,11.47,3.89,13.7l6.08,10-6.27,.03-5.01-9.47h-2.58s.04,9.51,.04,9.51l-5.23,.02-.11-23.75Zm5.28,9.8c2.45-.29,7.33,1.08,7.47-2.69-.11-3.75-5.04-2.51-7.5-2.71l.03,5.4Z"/>
    <path class="cls-2" d="M245.66,114.54l4.33-.02,10.44,23.7-5.9,.03-2.07-5.03-9.23,.04-1.96,5.04-5.77,.03,10.16-23.8Zm2.04,6.9l-2.85,7.39,5.8-.03-2.95-7.37Z"/>
    <path class="cls-2" d="M274.47,120.22c-1.7-2.1-6.93-2.38-7.31,.9,.02,4.33,10.94,1.49,10.98,9.81,.11,8.71-11.96,9.96-17.12,4.91l3.71-4.11c1.66,2.62,7.69,3.39,8.18-.27-.02-4.36-11.15-1.96-11.18-9.88-.04-8.12,11.17-9.86,16.31-5.31l-3.57,3.95Z"/>
    <path class="cls-2" d="M297.78,127.92l-8.99-13.57,6.51-.03,5.07,8.87,5.29-8.91,6.21-.03-8.86,13.66,.04,10.13-5.23,.02-.05-10.15Z"/>
    <path class="cls-2" d="M328.16,118.8l-6.78,.03-.02-4.64,18.79-.08,.02,4.63-6.78,.03,.08,19.12-5.23,.03-.09-19.12Z"/>
    <path class="cls-2" d="M347.53,114.09l4.33-.02,10.44,23.71-5.9,.03-2.07-5.03-9.23,.04-1.96,5.04-5.77,.03,10.16-23.79Zm2.04,6.9l-2.85,7.39,5.8-.03-2.95-7.36Z"/>
    <path class="cls-2" d="M376.34,119.74c-1.7-2.1-6.93-2.38-7.31,.91,.02,4.33,10.94,1.5,10.98,9.82,.11,8.71-11.96,9.96-17.13,4.91l3.71-4.11c1.66,2.62,7.7,3.39,8.18-.27-.02-4.36-11.15-1.96-11.18-9.88-.03-8.11,11.17-9.86,16.32-5.31l-3.57,3.94Z"/>
    <path class="cls-2" d="M391.64,113.88l4.33-.02,10.44,23.7-5.9,.03-2.07-5.03-9.23,.04-1.96,5.04-5.77,.03,10.15-23.79Zm2.04,6.9l-2.85,7.4,5.8-.03-2.95-7.37Z"/>
    <path class="cls-2" d="M420.45,119.55c-1.7-2.1-6.93-2.38-7.31,.9,.02,4.33,10.94,1.5,10.98,9.82,.11,8.71-11.96,9.96-17.13,4.91l3.71-4.11c1.66,2.61,7.7,3.39,8.18-.28-.02-4.36-11.15-1.96-11.18-9.88-.04-8.12,11.17-9.86,16.31-5.31l-3.57,3.94Z"/>
    <path class="cls-2" d="M63.25,148.77c-8.36-5.85-7.77,12.21,.41,5.6l.88,.73c-2.71,3.59-8.98,1.27-8.74-3.41-.3-4.39,5.57-7.07,8.46-3.67l-1.02,.74Z"/>
    <path class="cls-2" d="M76.17,151.6c-.28-6.76,10.51-6.8,10.29-.05,.28,6.76-10.51,6.8-10.29,.05Zm9.04-.04c.19-5.31-8.02-5.28-7.78,.03-.19,5.32,8.02,5.29,7.78-.03h0Z"/>
    <path class="cls-2" d="M98.9,146.58h2.51c3.8-.93,5.78,4.52,1.48,5.29l2.81,4.52h-1.43l-2.69-4.41h-1.5l.02,4.42h-1.17l-.04-9.82Zm1.19,4.33c5.47,.69,5.39-4.03-.02-3.25l.02,3.25Z"/>
    <path class="cls-2" d="M117.97,146.49h2.51c3.8-.93,5.79,4.52,1.48,5.29l2.81,4.52h-1.43l-2.69-4.41h-1.5s.02,4.43,.02,4.43h-1.17l-.04-9.83Zm1.19,4.33c5.48,.68,5.39-4.04-.02-3.25l.02,3.25Z"/>
    <path class="cls-2" d="M137.05,146.41l6.19-.03v1.08l-5.02,.02,.02,3.09,4.68-.02v1.09l-4.68,.02v3.5s5.28-.02,5.28-.02v1.09l-6.44,.03-.02-9.84Z"/>
    <path class="cls-2" d="M162.48,147.38l-3.25,.02,.04,8.76h-1.17l-.04-8.76-3.25,.02v-1.08l7.67-.04v1.09Z"/>
    <path class="cls-2" d="M176.35,146.23h1.1l4.23,9.82h-1.36s-1.01-2.4-1.01-2.4l-4.92,.02-1,2.42h-1.32l4.29-9.86Zm.53,1.5h-.03l-2.02,4.85,4.02-.02-1.97-4.83Z"/>
    <path class="cls-2" d="M197.8,153.43c.52,2.9-4.95,4.13-5.43,.71l1.17-.24c.47,2.23,3.54,1.18,3.1-.86l-.03-6.89h1.17l.03,7.29Z"/>
    <path class="cls-2" d="M210.8,146.08l6.18-.03v1.08l-5.02,.02,.02,3.09,4.68-.02v1.09l-4.68,.02v3.5s5.28-.02,5.28-.02v1.09l-6.44,.03-.02-9.84Z"/>
    <path class="cls-2" d="M243.88,145.93c3.52,0,8.29-.79,8.63,4.87-.29,5.67-5.06,4.93-8.58,4.96l-.05-9.83Zm1.21,8.75c8.37,1.38,8.32-9.13-.03-7.67l.03,7.67Z"/>
    <path class="cls-2" d="M264.94,145.83l6.19-.03v1.08l-5.02,.02,.02,3.09,4.68-.02v1.09l-4.68,.02v3.5s5.28-.02,5.28-.02v1.08l-6.44,.03-.02-9.84Z"/>
    <path class="cls-2" d="M302.89,147.39c-.88-1.44-3.88-1.14-3.89,.77,.03,2.37,5.41,1.5,5.04,4.7,.04,3.23-4.85,3.82-6.48,1.54l1-.83c2.39,3.32,7.13-1.78,1.65-2.62-5.87-1.65,.19-8.4,3.64-4.41l-.96,.84Z"/>
    <path class="cls-2" d="M316.52,145.59l6.19-.03v1.08l-5.02,.02,.02,3.09,4.68-.02v1.09l-4.68,.02v3.5s5.28-.02,5.28-.02v1.09l-6.44,.03-.03-9.84Z"/>
    <path class="cls-2" d="M343.75,154.64c-12.06,5.73-11.26-14.63-.21-8.13l-.87,.92c-7.98-5.45-9.15,10.49-.1,6.48v-3.02s-2.28,.01-2.28,.01v-1.08l3.43-.02,.02,4.84Z"/>
    <path class="cls-2" d="M364.14,151.47c.66,5.21-8.03,5.25-7.42,.03l-.03-6.09h1.17c.47,2.37-1.5,9.01,2.58,8.99,4.08-.02,2.06-6.65,2.5-9.02h1.17l.03,6.08Z"/>
    <path class="cls-2" d="M377.11,145.31h2.51c3.8-.93,5.78,4.51,1.48,5.29l2.82,4.52h-1.43l-2.69-4.41h-1.5l.02,4.42h-1.17l-.04-9.82Zm1.19,4.33c5.47,.69,5.39-4.03-.02-3.25l.02,3.25Z"/>
    <path class="cls-2" d="M395.63,150.15c-.28-6.76,10.51-6.8,10.29-.05,.28,6.76-10.51,6.81-10.29,.05Zm9.04-.04c.19-5.31-8.02-5.28-7.78,.03-.19,5.32,8.03,5.28,7.78-.03Z"/>
    <path class="cls-2" d="M423.04,146.85c-.88-1.44-3.88-1.15-3.89,.77,.03,2.37,5.42,1.5,5.04,4.7,.04,3.23-4.85,3.82-6.49,1.54l1-.82c2.39,3.32,7.13-1.78,1.66-2.62-5.87-1.65,.19-8.4,3.64-4.41l-.96,.84Z"/>
  </g>
</svg>