<?xml version="1.0" encoding="UTF-8"?>
<svg id="Capa_1" data-name="Capa 1" xmlns="http://www.w3.org/2000/svg" viewBox="0 0 480 270">
  <defs>
    <style>
      .cls-1 {
        fill: none;
      }

      .cls-2 {
        fill: #fff;
      }
    </style>
  </defs>
  <rect class="cls-1" width="480" height="270"/>
  <g>
    <path class="cls-2" d="M104.14,112.03v22.67h25.57v11.04h-38.03v-37.98h8.19c1.13,0,2.22,.45,3.02,1.25,.8,.8,1.25,1.89,1.25,3.02Z"/>
    <path class="cls-2" d="M132.64,107.76h38.59v9.53h-26.13v4.45h26.13v8.94h-26.13v4.02h26.13v11.04h-38.59v-37.98Z"/>
    <path class="cls-2" d="M214.88,118.8h-21.57c-3.61,0-5.42,1.27-5.42,3.8v8.31c0,2.53,1.81,3.8,5.42,3.8h21.57v11.04h-21.57c-5.94,0-10.41-1.15-13.39-3.44-2.99-2.3-4.48-6.09-4.48-11.39v-8.31c0-5.3,1.49-9.1,4.48-11.39,2.99-2.29,7.45-3.44,13.39-3.44h21.57v11.04Z"/>
    <path class="cls-2" d="M236.25,107.76h10.84c5.94,0,10.41,1.15,13.39,3.44,2.99,2.3,4.48,6.09,4.48,11.39v8.31c0,5.3-1.49,9.1-4.48,11.39-2.99,2.29-7.45,3.44-13.39,3.44h-10.84c-5.94,0-10.41-1.15-13.39-3.44-2.99-2.3-4.48-6.09-4.48-11.39v-8.31c0-5.3,1.49-9.1,4.48-11.39,2.99-2.29,7.45-3.44,13.39-3.44Zm0,26.94h10.84c3.61,0,5.42-1.27,5.42-3.8v-8.3c0-2.53-1.81-3.8-5.42-3.8h-10.84c-3.61,0-5.42,1.27-5.42,3.8v8.31c0,2.53,1.81,3.8,5.42,3.8Z"/>
    <path class="cls-2" d="M337.58,109.79v35.94h-12.46v-19.41l-15.87,19.41h-14.01v-19.41l-17.42,19.41h-14.84l29-32.32c1.02-1.14,2.27-2.05,3.67-2.68,1.4-.62,2.91-.95,4.45-.95h7.59l3.07,14.39,11.07-10.75c1.03-1.15,2.29-2.07,3.7-2.7,1.41-.63,2.94-.96,4.48-.96h7.55Z"/>
    <path class="cls-2" d="M370.44,138.21h-12.96v7.53h-12.46v-33.16c0-1.28,.51-2.5,1.41-3.41,.9-.9,2.13-1.41,3.41-1.41h20.6c5.94,0,10.41,1.15,13.39,3.44,2.99,2.3,4.48,4.34,4.48,9.63v2.53c0,5.3-1.49,9.1-4.48,11.39-2.99,2.29-7.45,3.44-13.4,3.45Zm0-21.16h-12.96v10.13h12.96c3.61,0,5.42-1.27,5.42-3.8v-2.53c0-2.54-1.81-3.81-5.42-3.81Z"/>
    <path class="cls-2" d="M157.59,154.63v7.49h-1.32v-7.49h1.32Z"/>
    <path class="cls-2" d="M159.9,162.12v-7.49h1.44l3.28,3.79c.67,.76,1.29,1.58,1.84,2.43h.03c-.12-1.03-.17-2.06-.15-3.09v-3.13h1.24v7.49h-1.33l-3.25-3.8c-.69-.79-1.33-1.63-1.91-2.5h-.05c.07,.96,.11,1.86,.11,3.1v3.2h-1.24Z"/>
    <path class="cls-2" d="M171.82,155.45h-3.11v-.82h7.57v.82h-3.12v6.67h-1.33v-6.67Z"/>
    <path class="cls-2" d="M182.71,158.61h-3.97v2.7h4.43v.81h-5.75v-7.49h5.52v.81h-4.2v2.37h3.97v.8h0Z"/>
    <path class="cls-2" d="M184.88,154.73c.84-.11,1.69-.16,2.53-.16,1.02-.09,2.05,.12,2.96,.61,.24,.15,.45,.36,.59,.61,.14,.25,.21,.53,.22,.82,0,.99-.85,1.64-1.93,1.91v.03c.37,.09,.7,.28,.96,.55,.27,.27,.45,.6,.54,.97,.18,.71,.45,1.4,.79,2.06h-1.37c-.3-.57-.53-1.17-.68-1.79-.09-.46-.35-.87-.73-1.14-.38-.27-.85-.39-1.31-.32h-1.24v3.25h-1.32v-7.4Zm1.32,3.41h1.35c1.41,0,2.31-.57,2.31-1.42,0-.97-.96-1.39-2.35-1.4-.44,0-.87,.02-1.3,.09v2.73Z"/>
    <path class="cls-2" d="M193.05,162.12v-7.49h1.44l3.28,3.79c.67,.76,1.29,1.58,1.84,2.43h.03c-.12-1.03-.17-2.06-.15-3.09v-3.13h1.24v7.49h-1.33l-3.25-3.8c-.69-.79-1.33-1.63-1.91-2.5h-.05c.08,.96,.11,1.86,.11,3.1v3.2h-1.25Z"/>
    <path class="cls-2" d="M204.68,159.76l-1.06,2.36h-1.36l3.47-7.49h1.59l3.49,7.49h-1.41l-1.09-2.36h-3.62Zm3.35-.76l-1-2.16c-.2-.45-.38-.9-.53-1.37h-.03c-.15,.44-.32,.9-.52,1.36l-1,2.17h3.08Z"/>
    <path class="cls-2" d="M213.08,155.45h-3.11v-.82h7.57v.82h-3.12v6.67h-1.34v-6.67Z"/>
    <path class="cls-2" d="M220,154.63v7.49h-1.32v-7.49h1.32Z"/>
    <path class="cls-2" d="M231.05,158.29c0,2.58-2.14,3.95-4.75,3.95s-4.6-1.54-4.6-3.8c0-2.38,2.02-3.94,4.75-3.94s4.6,1.57,4.6,3.79Zm-7.93,.13c-.03,.65,.14,1.3,.48,1.86,.34,.56,.84,1,1.43,1.27,.59,.27,1.26,.36,1.9,.25,.65-.11,1.24-.41,1.72-.86,.47-.45,.8-1.03,.94-1.67,.14-.64,.09-1.3-.16-1.91-.24-.61-.66-1.13-1.2-1.5-.54-.37-1.18-.57-1.83-.57-.43-.04-.85,.02-1.26,.16-.4,.14-.77,.37-1.08,.66s-.55,.65-.72,1.05c-.16,.4-.24,.82-.22,1.25h0Z"/>
    <path class="cls-2" d="M232.76,162.12v-7.49h1.44l3.28,3.79c.67,.76,1.29,1.58,1.84,2.43h.03c-.12-1.03-.17-2.06-.15-3.09v-3.13h1.24v7.49h-1.33l-3.25-3.8c-.69-.79-1.33-1.63-1.91-2.5h-.05c.07,.96,.11,1.86,.11,3.1v3.2h-1.25Z"/>
    <path class="cls-2" d="M244.4,159.76l-1.06,2.36h-1.37l3.47-7.49h1.59l3.49,7.49h-1.41l-1.09-2.36h-3.63Zm3.35-.76l-1-2.16c-.2-.45-.38-.9-.53-1.37h-.03c-.15,.44-.32,.9-.52,1.36l-1,2.17h3.08Z"/>
    <path class="cls-2" d="M252.03,154.63h1.32v6.68h4.37v.81h-5.69v-7.49Z"/>
    <path class="cls-2" d="M270.18,161.79c-1.03,.27-2.08,.41-3.14,.41-1.35,.07-2.68-.27-3.82-.99-.45-.31-.81-.73-1.06-1.22-.25-.49-.37-1.03-.37-1.57,.02-2.23,2.11-3.87,5.54-3.87,.86-.02,1.72,.1,2.55,.34l-.32,.79c-.73-.23-1.49-.34-2.26-.32-2.49,0-4.11,1.14-4.11,3.01s1.56,3.03,3.94,3.03c.59,.03,1.19-.04,1.76-.2v-2.23h-2.08v-.78h3.37v3.6h0Z"/>
    <path class="cls-2" d="M272.2,154.73c.84-.11,1.69-.16,2.53-.16,1.02-.09,2.05,.12,2.96,.61,.24,.15,.45,.36,.59,.61,.14,.25,.21,.53,.22,.82,0,.99-.85,1.64-1.93,1.91v.03c.36,.09,.7,.28,.96,.55,.27,.27,.45,.6,.54,.97,.18,.71,.45,1.4,.79,2.06h-1.37c-.3-.57-.53-1.17-.68-1.79-.09-.46-.35-.87-.73-1.14-.38-.27-.85-.39-1.31-.32h-1.24v3.25h-1.32v-7.4Zm1.32,3.41h1.35c1.41,0,2.31-.57,2.31-1.42,0-.97-.96-1.39-2.35-1.4-.44,0-.87,.02-1.3,.09v2.73Z"/>
    <path class="cls-2" d="M289.15,158.29c0,2.58-2.14,3.95-4.75,3.95s-4.6-1.54-4.6-3.8c0-2.38,2.02-3.94,4.75-3.94s4.59,1.57,4.59,3.79Zm-7.93,.13c-.03,.65,.14,1.3,.48,1.86,.34,.56,.84,1,1.44,1.27,.6,.27,1.26,.36,1.9,.25,.65-.11,1.24-.41,1.72-.86,.47-.45,.8-1.03,.94-1.67,.14-.64,.08-1.31-.16-1.91-.24-.61-.66-1.13-1.2-1.5-.54-.37-1.18-.56-1.83-.57-.43-.04-.85,.02-1.26,.16s-.77,.37-1.08,.66c-.31,.29-.55,.65-.72,1.05-.16,.4-.24,.82-.22,1.25h0Z"/>
    <path class="cls-2" d="M292.18,154.63v4.43c-.04,.32,0,.65,.11,.95,.11,.31,.28,.58,.51,.81,.23,.23,.51,.4,.81,.51,.3,.11,.63,.15,.95,.11,.33,.05,.66,.02,.98-.08,.32-.1,.61-.27,.85-.51s.42-.51,.54-.82c.11-.31,.16-.65,.12-.98v-4.43h1.33v4.37c0,2.3-1.65,3.25-3.87,3.25-2.09,0-3.67-.88-3.67-3.2v-4.42h1.34Z"/>
    <path class="cls-2" d="M300.68,154.72c.84-.1,1.69-.15,2.53-.14,.99-.07,1.99,.15,2.87,.62,.27,.16,.5,.39,.66,.66,.16,.27,.24,.59,.24,.9,0,.31-.06,.62-.2,.9-.14,.28-.34,.52-.59,.7-.93,.6-2.02,.89-3.12,.82-.35,0-.71-.01-1.06-.07v3h-1.32v-7.4h0Zm1.32,3.61c.36,.06,.73,.08,1.09,.08,1.59,0,2.56-.57,2.56-1.6s-.96-1.47-2.41-1.47c-.42,0-.83,.02-1.24,.08v2.91Z"/>
  </g>
</svg>