<?xml version="1.0" encoding="UTF-8"?>
<svg id="Capa_1" data-name="Capa 1" xmlns="http://www.w3.org/2000/svg" viewBox="0 0 480 270">
  <defs>
    <style>
      .cls-1 {
        fill: none;
      }

      .cls-2 {
        fill: #fff;
      }
    </style>
  </defs>
  <rect class="cls-1" width="480" height="270"/>
  <g>
    <path class="cls-2" d="M231.75,167.77c-2.2,.27-4.43-.19-6.34-1.32-.35-.23-.87-.42-.79-.94,.08-.53,.68-.53,1.05-.62,3.99-.85,8.05-1.38,12.13-1.57,5.07-.41,10.15-.77,15.23-1.16,1.07-.09,2.11-.37,3.08-.83,.89-.35,1.63-.99,2.11-1.82,.48-.83,.66-1.79,.53-2.73-.04-.58-.58-1.41,.1-1.7,.75-.32,1.4,.4,1.9,.95,2.09,2.29,1.24,6.63-1.62,8.38-1.02,.64-2.17,1.03-3.37,1.12-7.47,.44-14.87,1.49-22.31,2.24-.56,.03-1.13,.04-1.69,.01Z"/>
    <path class="cls-2" d="M198.04,110.06c-3.46-.03-6-2.23-5.98-5.2,.01-2.87,2.89-5.32,6.22-5.3,1.52-.05,3.01,.51,4.12,1.56,1.11,1.04,1.77,2.49,1.81,4.01,0,2.88-2.61,4.97-6.17,4.94Z"/>
    <path class="cls-2" d="M142.48,152.8c-1.42,.26-2.88,.01-4.13-.71-1.25-.72-2.2-1.86-2.69-3.21-1.46-3.62-3.95-4.52-7.66-4.11-4.86,.54-9.79,.43-14.65,1.13-.56,.03-1.09,.24-1.51,.6-.43,.36-.73,.84-.86,1.38-1.26,4.21-2.26,8.5-2.98,12.84-1.12,5.5-2.77,6.92-8.4,7.11-1.7,.08-3.4,.07-5.09-.03-2.97-.2-3.5-.96-2.06-3.5,2.3-4.47,4.26-9.1,5.85-13.87,5.84-15.46,11.58-30.95,15.46-47.05,.18-.73,.33-1.47,.52-2.2,.83-3.3,1.51-3.86,4.95-3.89,3.73-.02,7.33,1.05,11.01,1.4,.87,.08,.93,.71,1.09,1.3,2.89,10.48,6.4,20.78,10.54,30.83,.7,1.76,1.47,2.61,3.52,2.37,2.47-.28,2.46-.11,2.37,2.44,0,1.58-.47,3.13-1.35,4.45-.36,.47-.57,1.04-.62,1.64-.04,.59,.09,1.19,.38,1.71,.81,1.84,1.6,3.69,2.29,5.58,.79,2.16,.54,2.56-1.68,3.21-.6,.19-1.21,.33-1.84,.42-.8,.1-1.62,.12-2.44,.17Zm-13.06-19.17c-.01-.05-.1-.55-.22-1.03-1.37-5.42-3.43-10.61-5.27-15.87-.17-.5-.13-1.28-.83-1.3-.62-.02-.84,.68-1.12,1.15-1.21,2.2-2.24,4.49-3.08,6.86-1.59,4.02-2.88,8.16-3.86,12.37-.12,.54-.54,1.4,.63,1.25,4.35-.56,8.69-1.17,13.04-1.75,.78-.11,.84-.62,.71-1.68Z"/>
    <path class="cls-2" d="M244.71,110.31c-5.68,.66-10.85,1.27-16.02,1.86-2.18,.34-4.4,.26-6.56-.22-1.06-.21-2-.81-2.64-1.68-1.61-2.37-.69-4.43,2.08-4.76,10.66-1.27,21.32-2.59,31.97-3.87,2.47-.3,3.18,.13,4.26,2.43,.43,1.11,.95,2.19,1.53,3.23,1.8,2.74,1.3,5.13-.67,7.57-5.63,7-11.13,14.11-16.78,21.08-4.11,5.07-7.83,10.47-12.48,15.09-.29,.24-.51,.57-.61,.93-.1,.37-.09,.76,.03,1.12,.3,.78,1.1,.42,1.67,.41,7.54-.13,15.08-.3,22.62-.45,2.17-.04,2.97,.63,3.11,2.54,.18,2.46-.63,3.63-2.74,3.91-9.65,1.26-19.37,2.05-28.93,3.87-4.65,.89-7.63-1.07-10.3-4.23-1.63-1.93-1.49-4.14,.37-6.76,3.88-5.49,7.84-10.93,11.76-16.38,5.69-7.91,11.38-15.81,17.06-23.71,.35-.5,.66-1.02,1.28-1.97Z"/>
    <path class="cls-2" d="M383.63,129.05c-.18,2.19-.26,4.39-.54,6.57-.35,3.88-.38,7.77-.08,11.65,.13,3.83-1.53,5.14-5.29,4.43-.87-.1-1.72-.35-2.5-.75-.98-.6-2.09-.96-3.24-1.05-1.15-.09-2.3,.09-3.37,.53-5.54,1.71-10.53,.36-15.09-3.01-.92-.67-1.69-1.51-2.28-2.48-3.89-6.42-2.3-11.09,4.74-13.79,3.88-1.29,7.91-2.04,12-2.22,.31,.03,.63,0,.93-.06,1.34-.58,3.73,1.04,4.01-1.7,.4-3.78-1.19-6.46-3.95-6.99-1.19-.17-2.4-.09-3.55,.23-1.15,.32-2.23,.89-3.15,1.65-2.2,1.56-4.28,3.29-6.46,4.88-1.21,.88-2.46,1.89-3.92,.24-1.16-1.32-1.22-2.71-.04-4.45,3.73-5.44,13.15-9.01,19.45-7.39,1.64,.42,3.3,.77,4.94,1.18,4.76,1.18,6.77,3.49,7.2,8.38,.12,1.37,.02,2.76,.02,4.14h.18Zm-20.11,14.91c2.45,.14,4.88-.38,7.06-1.51,.8-.56,1.41-1.36,1.74-2.28,.33-.92,.38-1.92,.12-2.87-.74-1.76-2.38-1.69-3.88-1.52-3.62,.49-7.1,1.7-10.25,3.56-1.85,1.03-1.68,2.56,.26,3.51,1.56,.71,3.25,1.09,4.96,1.11h0Z"/>
    <path class="cls-2" d="M341.27,139.92c0,3.14-.02,6.28,0,9.42,0,.94-.26,1.61-1.26,1.78-2.9,.64-5.91,.51-8.75-.35-.3-.06-.59-.18-.85-.36-.26-.18-.47-.4-.64-.66-.17-.26-.28-.55-.33-.86-.05-.31-.04-.62,.03-.92,.46-4.37,.81-8.75,1.11-13.13,.34-3.78-.46-7.58-2.29-10.91-2.29-4.08-5.63-4.36-8.5-.68-2.2,2.83-2.29,6.3-2.77,9.65-.54,4.94-.47,9.92,.21,14.84,.31,2.94-.68,4.2-3.56,4.68-1.81,.24-3.64,.24-5.44-.02-.35,0-.69-.08-1.01-.22-.32-.14-.6-.35-.83-.61-.23-.26-.4-.57-.51-.9-.11-.33-.14-.68-.1-1.03,.02-.88,.08-1.75,.2-2.62,.42-6.65,.27-13.32-.46-19.94-.25-2.75-.34-5.51-.59-8.26-.14-1.55,.56-2.21,1.99-2.32,2.76-.17,5.53-.05,8.27,.36,.48,.06,.88,.23,1,.71,.46,1.79,1.68,1.37,2.82,.93,4.35-1.75,9.15-2.05,13.68-.84,2.12,.41,4.05,1.48,5.53,3.05,1.48,1.57,2.43,3.56,2.72,5.7,.64,4.48,.74,9.02,.32,13.53Z"/>
    <path class="cls-2" d="M298.19,135.36c-.06,1.94-.34,3.87-.84,5.75-1.88,7.59-6.22,11.17-14.02,11.5-4.03,.19-8.06-.36-11.89-1.63-5.3-1.77-7.46-6.1-8.28-11.2-1-6.32,.09-12.8,3.13-18.44,2.4-4.64,6.03-7.07,11.4-6.71,4.27,.29,8.53,.52,12.54,2.23,1.31,.54,2.49,1.35,3.48,2.37,.98,1.02,1.74,2.24,2.23,3.57,1.55,4,2.31,8.26,2.25,12.55Zm-10.27-.72c0-.75,.06-1.51,0-2.26-.31-3.58-.83-7.14-2.92-10.19-2.25-3.27-6.07-3.16-8.19,.19-.42,.7-.76,1.44-1.02,2.21-1.44,4.43-1.84,9.14-1.16,13.75,.19,3.02,1.09,5.95,2.64,8.56,1.96,2.98,5.08,3.15,7.39,.43,.59-.73,1.08-1.54,1.45-2.4,1.35-3.26,1.97-6.77,1.83-10.29Z"/>
    <path class="cls-2" d="M158.19,143.53c.29-7.68-.97-14.27-1.34-20.92-.06-1.07-.17-2.13-.2-3.2-.07-3.2-.06-3.26,3.04-3.56,2.57-.22,5.16-.15,7.71,.19,1.19,.14,1.14,.95,1.3,1.73,.38,1.83,.76,2.07,2.38,1.18,2.09-1.15,4.09-2.47,6.56-2.71,1.62-.26,3.29,0,4.77,.72,.58,.32,1.06,.81,1.36,1.41,.31,.59,.43,1.26,.35,1.93-.06,1.51-1.42,1.45-2.35,1.71-1.39,.4-2.84,.56-4.29,.49-1.2-.12-2.41,.21-3.4,.91s-1.68,1.74-1.97,2.91c-1.3,4.07-2.04,8.31-2.18,12.58-.25,3.7-.41,7.41-.54,11.11-.06,1.8-.7,2.75-2.68,2.8-1.69,.12-3.39,.08-5.07-.11-.48,0-.95-.11-1.38-.3-.44-.19-.83-.48-1.15-.83-.32-.35-.57-.77-.72-1.22-.15-.45-.21-.93-.17-1.41-.09-2.13-.02-4.27-.02-5.41Z"/>
    <path class="cls-2" d="M193.31,141.66c.08-6.41-.41-12.81-1.45-19.13-.78-4.98-.22-5.6,4.83-5.64,2.26-.04,4.52,.09,6.77,.38,2.13,.3,2.87,1.02,2.62,2.9-1.32,9.7-.68,19.44-.69,29.17,0,2.85-.06,2.88-2.96,2.94-2.38,.09-4.77,.03-7.15-.17-.28,.02-.56-.03-.82-.13-.26-.11-.49-.27-.68-.48-.19-.21-.33-.45-.41-.72-.08-.27-.1-.55-.05-.83-.02-2.76,0-5.53,0-8.29Z"/>
    <path class="cls-2" d="M259.97,103.57c3.73,1.14,6.99,5.33,7.07,8.83-.09,1.53-.77,2.96-1.9,3.99-5.91,6.77-11.43,13.86-17.1,20.83-3.4,4.19-7.26,8.01-9.92,12.79-.71,1.27-4.55,2.27-5.67,1.48-.96-.67-.18-1.53,.32-2.04,1.68-1.71,3.06-3.66,4.62-5.46,8.37-9.62,16.18-19.71,24.22-29.59,.73-.69,1.19-1.62,1.3-2.62,.11-1-.14-2-.7-2.84-1-1.68-1.76-3.49-2.25-5.38Z"/>
    <path class="cls-2" d="M160.26,154.51c1.67,.1,2.95,.19,4.23,.25,.94,.09,1.88,.11,2.82,.07,3.02-.26,3.92-1.2,4.17-4.26,.43-5.32-.08-10.69,.61-16,.21-2.19,.72-4.34,1.51-6.4,.44-1.19,1.22-2.22,2.25-2.96,1.03-.74,2.25-1.16,3.52-1.2,1-.08,2-.18,3-.27,2.52-.25,3.37-1.07,3.76-3.61,.05-.34-.14-.82,.33-.97,.41-.12,.69,.23,.96,.48,.67,.53,1.18,1.24,1.47,2.05,.29,.81,.34,1.68,.14,2.52-.23,.8-.7,1.5-1.35,2.01-.65,.51-1.45,.8-2.28,.84-1.18,.15-2.38,.23-3.57,.25-.98-.01-1.94,.27-2.76,.82s-1.45,1.32-1.82,2.23c-1.16,2.45-1.78,5.13-1.8,7.84-.08,3.45-.03,6.91-.04,10.37,0,.82,0,1.64-.07,2.45-.54,5.63-2.85,7.52-8.51,6.82-2.4-.3-4.81-.72-6.59-3.33Z"/>
    <path class="cls-2" d="M93.54,169.82c2.58,0,4.75,.03,6.93,0,5.51-.1,7.38-1.62,8.69-6.93,1.06-4.32,1.83-8.71,3.22-12.96,.1-.54,.4-1.02,.84-1.35,.44-.33,.98-.48,1.53-.43,5.39-.26,10.78-.66,16.16-1,.38-.03,.76,.02,1.12,.15,.36,.13,.68,.34,.95,.6,.27,.27,.48,.59,.61,.94,.13,.36,.19,.74,.16,1.12-.03,1.02-.79,.8-1.36,.84-4.57,.3-9.14,.64-13.72,.81-1.91,.07-2.88,.64-3.25,2.66-.66,3.57-1.54,7.11-2.49,10.62-1.67,6.12-4.21,7.97-10.59,7.84-2.77-.06-5.55-.15-7.9-1.94-.32-.3-.62-.62-.9-.96Z"/>
    <path class="cls-2" d="M296.5,119.69c1.08,.31,2.08,.85,2.94,1.59,.85,.73,1.54,1.64,2,2.67,2.21,4.32,2.21,8.97,1.81,13.63-.21,2.25-.66,4.48-1.33,6.64-2.97,9.86-10.88,14.84-21.09,13.26-3.76-.41-7.34-1.84-10.35-4.14,.32-.15,.67-.24,1.03-.26,.36-.01,.71,.04,1.05,.17,4.23,.95,8.57,1.33,12.91,1.13,6.23-.57,10.25-4.09,12.63-9.64,1.37-3.11,2.11-6.47,2.16-9.88,.05-3.4-.57-6.78-1.85-9.94-.62-1.62-1.19-3.25-1.91-5.23Z"/>
    <path class="cls-2" d="M383.7,119.36c3.43,1.27,4.31,3.77,4.53,6.55,.14,2.01,.12,4.02-.08,6.02-.45,5.57-.46,11.17,0,16.74,.2,1.69,.16,3.39-.1,5.07-.1,.82-.49,1.59-1.1,2.15-.61,.56-1.4,.89-2.23,.92-3.02,.26-6.06,.4-8.7-1.53-1.2-.88-2.44-.41-3.61-.08-3.31,1.04-6.84,1.2-10.23,.47-1.12-.15-2.19-.57-3.11-1.22-.92-.65-1.68-1.51-2.2-2.51,5.34,1.92,10.26,.92,15.23,.42,1.75-.18,3.62,.88,5.45,1.29,1.57,.46,3.23,.55,4.85,.27,.6-.07,1.15-.35,1.56-.79,.41-.44,.65-1.02,.68-1.62,.09-1.13,.23-2.25,.26-3.38,.16-5.9-.22-11.82,.39-17.7,.39-3.71-.57-7.19-1.59-11.07Z"/>
    <path class="cls-2" d="M311.78,154.54c1.38,.07,2.76,.06,4.14-.03,2.24-.26,3.09-1.25,3.08-3.5-.01-1.69-.18-3.38-.31-5.07-.66-6.26-.08-12.59,1.71-18.62,.35-1.14,.84-2.23,1.46-3.25,.14-.25,.32-.47,.55-.64,.22-.18,.48-.31,.75-.39,.27-.08,.56-.1,.84-.07,.28,.03,.56,.12,.8,.26,1.26,.6,1.45,1.48,.83,2.75-3.74,7.57-3.31,15.59-2.4,23.62,.62,5.49-.48,7.18-5.93,8.45-2.14,.55-4.38,.54-6.51-.02-.72-.21-1.4-.53-2.03-.95-.74-.49-1.6-1.26-1.37-2.09,.27-1,1.39-.31,2.14-.4,.75-.04,1.5-.05,2.26-.02v-.03Z"/>
    <path class="cls-2" d="M194.31,154.22c3.14,.03,5.88,.61,8.64,.15,3.62-.6,4.71-1.77,4.35-5.45-.64-6.88-.79-13.8-.46-20.7,.07-2.51,.38-5.01,.9-7.46,.3-1.3,.79-1.35,1.67-.38,.54,.58,.95,1.26,1.2,2.01,.25,.75,.34,1.54,.26,2.33-.81,8.6-.12,17.19,.12,25.78-.03,1,0,2.01,.08,3.01,.09,.38,.09,.78,.01,1.17-.08,.39-.24,.75-.47,1.07-.23,.32-.53,.59-.87,.78-.34,.2-.72,.32-1.11,.36-3.52,1.01-7.25,1.04-10.78,.07-.75-.17-1.46-.51-2.07-.98-.61-.47-1.11-1.07-1.46-1.76Z"/>
    <path class="cls-2" d="M340.96,120.58c1.23,.56,2.31,1.39,3.18,2.42,.87,1.03,1.5,2.24,1.85,3.55,.63,2.18,.93,4.44,.89,6.7,.04,5.53-.07,11.05,.32,16.57,.32,4.58-1.1,6.19-5.68,7.07-3.24,.62-6.4,.57-9.14-1.63-.48-.38-1.17-.87-.97-1.49,.26-.79,1.09-.33,1.65-.28,1.99,.28,4,.38,6.01,.27,3.31-.35,4.83-1.79,4.44-5.03-.51-5.63-.5-11.29,.02-16.92,.23-3.16-.47-6.31-2-9.08-.24-.3-.41-.65-.51-1.02-.1-.37-.12-.76-.07-1.13Z"/>
    <path class="cls-2" d="M144.99,131.17c-1.36,.32-1.92-.34-2.28-1.67-1.96-7.34-5.31-14.21-7.43-21.5-.65-2.22-1.15-4.48-1.7-6.74-.09-.35-.36-.77-.02-1.05,.4-.35,.84,0,1.21,.17,.87,.44,1.63,1.07,2.23,1.84,.6,.77,1.01,1.67,1.22,2.62,1.81,5.41,3.63,10.81,5.41,16.24,.93,2.86,1.75,5.75,2.68,8.62,.42,1.28,.07,1.78-1.31,1.48Z"/>
    <path class="cls-2" d="M139.33,154.43c.88-.23,1.81-.23,2.7,0,2.18,.27,4.4,.11,6.52-.47,.36-.05,.7-.17,1-.36s.56-.45,.76-.75c.2-.3,.32-.64,.37-1,.05-.36,.02-.72-.08-1.06-.35-1.98-1.05-3.88-2.06-5.62-.9-1.67-1.19-3.21,.12-4.85,.64-1.09,.95-2.34,.9-3.6,.16-1.5,.83-1.8,2.09-.97,.31,.21,.58,.48,.78,.8,.2,.32,.33,.68,.39,1.05,.11,.36,.12,.75,.03,1.12-1.53,3.7-.23,6.81,1.34,10.27,2.3,5.08-.45,8.62-6.04,8.73-1.95,.1-3.9-.14-5.76-.71-.67-.17-1.3-.48-1.83-.93-.53-.44-.96-1-1.24-1.64Z"/>
    <path class="cls-2" d="M194.84,110.76c1.42,.31,2.87,.47,4.33,.49,3.85-.13,6.04-2.24,6.27-6.06,.03-.52-.32-1.27,.36-1.5,.55-.19,1.04,.35,1.45,.72,.56,.46,.99,1.06,1.24,1.74s.3,1.42,.16,2.13c-.48,2.72-3.39,5.34-6.61,5.97-2.82,.55-5.31-.58-7.19-3.5Z"/>
    <path class="cls-2" d="M240.45,112.91c-.76,2.18-1.73,3.68-4.05,3.85-2.54,.39-5.12,.42-7.66,.09-.73-.14-1.45-.35-2.15-.62-.68-.28-1.62-.66-1.51-1.45,.12-.85,1.14-.49,1.76-.55,4.47-.47,8.94-.87,13.61-1.32Z"/>
    <path class="cls-2" d="M357.19,127.98c2.48-2.43,5.43-4.33,8.67-5.58,.54-.25,1.14-.36,1.74-.32,.6,.04,1.17,.24,1.67,.57,.78,.58,.96,1.23-.17,1.6-2.51,.98-4.92,2.19-7.19,3.64-.7,.45-1.51,.7-2.35,.72-.83,.02-1.66-.2-2.37-.63Z"/>
    <path class="cls-2" d="M124.32,124.46c-.09,.98-.35,1.93-.77,2.81-.7,2.08-1.36,4.18-2.06,6.26-.21,.63-.37,1.24-1.26,1.45-2.87,.68-3.08,.53-2.37-2.37,1.02-4.09,2.77-7.94,4.03-11.95,.34-1.08,.76-1.03,1.32-.22,.75,1.2,1.14,2.6,1.1,4.02Z"/>
    <path class="cls-2" d="M368.36,137.92c.3,.02,.74,.01,1.17,.07,.56,.07,1.19,.13,1.28,.85,.08,.31,.05,.64-.08,.93-.14,.29-.37,.52-.66,.65-2.56,.76-5.06,1.84-7.79,1.79-.83-.02-1.85-.32-2.05-1.08-.24-.91,.83-1.28,1.51-1.66,2.04-1.09,4.32-1.63,6.63-1.56Z"/>
    <path class="cls-2" d="M282.08,121.47c.34-.09,.69-.04,1,.13,.31,.17,.54,.44,.64,.78,.16,.31,.2,.68,.1,1.01-.09,.34-.31,.63-.61,.82-2.6,1.67-3,4.31-3.25,7.05-.61,4.37-.19,8.82,1.23,13,.38,.97,.37,2.02-.52,2.54-.91,.54-1.61-.4-2.21-.99-.87-.92-1.46-2.08-1.7-3.32-1.36-5.85-.98-11.97,1.07-17.61,.7-1.95,1.91-3.41,4.23-3.41Z"/>
  </g>
</svg>