<?xml version="1.0" encoding="UTF-8"?>
<svg id="Capa_1" data-name="Capa 1" xmlns="http://www.w3.org/2000/svg" viewBox="0 0 480 270">
  <defs>
    <style>
      .cls-1 {
        fill: none;
      }

      .cls-2 {
        fill: #fff;
      }
    </style>
  </defs>
  <rect class="cls-1" width="480" height="270"/>
  <g>
    <path class="cls-2" d="M265.21,165.67c-.32,.04-.44,.28-.6,.46-1.76,2.05-3.93,3.7-6.37,4.85-2.44,1.15-5.09,1.78-7.79,1.84-2.7,.06-5.38-.45-7.87-1.49-2.49-1.04-4.73-2.59-6.58-4.56-2.84-3.21-4.66-7.21-5.22-11.46-.96-7.03,.05-14.18,2.92-20.66,2.08-4.99,5.26-9.44,9.31-13.02,4.9-4.32,10.85-7.3,17.25-8.63,4.44-.94,8.98-1.3,13.51-1.07,5.75,.19,11.45,1.18,16.92,2.94,.3,.1,.61,.19,.91,.31,.71,.22,1.31,.7,1.67,1.35,.36,.65,.45,1.42,.26,2.14-.89,4.98-1.79,9.95-2.68,14.93-1.79,9.95-3.58,19.9-5.36,29.85-.78,4.91-1.98,9.74-3.58,14.44-1.52,4.68-4.06,8.95-7.45,12.52-3.44,3.33-7.69,5.71-12.32,6.92-3.09,.86-6.26,1.38-9.46,1.55-6.38,.45-12.79-.11-19-1.68-.86-.23-1.71-.51-2.55-.82-.64-.21-1.17-.66-1.5-1.25-.32-.59-.42-1.28-.26-1.93,.78-2.94,1.65-5.86,2.48-8.79,.18-.64,.35-1.28,.56-1.91,.08-.38,.25-.74,.48-1.06,.24-.31,.53-.58,.88-.76,.34-.19,.72-.3,1.12-.33s.78,.02,1.15,.16c4.06,1.21,8.28,1.86,12.52,1.92,3.74,.26,7.45-.82,10.47-3.04,1.99-1.64,3.5-3.79,4.38-6.21,.79-2.37,1.4-4.79,1.84-7.24,0-.09-.01-.18-.04-.26Zm2.1-37.93c-1.68,.02-3.34,.38-4.87,1.06-3.27,1.66-5.91,4.35-7.5,7.66-1.69,3.21-2.65,6.76-2.82,10.38-.23,2.31,.2,4.65,1.22,6.73,.51,1.03,1.33,1.89,2.33,2.46,1.01,.57,2.16,.82,3.31,.73,1.87-.13,3.63-.98,4.9-2.35,1.84-1.93,3.2-4.26,3.98-6.82,.83-2.74,1.45-5.53,1.85-8.36,.61-3.33,1.22-6.66,1.83-9.99,.17-.91,.14-.92-.78-1.12-1.15-.19-2.3-.32-3.46-.39h0Z"/>
    <path class="cls-2" d="M215.13,111.9c4.48-.03,8.94,.63,13.22,1.94,.46,.08,.9,.26,1.28,.54,.38,.28,.69,.64,.9,1.06,.21,.42,.32,.88,.32,1.35,0,.47-.11,.93-.32,1.35-.94,2.87-1.88,5.74-2.83,8.61-.08,.44-.26,.85-.52,1.21s-.61,.65-1,.86c-.4,.21-.83,.32-1.28,.33s-.89-.08-1.3-.26c-3.53-1.09-7.22-1.58-10.91-1.45-1.19,.01-2.37,.25-3.48,.71-.32,.13-.62,.3-.9,.49-.35,.21-.65,.49-.87,.84-.22,.34-.36,.73-.41,1.14-.05,.41,0,.82,.14,1.2,.14,.38,.37,.73,.66,1.01,1.17,1.17,2.55,2.11,4.06,2.78,2.5,1.25,5.05,2.39,7.43,3.87,2.4,1.4,4.54,3.19,6.34,5.3,1.2,1.5,2.09,3.22,2.61,5.06,.52,1.84,.67,3.78,.44,5.68-.24,3.23-1.28,6.36-3.02,9.09-2.46,3.66-5.96,6.49-10.05,8.12-4.15,1.73-8.57,2.72-13.06,2.92-6.39,.43-12.8-.37-18.88-2.36-1-.33-1.98-.74-2.91-1.22-.67-.3-1.19-.84-1.47-1.52-.28-.68-.28-1.43-.02-2.12,1.06-3.14,2.14-6.28,3.23-9.41,.12-.38,.32-.73,.58-1.03,.26-.3,.59-.54,.95-.7,.36-.17,.75-.25,1.15-.26,.4,0,.79,.07,1.16,.23,3.49,1.39,7.13,2.37,10.85,2.9,1.99,.32,4.02,.31,6.01-.03,.52-.11,1.02-.28,1.49-.52,.49-.2,.92-.53,1.25-.94,.33-.41,.55-.91,.64-1.43,.09-.52,.05-1.06-.13-1.56-.17-.5-.47-.95-.87-1.31-1.38-1.35-3-2.42-4.79-3.15-3.37-1.44-6.53-3.35-9.36-5.68-3.09-2.41-5.14-5.91-5.71-9.79-.54-4.41,.51-8.87,2.96-12.57,2.9-4.29,7.15-7.48,12.08-9.07,3.41-1.22,6.98-1.94,10.6-2.13,1.13-.07,2.25-.08,3.75-.12Z"/>
    <path class="cls-2" d="M177.08,129.39c-1.56,0-3.12,.02-4.67,0-.56-.01-.83,.17-.94,.73-1.2,6.08-2.61,12.12-3.68,18.23-.33,1.68-.49,3.4-.49,5.11-.04,.58,.05,1.15,.25,1.69,.2,.54,.52,1.03,.92,1.44,.41,.41,.9,.73,1.44,.93,.54,.21,1.12,.3,1.69,.26,.71,.02,1.42,0,2.13,.01,.4-.02,.81,.05,1.18,.21s.71,.38,.99,.68c.28,.29,.49,.64,.62,1.03,.13,.38,.18,.79,.14,1.19-.12,1.95-.59,3.84-.89,5.76-.28,1.81-.61,3.62-.89,5.42-.02,.75-.32,1.46-.83,2-.52,.54-1.22,.86-1.96,.91-5.01,1.03-10.17,1.12-15.22,.27-3.08-.5-5.92-1.96-8.12-4.17-2.1-2.22-3.28-5.16-3.29-8.22-.02-4.6,.5-9.19,1.53-13.67,1.25-6.33,2.5-12.66,3.76-18.99,.16-.79,.14-.81-.66-.81h-3.02c-.44,.03-.88-.04-1.28-.2-.41-.17-.77-.43-1.05-.76-.29-.33-.49-.73-.6-1.16-.1-.43-.11-.87,0-1.3,.62-3.49,1.32-6.97,2.03-10.44,.12-.65,.48-1.24,1-1.65,.52-.41,1.17-.62,1.83-.59,1.42-.01,2.84-.03,4.26,0,.6,.02,.83-.21,.94-.79,.5-2.84,1.06-5.67,1.55-8.51,.07-.66,.36-1.29,.81-1.78,.45-.49,1.05-.83,1.7-.96,5-1.35,10-2.66,14.96-4.13,.52-.18,1.08-.21,1.61-.1,.54,.11,1.03,.37,1.44,.75,.4,.37,.7,.85,.85,1.38,.15,.53,.16,1.09,.02,1.62-.83,3.84-1.47,7.73-2.19,11.6-.17,.9-.16,.92,.77,.92h7.69c.48-.05,.96,.02,1.41,.2,.44,.18,.84,.47,1.14,.84,.31,.37,.51,.81,.61,1.28,.09,.47,.07,.96-.08,1.42-.62,3.26-1.25,6.52-1.88,9.77-.08,.75-.45,1.44-1.03,1.92-.58,.48-1.33,.72-2.08,.66-1.47,.02-2.94,.01-4.4,.02Z"/>
    <path class="cls-2" d="M297.82,70.95c9.31-.08,18.31,3.29,25.28,9.46,7.04,6.06,11.53,14.56,12.57,23.79,1,7.76-.43,15.63-4.09,22.54-3.24,6.31-8.16,11.61-14.23,15.29-.24,.19-.51,.33-.81,.41-.29,.08-.6,.09-.9,.04-.3-.05-.59-.16-.84-.33-.25-.17-.47-.39-.63-.65-.15-.27-.24-.56-.27-.86-.03-.3,0-.61,.09-.9,.09-.29,.24-.56,.44-.79,.2-.23,.44-.42,.71-.56,4.29-2.62,7.96-6.16,10.73-10.36,3.3-4.93,5.25-10.65,5.64-16.58,.66-8.57-2-17.08-7.41-23.75-5.42-6.68-13.19-11.03-21.71-12.16-8.89-1.26-17.91,1.05-25.11,6.42-2.05,1.5-3.93,3.23-5.59,5.16-.18,.24-.41,.44-.66,.59-.26,.15-.54,.24-.84,.28-.3,.04-.6,.01-.88-.07-.29-.08-.55-.22-.79-.41-.23-.19-.42-.42-.56-.69-.13-.27-.21-.56-.21-.86,0-.3,.05-.6,.17-.87,.12-.28,.3-.52,.52-.72,5.1-5.9,11.85-10.12,19.39-12.13,3.25-.89,6.61-1.32,9.98-1.29Z"/>
    <path class="cls-2" d="M293.17,128.14c.02-.9,.23-1.79,.62-2.61,.39-.82,.94-1.54,1.63-2.12,5.5-4.65,11-9.3,16.5-13.96,1.57-1.33,3.14-2.66,4.71-3.99,.1-.09,.22-.17,.33-.25,.1-.11,.24-.18,.39-.2,.15-.02,.3,0,.43,.07,.14,.08,.25,.21,.31,.36,.06,.15,.06,.32,0,.47-.23,1.05-.46,2.1-.7,3.15-.62,2.72-1.19,5.45-1.86,8.16-.81,3.1-2.63,5.85-5.16,7.82-3.53,2.91-6.99,5.9-10.49,8.85-.27,.24-.56,.47-.86,.68-.37,.27-.82,.39-1.27,.35-.45-.04-.87-.25-1.18-.58-.89-.92-1.7-1.91-2.44-2.96-.6-.96-.93-2.07-.95-3.21Z"/>
    <path class="cls-2" d="M279.34,110.71c-.78,.01-1.56-.14-2.28-.44-.72-.3-1.37-.74-1.92-1.3-.72-.74-1.42-1.5-2.09-2.28-.21-.19-.38-.42-.49-.69-.11-.26-.16-.55-.14-.83,.02-.28,.1-.56,.24-.81,.14-.25,.33-.46,.57-.62,1.72-1.57,3.48-3.11,5.23-4.66,2.25-1.98,4.45-4.01,6.76-5.92,2.29-1.87,5.11-2.96,8.07-3.1,3.17-.21,6.34-.51,9.51-.77,.48-.04,.96-.06,1.44-.04,.12,0,.24,.02,.35,.08,.11,.06,.19,.15,.24,.26,.05,.11,.07,.23,.05,.35-.02,.12-.07,.23-.16,.32-.14,.18-.3,.35-.48,.49-3.41,3.02-6.82,6.03-10.24,9.04-2.98,2.64-5.95,5.29-8.94,7.92-.88,.9-1.87,1.69-2.95,2.33-.86,.44-1.81,.66-2.77,.66Z"/>
    <path class="cls-2" d="M317.53,96.87c.02,.84-.15,1.67-.51,2.43-.36,.76-.9,1.42-1.56,1.93-4.8,4.03-9.6,8.06-14.4,12.09-1.1,.95-2.52,1.42-3.96,1.33-1.44-.09-2.79-.75-3.76-1.83-.48-.55-.83-1.2-1.06-1.89-.22-.69-.3-1.43-.24-2.15,.07-.73,.28-1.43,.62-2.08,.34-.64,.81-1.21,1.38-1.67,4.9-4.12,9.79-8.26,14.72-12.34,.71-.58,1.55-.96,2.45-1.12,.9-.16,1.83-.09,2.69,.2s1.64,.8,2.26,1.48c.61,.68,1.05,1.5,1.26,2.39,.08,.4,.12,.82,.11,1.23Z"/>
    <path class="cls-2" d="M297.65,151.58c-1.22,.04-2.43-.18-3.56-.63-1.13-.46-2.15-1.14-3-2.02-.2-.15-.36-.34-.47-.57-.11-.23-.16-.47-.14-.72,.01-.25,.09-.49,.22-.7,.13-.21,.31-.39,.52-.52,6.73-5.68,13.45-11.37,20.18-17.05,.34-.29,.69-.89,1.19-.61,.58,.33,.13,.92,.03,1.37-.82,3.71-1.65,7.41-2.5,11.11-.61,2.63-2,5.01-3.98,6.83-1.98,1.83-4.47,3.02-7.13,3.41-.49,.07-1,.08-1.35,.11Z"/>
    <path class="cls-2" d="M255.65,103.85c.11-2.86,1.25-5.59,3.2-7.69,1.22-1.42,2.73-2.56,4.43-3.36,1.7-.79,3.54-1.22,5.41-1.25,3.56-.12,7.13-.42,10.69-.63,.28-.02,.56-.02,.82-.02,.25,0,.53-.01,.65,.28,.12,.29-.1,.47-.29,.64-1.1,.94-2.19,1.87-3.29,2.8-4.96,4.2-9.92,8.4-14.88,12.6-.87,.74-1.74,1.48-2.63,2.21-.15,.17-.34,.3-.56,.38-.21,.08-.44,.11-.67,.08-.23-.03-.44-.1-.63-.23s-.35-.29-.46-.49c-1.17-1.52-1.8-3.39-1.8-5.31Z"/>
    <path class="cls-2" d="M220.77,188.42c.03,1.08-.33,2.14-1,2.99-.68,.85-1.63,1.43-2.69,1.65-.43,.11-.89,.13-1.33,.04-.44-.08-.86-.26-1.23-.52-.37-.26-.67-.59-.9-.98-.22-.39-.36-.82-.4-1.27-.14-1.16,.16-2.33,.84-3.28,.67-.95,1.68-1.62,2.82-1.88,.48-.13,.98-.14,1.47-.04,.49,.11,.94,.33,1.32,.64,.38,.32,.68,.72,.87,1.18,.19,.46,.27,.96,.23,1.45Zm-1.97,.17c.02-1.03-.3-1.67-.86-1.87-.38-.11-.78-.09-1.15,.05-.37,.14-.67,.41-.87,.75-.48,.71-.73,1.54-.73,2.4-.04,.33,.04,.67,.21,.96,.17,.29,.43,.52,.74,.65,.33,.1,.69,.09,1.01-.03,.33-.12,.6-.34,.79-.63,.5-.66,.8-1.45,.86-2.27Z"/>
    <path class="cls-2" d="M184.67,193.11c-.48,.04-.96-.03-1.4-.21-.44-.18-.84-.47-1.15-.83-.31-.36-.53-.8-.64-1.27s-.11-.95,0-1.42c.08-1,.48-1.95,1.14-2.71,.66-.76,1.54-1.29,2.52-1.51,.62-.19,1.29-.12,1.87,.18,.58,.3,1.01,.81,1.22,1.43,.13,.53,.07,1.09-.19,1.56-.26,.48-.69,.84-1.2,1.02-.88,.34-1.81,.5-2.76,.47-.7,0-.88,.35-.53,.96,.15,.26,.37,.47,.64,.61s.56,.2,.86,.18c.5,0,1-.09,1.48-.24,.24-.07,.6-.3,.66,.14,.05,.4,.42,.93-.24,1.19-.72,.29-1.5,.45-2.28,.45Zm-.49-4.67c.51-.08,1.03-.18,1.53-.31,.46-.14,.86-.45,.7-1-.16-.55-.67-.62-1.18-.52-.31,.07-.61,.2-.86,.4-.25,.2-.45,.45-.59,.75-.23,.44-.2,.71,.4,.68h0Z"/>
    <path class="cls-2" d="M197.07,190.5c.28-.57,.54-1.14,.82-1.71,.49-1.01,.99-2.01,1.5-3.01,.28-.25,.62-.43,.98-.5,.37-.08,.75-.05,1.1,.07,.23,.23,0,.43-.1,.61-.93,1.68-1.86,3.36-2.8,5.04-.26,.46-.53,.91-.76,1.38-.08,.2-.23,.37-.42,.48-.19,.11-.4,.16-.62,.13-1.17-.01-1.18,0-1.38-1.16-.34-1.91-.65-3.83-.99-5.74-.11-.61,.08-.83,.7-.83,1.11,0,1.13-.02,1.28,1.06,.19,1.38,.35,2.76,.53,4.13l.16,.05Z"/>
    <path class="cls-2" d="M222.23,193.11c-.42-.02-.83-.1-1.23-.22-.62-.15-.74-.47-.52-1.06,.18-.49,.38-.66,.9-.43,.45,.24,.97,.32,1.47,.23,.37-.08,.7-.24,.77-.67,.05-.19,.03-.39-.05-.57-.08-.18-.21-.33-.38-.43-.34-.22-.71-.43-1.04-.67-.28-.18-.5-.42-.67-.71s-.25-.61-.27-.94c-.01-.33,.05-.66,.19-.96,.14-.3,.35-.56,.6-.76,.51-.41,1.12-.68,1.77-.79,.65-.1,1.31-.03,1.93,.2,.37,.11,.48,.36,.3,.68-.18,.32-.05,.93-.73,.75-.47-.19-.99-.22-1.48-.1-.16,.04-.3,.12-.41,.24-.11,.12-.19,.26-.22,.42-.02,.15,.01,.3,.08,.43,.07,.13,.18,.24,.31,.31,.32,.22,.67,.4,.99,.61,.36,.2,.66,.49,.86,.85,.2,.36,.3,.77,.29,1.18-.02,.41-.15,.81-.38,1.15-.23,.34-.55,.61-.92,.78-.67,.35-1.42,.51-2.17,.47Z"/>
    <path class="cls-2" d="M179.6,185.09c.29,.04,.59,.05,.88,.12,.88,.19,.93,.33,.63,1.17-.14,.38-.31,.5-.71,.37-.42-.19-.9-.23-1.34-.1-.32,.12-.59,.26-.65,.63-.03,.16,0,.32,.07,.47,.07,.15,.19,.26,.33,.34,.33,.21,.67,.4,.99,.62,.37,.19,.67,.5,.86,.86,.2,.37,.28,.78,.23,1.2-.04,.45-.21,.88-.48,1.23-.27,.36-.64,.63-1.06,.79-1.03,.42-2.17,.45-3.22,.09-.61-.19-.59-.56-.42-1.06s.39-.63,.9-.41c.25,.14,.53,.23,.81,.26,.29,.03,.57,0,.85-.08,.16-.04,.3-.12,.41-.24,.11-.12,.19-.27,.22-.42,.03-.16,.01-.32-.05-.47-.06-.15-.17-.28-.3-.37-.31-.23-.64-.44-.97-.63-.34-.19-.63-.47-.82-.81-.2-.34-.3-.73-.29-1.12,0-.39,.12-.77,.32-1.11,.21-.33,.5-.6,.85-.78,.6-.35,1.28-.53,1.97-.52Z"/>
    <path class="cls-2" d="M207.24,193.11c-.49,.06-.98,0-1.44-.17-.46-.17-.87-.46-1.19-.83-.32-.37-.55-.81-.67-1.29-.11-.48-.11-.98,.01-1.45,.14-1.22,.74-2.34,1.68-3.13,.94-.79,2.15-1.19,3.38-1.11,.21,0,.41,.04,.61,.08,.35,.08,.81,.11,.6,.67-.17,.43-.07,1.1-.94,.91-.49-.08-1-.03-1.46,.14-.47,.17-.88,.46-1.21,.84-.33,.38-.55,.83-.65,1.32-.1,.49-.08,.99,.07,1.47,.11,.32,.33,.59,.61,.77,.28,.18,.62,.26,.95,.24,.25,0,.5-.11,.75-.1,.3,.01,.72-.49,.88,.17,.18,.73,0,1.11-.62,1.29-.27,.07-.54,.12-.81,.16-.23,.03-.46,.03-.53,.04Z"/>
    <path class="cls-2" d="M191.01,186.54c.41-.61,1-1.08,1.69-1.34,.83-.21,.97-.07,.87,.76-.08,.66-.3,1.06-1.06,1.13-.7,.07-1.07,.63-1.39,1.21-.42,.99-.69,2.03-.81,3.1-.03,.14-.05,.27-.07,.4-.23,1.2-.31,1.25-1.52,1.16-.46-.03-.59-.22-.5-.66,.28-1.43,.55-2.87,.81-4.31,.11-.65,.17-1.31,.27-1.97,.11-.75,.35-.88,1.27-.77,.7,.08,.44,.54,.41,.93,0,.12,.01,.23,.03,.35Z"/>
    <path class="cls-2" d="M203.06,185.26c1.06,0,1.08,.03,.9,.92-.39,2.04-.79,4.08-1.18,6.13-.05,.27-.07,.59-.43,.62-.47,.11-.96,.08-1.41-.09-.18-.1-.11-.33-.07-.51,.4-2.13,.83-4.27,1.2-6.41,.13-.72,.59-.7,.98-.67Z"/>
    <path class="cls-2" d="M212.44,185.27c1.02,0,1.01,0,.83,.97-.38,1.98-.75,3.95-1.13,5.93-.06,.18-.15,.34-.28,.47-.13,.14-.28,.24-.45,.31-.17,.07-.36,.1-.54,.09-.18,0-.37-.06-.53-.15-.21-.14-.18-.36-.14-.56,.41-2.18,.82-4.36,1.23-6.54,.12-.68,.65-.5,1.02-.53Z"/>
    <path class="cls-2" d="M204.65,183.11c0,.3-.12,.58-.33,.8-.2,.22-.48,.35-.78,.38-.26,.01-.52-.08-.72-.26-.2-.18-.32-.42-.33-.69,0-.31,.11-.61,.32-.84,.21-.23,.5-.37,.81-.39,.26,0,.52,.11,.71,.29,.19,.18,.3,.43,.32,.7Z"/>
    <path class="cls-2" d="M212.86,184.29c-.27,0-.52-.09-.72-.27-.19-.18-.31-.43-.32-.69,0-.3,.1-.59,.3-.81,.2-.22,.48-.36,.78-.38,.13,0,.26,.01,.39,.06,.12,.05,.24,.12,.33,.21,.1,.09,.17,.2,.22,.32,.05,.12,.08,.25,.08,.39,0,.15-.01,.3-.06,.43-.05,.14-.13,.27-.22,.38-.1,.11-.22,.2-.35,.26-.13,.06-.28,.1-.43,.11Z"/>
  </g>
</svg>