<?xml version="1.0" encoding="UTF-8"?>
<svg id="Capa_1" data-name="Capa 1" xmlns="http://www.w3.org/2000/svg" xmlns:xlink="http://www.w3.org/1999/xlink" viewBox="0 0 480 270">
  <defs>
    <style>
      .cls-1 {
        fill: none;
      }

      .cls-2 {
        mask: url(#mask);
      }

      .cls-3 {
        fill: #fff;
      }
    </style>
    <mask id="mask" x="91.68" y="96.09" width="295.8" height="31.21" maskUnits="userSpaceOnUse"/>
  </defs>
  <rect class="cls-1" width="480" height="270"/>
  <g>
    <path class="cls-3" d="M131.63,103.45c-.58-1.37-1.45-2.59-2.52-3.58-.48-.43-.98-.82-1.53-1.14-3.05-1.85-6.57-2.75-10.12-2.62h-22.88c-.66,0-1.29,.22-1.8,.64-.32,.27-.59,.63-.79,1.01-.19,.39-.29,.8-.31,1.24v28.28h5.05c.63,.02,1.24-.16,1.75-.51,.39-.26,.71-.63,.93-1.04s.34-.88,.34-1.37v-5.09h.48l17.24-.08c3.41,.1,6.76-.72,9.75-2.36,.63-.34,1.21-.74,1.75-1.21,.37-.31,.74-.64,1.04-1.01,1.62-1.91,2.47-4.34,2.41-6.83,.05-1.48-.22-2.96-.8-4.32Zm-9.4,6.25c-.16,.16-.29,.31-.43,.45-1.06,.82-2.41,1.22-3.76,1.09h-18.27v-7.05h18.32c.85-.02,1.72,.1,2.54,.35,.66,.22,1.24,.64,1.66,1.22,.4,.56,.61,1.27,.58,1.96,0,.71-.21,1.4-.63,1.98Zm48.74,7.76c.34-.18,.71-.35,1.11-.56,.05-.05,.11-.08,.18-.11,.39-.26,.74-.48,1-.67l.34-.27,.18-.13,.22-.22c.19-.18,.37-.37,.55-.56,.34-.35,.66-.74,.96-1.14,.32-.48,.58-.93,.79-1.35,.66-1.4,1.01-2.96,1-4.52v-.31c.02-1.29-.21-2.55-.67-3.76-.77-2.14-2.27-3.95-4.23-5.13-.39-.27-.77-.51-1.19-.74-.24-.13-.59-.27-1.04-.45-2.52-1.01-5.22-1.49-7.92-1.43h-22.7c-.79,0-1.56,.31-2.12,.87-.14,.11-.27,.26-.39,.42-.13,.21-.22,.42-.31,.63-.13,.4-.19,.8-.18,1.22v28.04h5.14c.61,.02,1.21-.16,1.7-.51,.39-.27,.69-.64,.9-1.06,.21-.42,.32-.88,.32-1.35v-5.08h5.69c4.64-.03,7.42-.05,8.36-.05,.08-.02,.18-.03,.26-.03l.79,1c1.57,2.01,3.09,3.86,4.5,5.54,.31,.4,.66,.76,1.06,1.04l.24,.16,.24,.13c.42,.14,.87,.19,1.3,.18h9.67c-.11-.16-.26-.32-.42-.47-.77-.84-1.59-1.75-2.44-2.75-.45-.5-.9-1.01-1.37-1.54-.67-.87-1.94-2.25-3.81-4.16,.63-.18,1.24-.4,1.83-.66l.47-.21Zm-3.58-8.32c-.24,.56-.66,1.04-1.19,1.37-1,.55-2.12,.8-3.26,.74h-18.33v-7.05h19.04c.31,.03,.56,.03,.74,.03,.42,.06,.82,.19,1.22,.37,.03,.02,.08,.05,.13,.06,.16,.06,.32,.16,.47,.26,.66,.45,1.16,1.12,1.37,1.9,.22,.77,.16,1.59-.18,2.33Zm24.07-11.5c-.27-.48-.66-.88-1.14-1.14-.47-.27-1.01-.4-1.56-.39h-6.57v28.12c-.02,.79,.27,1.56,.82,2.12,.53,.58,1.29,.92,2.07,.95h6.75v-28.06c.02-.56-.11-1.12-.37-1.61Zm45.17,4.24c-.34-.45-.87-1.09-1.59-1.93l-.31-.24c-.45-.43-.93-.82-1.46-1.16-2.2-1.59-4.85-2.44-7.57-2.44h-16.05c-2.6,.02-5.14,.8-7.28,2.27-.59,.35-1.14,.77-1.66,1.22-.64,.69-1.11,1.19-1.4,1.53-1.91,2.35-2.94,5.29-2.92,8.32v4.5c-.02,2.55,.72,5.06,2.12,7.21,.43,.69,.93,1.33,1.51,1.93,.53,.53,1.11,1.06,1.7,1.54,2.28,1.72,5.08,2.67,7.95,2.67h15.99c2.14,0,4.24-.53,6.14-1.53,.82-.43,1.59-.95,2.3-1.54,.61-.47,1.16-1,1.67-1.57,2.09-2.44,3.21-5.58,3.2-8.79v-4.32c.02-2.73-.8-5.42-2.35-7.66Zm-5.72,11.76c.03,.77-.1,1.53-.35,2.23-.19,.45-.45,.85-.74,1.22-.48,.67-1.12,1.22-1.88,1.61-.74,.37-1.56,.55-2.39,.53h-15.68c-.72,.02-1.43-.13-2.1-.4-.66-.27-1.25-.69-1.75-1.21-.35-.32-.63-.72-.84-1.16-.48-.82-.72-1.78-.69-2.75v-4.07c-.03-1.17,.32-2.33,1.01-3.28,.5-.69,1.14-1.25,1.88-1.62,.76-.39,1.57-.58,2.43-.58h15.81c.95,0,1.86,.26,2.67,.74,1.08,.63,1.9,1.59,2.33,2.75,.24,.69,.34,1.43,.31,2.17v3.81Zm47.06,3.82c.34-.18,.71-.35,1.11-.56,.05-.05,.11-.08,.18-.11,.4-.26,.74-.48,1.01-.67l.32-.27,.19-.13,.22-.22c.18-.18,.37-.37,.53-.56,.34-.35,.66-.74,.96-1.14,.32-.48,.58-.93,.79-1.35,.67-1.4,1.01-2.96,1-4.52v-.31c.02-1.29-.21-2.55-.66-3.76-.79-2.14-2.28-3.95-4.24-5.13-.42-.29-.8-.53-1.19-.74-.24-.13-.59-.27-1.04-.45-2.52-1.01-5.21-1.49-7.92-1.43h-22.7c-.79,0-1.56,.31-2.12,.87-.14,.13-.27,.27-.37,.42-.13,.19-.24,.42-.31,.63-.14,.4-.21,.8-.19,1.22v28.04h5.14c.61,.02,1.21-.16,1.7-.51,.39-.27,.69-.64,.9-1.06,.21-.42,.32-.88,.32-1.35v-5.08h5.7c4.64-.03,7.42-.05,8.36-.05,.08-.02,.18-.03,.26-.05l.79,1.01c1.57,1.99,3.09,3.84,4.5,5.53,.29,.4,.64,.77,1.04,1.06,.08,.06,.18,.11,.24,.16,.08,.05,.16,.08,.24,.13,.42,.14,.87,.19,1.3,.18h9.67c-.11-.18-.26-.32-.42-.47-.77-.84-1.59-1.75-2.44-2.75-.45-.5-.9-1.01-1.37-1.54-.69-.87-1.96-2.25-3.81-4.16,.64-.19,1.25-.42,1.83-.66l.47-.21Zm-3.57-8.32c-.26,.56-.67,1.04-1.19,1.37-1,.55-2.14,.8-3.28,.74h-18.33v-7.05h19.04c.32,.03,.56,.03,.74,.03,.42,.08,.84,.19,1.22,.37,.05,.02,.08,.05,.13,.06,.18,.06,.32,.16,.47,.26,.67,.45,1.16,1.12,1.38,1.9,.21,.77,.14,1.59-.18,2.33Zm24.04-11.5c-.26-.48-.66-.88-1.12-1.14-.47-.27-1.01-.4-1.56-.39h-6.56v28.12c-.03,.79,.26,1.56,.8,2.12,.55,.58,1.29,.92,2.09,.95h6.73v-28.06c.02-.56-.11-1.12-.39-1.61Zm45.71,0c-.16-.29-.37-.53-.61-.74-.59-.53-1.35-.82-2.14-.79h-34.69l.02,.02c-.56-.03-1.12,.1-1.61,.37-.29,.16-.55,.37-.79,.59-.35,.4-.59,.9-.69,1.43-.11,.53-.14,1.06-.1,1.61v4.11h16.16v20.17c.02,.64,.24,1.25,.64,1.75,.08,.08,.13,.14,.18,.19,.02,.03,.03,.05,.05,.06,.55,.56,1.3,.87,2.07,.88h5.19v-23.06h16.71v-5.29c-.03-.47-.18-.92-.4-1.32Zm34.58-1.53c-.42-.02-.82,.05-1.22,.19-.43,.16-.82,.42-1.12,.77l-8.87,12.52c-.11-.16-.61-.85-1.51-2.06l-3.05-4.1-3.02-4.07-1.35-1.74c-.29-.42-.64-.77-1.06-1.06-.55-.34-1.19-.5-1.83-.47h-8.97c1.61,2.04,2.41,3.09,2.41,3.13l14,17.59v7.58c.02,.58,.21,1.14,.55,1.61,.27,.39,.63,.71,1.06,.93,.42,.22,.9,.34,1.37,.34h5.42v-10.41l2.41-3.13,5.5-7.13c2.06-2.68,3.89-5.06,5.48-7.12,1.59-2.06,2.46-3.18,2.59-3.39h-8.76Z"/>
    <g class="cls-2">
      <g>
        <path class="cls-3" d="M131.63,103.45c-.58-1.37-1.45-2.59-2.52-3.58-.48-.43-.98-.82-1.53-1.14-3.05-1.85-6.57-2.75-10.12-2.62h-22.88c-.66,0-1.29,.22-1.8,.64-.32,.27-.59,.63-.79,1.01-.19,.39-.29,.8-.31,1.24v28.28h5.05c.63,.02,1.24-.16,1.75-.51,.39-.26,.71-.63,.93-1.04s.34-.88,.34-1.37v-5.09h.48l17.24-.08c3.41,.1,6.76-.72,9.75-2.36,.63-.34,1.21-.74,1.75-1.21,.37-.31,.74-.64,1.04-1.01,1.62-1.91,2.47-4.34,2.41-6.83,.05-1.48-.22-2.96-.8-4.32Zm-9.4,6.25c-.16,.16-.29,.31-.43,.45-1.06,.82-2.41,1.22-3.76,1.09h-18.27v-7.05h18.32c.85-.02,1.72,.1,2.54,.35,.66,.22,1.24,.64,1.66,1.22,.4,.56,.61,1.27,.58,1.96,0,.71-.21,1.4-.63,1.98Z"/>
        <path class="cls-3" d="M170.96,117.46c.34-.18,.71-.35,1.11-.56,.05-.05,.11-.08,.18-.11,.39-.26,.74-.48,1-.67l.34-.27,.18-.13,.22-.22c.19-.18,.37-.37,.55-.56,.34-.35,.66-.74,.96-1.14,.32-.48,.58-.93,.79-1.35,.66-1.4,1.01-2.96,1-4.52v-.31c.02-1.29-.21-2.55-.67-3.76-.77-2.14-2.27-3.95-4.23-5.13-.39-.27-.77-.51-1.19-.74-.24-.13-.59-.27-1.04-.45-2.52-1.01-5.22-1.49-7.92-1.43h-22.7c-.79,0-1.56,.31-2.12,.87-.14,.11-.27,.26-.39,.42-.13,.21-.22,.42-.31,.63-.13,.4-.19,.8-.18,1.22v28.04h5.14c.61,.02,1.21-.16,1.7-.51,.39-.27,.69-.64,.9-1.06,.21-.42,.32-.88,.32-1.35v-5.08h5.69c4.64-.03,7.42-.05,8.36-.05,.08-.02,.18-.03,.26-.03l.79,1c1.57,2.01,3.09,3.86,4.5,5.54,.31,.4,.66,.76,1.06,1.04l.24,.16,.24,.13c.42,.14,.87,.19,1.3,.18h9.67c-.11-.16-.26-.32-.42-.47-.77-.84-1.59-1.75-2.44-2.75-.45-.5-.9-1.01-1.37-1.54-.67-.87-1.94-2.25-3.81-4.16,.63-.18,1.24-.4,1.83-.66l.47-.21Zm-3.58-8.32c-.24,.56-.66,1.04-1.19,1.37-1,.55-2.12,.8-3.26,.74h-18.33v-7.05h19.04c.31,.03,.56,.03,.74,.03,.42,.06,.82,.19,1.22,.37,.03,.02,.08,.05,.13,.06,.16,.06,.32,.16,.47,.26,.66,.45,1.16,1.12,1.37,1.9,.22,.77,.16,1.59-.18,2.33Z"/>
        <path class="cls-3" d="M191.45,97.63c.26,.48,.39,1.04,.37,1.61v28.06h-6.75c-.79-.03-1.54-.37-2.07-.95-.55-.56-.84-1.33-.82-2.12v-28.12h6.57c.55-.02,1.09,.11,1.56,.39,.48,.26,.87,.66,1.14,1.14Z"/>
        <path class="cls-3" d="M236.62,101.87c-.34-.45-.87-1.09-1.59-1.93l-.31-.24c-.45-.43-.93-.82-1.46-1.16-2.2-1.59-4.85-2.44-7.57-2.44h-16.05c-2.6,.02-5.14,.8-7.28,2.27-.59,.35-1.14,.77-1.66,1.22-.64,.69-1.11,1.19-1.4,1.53-1.91,2.35-2.94,5.29-2.92,8.32v4.5c-.02,2.55,.72,5.06,2.12,7.21,.43,.69,.93,1.33,1.51,1.93,.53,.53,1.11,1.06,1.7,1.54,2.28,1.72,5.08,2.67,7.95,2.67h15.99c2.14,0,4.24-.53,6.14-1.53,.82-.43,1.59-.95,2.3-1.54,.61-.47,1.16-1,1.67-1.57,2.09-2.44,3.21-5.58,3.2-8.79v-4.32c.02-2.73-.8-5.42-2.35-7.66Zm-5.72,11.76c.03,.77-.1,1.53-.35,2.23-.19,.45-.45,.85-.74,1.22-.48,.67-1.12,1.22-1.88,1.61-.74,.37-1.56,.55-2.39,.53h-15.68c-.72,.02-1.43-.13-2.1-.4-.66-.27-1.25-.69-1.75-1.21-.35-.32-.63-.72-.84-1.16-.48-.82-.72-1.78-.69-2.75v-4.07c-.03-1.17,.32-2.33,1.01-3.28,.5-.69,1.14-1.25,1.88-1.62,.76-.39,1.57-.58,2.43-.58h15.81c.95,0,1.86,.26,2.67,.74,1.08,.63,1.9,1.59,2.33,2.75,.24,.69,.34,1.43,.31,2.17v3.81Z"/>
        <path class="cls-3" d="M277.96,117.46c.34-.18,.71-.35,1.11-.56,.05-.05,.11-.08,.18-.11,.4-.26,.74-.48,1.01-.67l.32-.27,.19-.13,.22-.22c.18-.18,.37-.37,.53-.56,.34-.35,.66-.74,.96-1.14,.32-.48,.58-.93,.79-1.35,.67-1.4,1.01-2.96,1-4.52v-.31c.02-1.29-.21-2.55-.66-3.76-.79-2.14-2.28-3.95-4.24-5.13-.42-.29-.8-.53-1.19-.74-.24-.13-.59-.27-1.04-.45-2.52-1.01-5.21-1.49-7.92-1.43h-22.7c-.79,0-1.56,.31-2.12,.87-.14,.13-.27,.27-.37,.42-.13,.19-.24,.42-.31,.63-.14,.4-.21,.8-.19,1.22v28.04h5.14c.61,.02,1.21-.16,1.7-.51,.39-.27,.69-.64,.9-1.06,.21-.42,.32-.88,.32-1.35v-5.08h5.7c4.64-.03,7.42-.05,8.36-.05,.08-.02,.18-.03,.26-.05l.79,1.01c1.57,1.99,3.09,3.84,4.5,5.53,.29,.4,.64,.77,1.04,1.06,.08,.06,.18,.11,.24,.16,.08,.05,.16,.08,.24,.13,.42,.14,.87,.19,1.3,.18h9.67c-.11-.18-.26-.32-.42-.47-.77-.84-1.59-1.75-2.44-2.75-.45-.5-.9-1.01-1.37-1.54-.69-.87-1.96-2.25-3.81-4.16,.64-.19,1.25-.42,1.83-.66l.47-.21Zm-3.57-8.32c-.26,.56-.67,1.04-1.19,1.37-1,.55-2.14,.8-3.28,.74h-18.33v-7.05h19.04c.32,.03,.56,.03,.74,.03,.42,.08,.84,.19,1.22,.37,.05,.02,.08,.05,.13,.06,.18,.06,.32,.16,.47,.26,.67,.45,1.16,1.12,1.38,1.9,.21,.77,.14,1.59-.18,2.33Z"/>
        <path class="cls-3" d="M290,126.35c-.55-.56-.84-1.33-.8-2.12v-28.12h6.56c.55-.02,1.09,.11,1.56,.39,.47,.26,.87,.66,1.12,1.14,.27,.48,.4,1.04,.39,1.61v28.06h-6.73c-.8-.03-1.54-.37-2.09-.95Z"/>
        <path class="cls-3" d="M297.48,147.11c-.5,2.04-.95,3.94-1.35,5.69-.42,1.75-.8,3.36-1.14,4.82-.35,1.46-.67,2.8-.96,3.98l-.79,3.28c-.24,1-.45,1.86-.63,2.64-.19,.79-.35,1.45-.48,2.04-.14,.61-.26,1.11-.35,1.54l-.27,1.09c-.06,.31-.13,.55-.18,.74-.05,.19-.1,.34-.11,.45s-.03,.19-.05,.24c0,.03-.02,.06-.03,.08l-2.01,.02h-7.79c.96-3.78,1.77-6.97,2.43-9.59,.66-2.64,1.21-4.79,1.62-6.48,.4-1.69,.72-3,.93-3.95,.22-.95,.42-1.77,.58-2.47-4.85,7.17-9.4,13.67-13.64,19.49-1.43,0-2.83-.48-3.94-1.37-1.12-.9-1.91-2.14-2.23-3.54-.22-1.08-.42-2.09-.61-3.04-.18-.95-.35-1.83-.51-2.64-.16-.8-.32-1.56-.45-2.23-.13-.69-.26-1.3-.37-1.88-.1-.58-.21-1.08-.31-1.54-.08-.45-.16-.87-.24-1.22-.06-.34-.13-.67-.18-.96-.05-.27-.1-.5-.14-.71-.03-.21-.08-.39-.1-.53-.03-.16-.06-.27-.08-.37s-.03-.16-.05-.21v-.11c-.96,3.92-1.78,7.26-2.44,9.98-.66,2.73-1.19,4.98-1.61,6.75-.42,1.75-.72,3.12-.95,4.08-.21,.96-.4,1.82-.56,2.55h-9.91c.61-2.59,1.17-5,1.72-7.23,.55-2.25,1.03-4.31,1.46-6.22,.45-1.9,.85-3.63,1.24-5.24,.37-1.59,.72-3.05,1.04-4.39,.32-1.32,.61-2.51,.87-3.57,.24-1.08,.47-2.02,.67-2.88,.19-.84,.37-1.57,.51-2.22,.16-.64,.29-1.21,.4-1.69,.11-.47,.21-.87,.31-1.21s.14-.61,.18-.8c.05-.19,.08-.39,.11-.48,.03-.11,.05-.19,.06-.24,0-.05,.02-.06,.03-.1h-.02c.34-1.33,1.12-2.52,2.23-3.36,1.09-.84,2.46-1.27,3.84-1.25h5.83c.26,1.29,.51,2.49,.76,3.63,.22,1.14,.45,2.2,.66,3.2s.4,1.94,.59,2.83c.18,.88,.34,1.7,.5,2.47,.14,.76,.31,1.46,.43,2.1,.13,.66,.26,1.27,.37,1.83,.11,.58,.21,1.08,.31,1.53,.08,.47,.16,.88,.24,1.25,.06,.37,.13,.71,.19,1.01,.06,.31,.11,.58,.16,.8,.03,.24,.08,.45,.13,.61,.03,.18,.06,.34,.08,.47,.03,.11,.05,.22,.05,.32,.02,.1,.03,.16,.03,.21,.02,.03,.02,.06,.03,.11v.02c1.35-1.9,2.59-3.65,3.71-5.24,1.12-1.61,2.17-3.05,3.1-4.37s1.77-2.49,2.52-3.55c.74-1.06,1.41-2.01,2.01-2.84l1.57-2.19c.45-.64,.84-1.17,1.17-1.62,.32-.45,.61-.84,.85-1.14,.22-.32,.42-.56,.56-.76,.16-.18,.26-.31,.32-.42,.08-.1,.14-.19,.24-.27h11.2c-.66,2.73-1.27,5.27-1.83,7.62-.56,2.36-1.08,4.56-1.56,6.62Z"/>
        <path class="cls-3" d="M334.19,142.53h-14.37c-9.08-.48-15.78,2.83-20.09,9.93-2.54,5.75-2.96,10.57-1.3,14.46,1.67,3.9,5.08,6.12,10.25,6.67l7.42,.13h10.06l5.06-19.7,2.54-9.87h-.03l.45-1.62Zm-13,11.49l-2.84,10.8h-5.61c-4.52,.06-6.22-2.36-5.14-7.26,.59-1.86,1.74-3.54,3.26-4.76,1.8-1.4,4.02-2.14,6.3-2.06h4.84l-.84,3.28h.03Z"/>
        <path class="cls-3" d="M303.54,100.12c-.05-.55-.02-1.08,.1-1.61,.1-.53,.34-1.03,.69-1.43,.24-.22,.5-.43,.79-.59,.48-.27,1.04-.4,1.61-.37l-.02-.02h34.69c.79-.03,1.54,.26,2.14,.79,.24,.21,.45,.45,.61,.74,.22,.4,.37,.85,.4,1.32v5.29h-16.71v23.06h-5.19c-.77-.02-1.53-.32-2.07-.88-.02-.02-.03-.03-.05-.06-.05-.05-.1-.11-.18-.19-.4-.5-.63-1.11-.64-1.75v-20.17h-16.16v-4.11Z"/>
        <polygon class="cls-3" points="354.69 157.98 362.48 173.71 352.21 173.71 348.21 165.66 341.45 173.71 330.46 173.71 344.18 157.52 336.72 142.46 347.01 142.46 350.67 149.87 356.95 142.46 367.82 142.46 354.69 157.98"/>
        <path class="cls-3" d="M349.13,99.24s-.8-1.09-2.41-3.13h8.97c.64-.03,1.29,.13,1.83,.47,.42,.29,.77,.64,1.06,1.06l1.35,1.74,3.02,4.07,3.05,4.1c.9,1.21,1.4,1.9,1.51,2.06l8.87-12.52c.31-.35,.69-.61,1.12-.77,.4-.14,.8-.21,1.22-.19h8.76c-.13,.21-1,1.33-2.59,3.39-1.59,2.06-3.42,4.43-5.48,7.12l-5.5,7.13-2.41,3.13v10.41h-5.42c-.47,0-.95-.11-1.37-.34-.43-.22-.79-.55-1.06-.93-.34-.47-.53-1.03-.55-1.61v-7.58l-14-17.59Z"/>
        <polygon class="cls-3" points="388.32 158.31 377.81 165.49 365.5 173.91 365.49 173.91 357.6 158.31 370.81 142.72 380.66 151.49 388.32 158.31"/>
      </g>
    </g>
    <path class="cls-3" d="M300.88,132.87c-.66,2.73-1.27,5.27-1.83,7.62-.56,2.36-1.08,4.56-1.56,6.62-.5,2.04-.95,3.94-1.35,5.69-.42,1.75-.8,3.36-1.14,4.82-.35,1.46-.67,2.8-.96,3.98l-.79,3.28c-.24,1-.45,1.86-.63,2.64-.19,.79-.35,1.45-.48,2.04-.14,.61-.26,1.11-.35,1.54l-.27,1.09c-.06,.31-.13,.55-.18,.74-.05,.19-.1,.34-.11,.45s-.03,.19-.05,.24c0,.03-.02,.06-.03,.08l-2.01,.02h-7.79c.96-3.78,1.77-6.97,2.43-9.59,.66-2.64,1.21-4.79,1.62-6.48,.4-1.69,.72-3,.93-3.95,.22-.95,.42-1.77,.58-2.47-4.85,7.17-9.4,13.67-13.64,19.49-1.43,0-2.83-.48-3.94-1.37-1.12-.9-1.91-2.14-2.23-3.54-.22-1.08-.42-2.09-.61-3.04-.18-.95-.35-1.83-.51-2.64-.16-.8-.32-1.56-.45-2.23-.13-.69-.26-1.3-.37-1.88-.1-.58-.21-1.08-.31-1.54-.08-.45-.16-.87-.24-1.22-.06-.34-.13-.67-.18-.96-.05-.27-.1-.5-.14-.71-.03-.21-.08-.39-.1-.53-.03-.16-.06-.27-.08-.37s-.03-.16-.05-.21v-.11c-.96,3.92-1.78,7.26-2.44,9.98-.66,2.73-1.19,4.98-1.61,6.75-.42,1.75-.72,3.12-.95,4.08-.21,.96-.4,1.82-.56,2.55h-9.91c.61-2.59,1.17-5,1.72-7.23,.55-2.25,1.03-4.31,1.46-6.22,.45-1.9,.85-3.63,1.24-5.24,.37-1.59,.72-3.05,1.04-4.39,.32-1.32,.61-2.51,.87-3.57,.24-1.08,.47-2.02,.67-2.88,.19-.84,.37-1.57,.51-2.22,.16-.64,.29-1.21,.4-1.69,.11-.47,.21-.87,.31-1.21s.14-.61,.18-.8c.05-.19,.08-.39,.11-.48,.03-.11,.05-.19,.06-.24,0-.05,.02-.06,.03-.1h-.02c.34-1.33,1.12-2.52,2.23-3.36,1.09-.84,2.46-1.27,3.84-1.25h5.83c.26,1.29,.51,2.49,.76,3.63,.22,1.14,.45,2.2,.66,3.2s.4,1.94,.59,2.83c.18,.88,.34,1.7,.5,2.47,.14,.76,.31,1.46,.43,2.1,.13,.66,.26,1.27,.37,1.83,.11,.58,.21,1.08,.31,1.53,.08,.47,.16,.88,.24,1.25,.06,.37,.13,.71,.19,1.01,.06,.31,.11,.58,.16,.8,.03,.24,.08,.45,.13,.61,.03,.18,.06,.34,.08,.47,.03,.11,.05,.22,.05,.32,.02,.1,.03,.16,.03,.21,.02,.03,.02,.06,.03,.11v.02c1.35-1.9,2.59-3.65,3.71-5.24,1.12-1.61,2.17-3.05,3.1-4.37s1.77-2.49,2.52-3.55c.74-1.06,1.41-2.01,2.01-2.84l1.57-2.19c.45-.64,.84-1.17,1.17-1.62,.32-.45,.61-.84,.85-1.14,.22-.32,.42-.56,.56-.76,.16-.18,.26-.31,.32-.42,.08-.1,.14-.19,.24-.27h11.2Z"/>
    <path class="cls-3" d="M334.19,142.53h-14.37c-9.08-.48-15.78,2.83-20.09,9.93-2.54,5.75-2.96,10.57-1.3,14.46,1.67,3.9,5.08,6.12,10.25,6.67l7.42,.13h10.06l5.06-19.7,2.54-9.87h-.03l.45-1.62Zm-13,11.49l-2.84,10.8h-5.61c-4.52,.06-6.22-2.36-5.14-7.26,.59-1.86,1.74-3.54,3.26-4.76,1.8-1.4,4.02-2.14,6.3-2.06h4.84l-.84,3.28h.03Z"/>
    <polygon class="cls-3" points="354.69 157.98 362.48 173.71 352.21 173.71 348.21 165.66 341.45 173.71 330.46 173.71 344.18 157.52 336.72 142.46 347.01 142.46 350.67 149.87 356.95 142.46 367.82 142.46 354.69 157.98"/>
    <polygon class="cls-3" points="388.32 158.31 377.81 165.49 365.5 173.91 365.5 173.89 357.6 158.31 370.81 142.72 380.66 151.49 388.32 158.31"/>
    <polygon class="cls-3" points="377.81 165.49 365.5 173.89 365.5 173.91 365.49 173.91 357.6 158.31 372.96 159.43 377.81 165.49"/>
    <polygon class="cls-3" points="388.32 158.31 377.81 165.49 372.96 159.43 380.66 151.49 388.32 158.31"/>
  </g>
</svg>