<?xml version="1.0" encoding="UTF-8"?>
<svg id="Capa_1" data-name="Capa 1" xmlns="http://www.w3.org/2000/svg" viewBox="0 0 480 270">
  <defs>
    <style>
      .cls-1 {
        fill: none;
      }

      .cls-2 {
        fill: #fff;
      }
    </style>
  </defs>
  <rect class="cls-1" width="480" height="270"/>
  <g>
    <path class="cls-2" d="M135.98,150.27h-8.99c1.11-4.33,2.05-8.01,2.82-11.04,.77-3.03,1.39-5.52,1.86-7.46,.48-1.94,.84-3.45,1.08-4.54,.25-1.09,.46-2.04,.66-2.86-5.58,8.26-10.81,15.74-15.7,22.46-1.64,.01-3.23-.54-4.5-1.56-1.31-1.02-2.23-2.47-2.59-4.09-.26-1.24-.5-2.4-.71-3.49-.21-1.09-.41-2.1-.6-3.03-.19-.94-.36-1.8-.51-2.57s-.3-1.5-.43-2.16c-.13-.66-.25-1.25-.35-1.77s-.2-1-.29-1.42-.15-.79-.21-1.11-.11-.59-.16-.82c-.05-.24-.09-.44-.13-.61-.04-.17-.06-.32-.09-.43s-.04-.19-.05-.25c0-.04-.01-.08-.02-.12-1.11,4.52-2.05,8.35-2.82,11.49-.77,3.15-1.39,5.73-1.86,7.75-.48,2.02-.84,3.59-1.08,4.7s-.46,2.09-.66,2.93h-11.36c.71-2.97,1.37-5.74,1.99-8.32,.62-2.57,1.18-4.96,1.69-7.15,.51-2.19,.98-4.2,1.42-6.03,.44-1.84,.84-3.52,1.2-5.04,.36-1.52,.69-2.89,.99-4.12,.3-1.23,.55-2.33,.78-3.3,.23-.97,.43-1.83,.6-2.56s.33-1.38,.46-1.93c.13-.55,.24-1.01,.34-1.39,.1-.37,.16-.68,.21-.93s.09-.43,.12-.56c.03-.13,.06-.22,.07-.29,0-.04,.02-.07,.03-.11,.01-.01,0-.02-.02-.02,1.3-3.53,3.63-5.3,6.98-5.3h6.74c.31,1.47,.6,2.87,.87,4.17,.27,1.31,.53,2.54,.76,3.68,.23,1.14,.46,2.23,.67,3.25,.21,1.02,.41,1.97,.59,2.84,.18,.88,.34,1.69,.5,2.44,.16,.75,.3,1.44,.43,2.09,.13,.64,.25,1.23,.35,1.75,.11,.52,.2,1,.29,1.44,.08,.44,.16,.82,.23,1.17,.07,.35,.13,.66,.18,.93,.05,.27,.1,.51,.14,.71,.05,.21,.08,.38,.11,.53s.04,.26,.05,.37c.01,.11,.02,.19,.03,.25,0,.04,.02,.08,.03,.12,.01,.02,.02,.05,.02,.07h-.03c1.56-2.2,2.99-4.22,4.29-6.07,1.3-1.85,2.49-3.53,3.56-5.04,1.08-1.51,2.05-2.87,2.91-4.09,.86-1.22,1.64-2.3,2.32-3.26,.68-.96,1.29-1.8,1.81-2.53,.52-.72,.97-1.34,1.34-1.86,.38-.51,.71-.95,.97-1.31,.27-.36,.49-.65,.65-.86,.16-.21,.29-.37,.37-.49,.08-.11,.17-.22,.27-.32h12.9c-.76,3.14-1.45,6.07-2.09,8.79-.64,2.72-1.24,5.26-1.81,7.61-.57,2.35-1.09,4.53-1.56,6.54-.47,2.01-.9,3.86-1.31,5.54-.4,1.69-.77,3.22-1.1,4.6-.33,1.38-.63,2.64-.91,3.77-.27,1.13-.51,2.15-.72,3.03-.21,.89-.39,1.67-.55,2.35-.15,.68-.29,1.27-.41,1.77-.12,.5-.22,.92-.3,1.26-.08,.34-.15,.62-.21,.84-.06,.22-.1,.4-.12,.53-.02,.13-.04,.22-.05,.26,0,.04-.03,.08-.05,.11l-2.33,.02Z"/>
    <path class="cls-2" d="M151.02,114.31h11.73l-5.85,23.76c-.04,.28-.02,.57,.05,.85,.07,.28,.2,.54,.38,.76,.18,.23,.41,.42,.68,.54,.27,.12,.56,.18,.85,.16h8.47l6.2-26.07h11.73l-8.54,35.93h-10.64l-.03,.03h-11.45c-1.47,.05-2.94-.25-4.27-.89-1.33-.64-2.49-1.59-3.37-2.77-.93-1.2-1.57-2.59-1.88-4.07-.31-1.48-.28-3.01,.09-4.48l5.85-23.75Z"/>
    <path class="cls-2" d="M193.46,103.26h11.84l-8.83,34.77c-.04,.28-.02,.58,.05,.85,.08,.28,.21,.54,.39,.76,.18,.23,.42,.42,.69,.54,.27,.12,.56,.18,.86,.16h6.45l-2.52,9.93h-8.08c-1.5,.05-2.98-.25-4.34-.9-1.35-.64-2.53-1.6-3.44-2.79-.95-1.19-1.61-2.58-1.94-4.06-.33-1.48-.32-3.02,.04-4.5l8.83-34.77Z"/>
    <path class="cls-2" d="M217.42,103.26h11.66s0,.05-.02,.07c-.02,.04-.04,.08-.05,.12-.03,.07-.05,.15-.07,.23-.02,.1-.05,.21-.09,.35-.03,.14-.08,.31-.14,.51-.06,.2-.12,.43-.18,.68s-.13,.54-.21,.86c-.08,.31-.18,.68-.29,1.09-.11,.41-.22,.86-.35,1.35-.13,.49-.27,1.03-.41,1.61s-.3,1.22-.48,1.91c-.18,.69-.37,1.43-.59,2.23h8.37l-2.31,10.42h-8.47s0,.05-.02,.07c-.02,.05-.03,.09-.03,.14-.01,.07-.03,.16-.05,.26s-.05,.24-.09,.4c-.03,.16-.08,.36-.13,.58-.05,.22-.11,.49-.19,.79s-.17,.65-.27,1.03c-.1,.38-.2,.82-.32,1.31-.12,.49-.25,1.03-.39,1.63s-.3,1.26-.48,1.98c-.18,.73-.37,1.51-.59,2.35-.21,.84-.45,1.77-.71,2.77-.04,.28-.02,.57,.05,.85,.07,.28,.2,.54,.38,.76,.18,.23,.41,.42,.68,.54,.27,.12,.56,.18,.85,.16h6.06l-2.34,9.93h-7.97c-1.47,.05-2.93-.26-4.25-.9-1.32-.64-2.46-1.6-3.33-2.78-.91-1.2-1.55-2.6-1.85-4.08-.3-1.48-.27-3.01,.1-4.48l8.52-34.77Z"/>
    <path class="cls-2" d="M239.54,114.13h11.81l-8.51,35.4c-.05,.25-.12,.5-.21,.74h-11.98c.16-.23,.29-.47,.39-.74l8.51-35.4Zm2.48-10.88h11.8l-1.77,7.75h-11.81l1.77-7.75Z"/>
    <path class="cls-2" d="M293.05,150.27h-8.99c1.11-4.33,2.05-8.01,2.82-11.04,.77-3.03,1.39-5.52,1.86-7.46,.48-1.94,.84-3.45,1.08-4.54l.65-2.86c-5.58,8.26-10.81,15.74-15.7,22.46-1.64,.01-3.23-.54-4.5-1.56-1.31-1.02-2.23-2.47-2.59-4.09-.26-1.24-.5-2.4-.71-3.49-.21-1.09-.41-2.1-.6-3.03-.19-.94-.36-1.8-.51-2.57-.15-.78-.3-1.5-.43-2.16-.13-.66-.25-1.25-.35-1.77-.11-.52-.2-1-.29-1.42l-.21-1.11c-.06-.32-.11-.59-.16-.82-.05-.24-.09-.44-.13-.61-.04-.17-.06-.32-.09-.43s-.04-.19-.05-.25c0-.04-.01-.08-.02-.12-1.11,4.52-2.05,8.35-2.82,11.49-.77,3.15-1.39,5.73-1.86,7.75-.48,2.02-.84,3.59-1.08,4.7s-.46,2.09-.66,2.93h-11.38c.71-2.97,1.37-5.74,1.99-8.32s1.18-4.96,1.68-7.15c.51-2.19,.98-4.2,1.42-6.03,.44-1.84,.84-3.52,1.2-5.04,.36-1.52,.69-2.89,.99-4.12,.3-1.23,.55-2.33,.78-3.3,.23-.97,.43-1.83,.6-2.56s.33-1.38,.46-1.93c.13-.55,.24-1.01,.34-1.39s.17-.68,.21-.93c.05-.24,.09-.43,.12-.56,.03-.13,.06-.22,.07-.29,0-.04,.02-.07,.03-.11,.01-.01,0-.02-.02-.02,1.3-3.53,3.63-5.3,6.98-5.3h6.73c.31,1.47,.6,2.87,.87,4.17,.27,1.31,.53,2.54,.76,3.68,.23,1.14,.46,2.23,.67,3.25,.21,1.02,.41,1.97,.59,2.84,.18,.88,.34,1.69,.5,2.44s.3,1.44,.43,2.09c.13,.64,.25,1.23,.35,1.75,.11,.52,.2,1,.29,1.44,.08,.44,.16,.82,.23,1.17,.07,.35,.13,.66,.18,.93,.05,.27,.1,.51,.14,.71,.05,.21,.08,.38,.11,.53s.04,.26,.05,.37,.02,.19,.03,.25c0,.04,.02,.08,.03,.12,.01,.02,.02,.05,.02,.07h-.04c1.56-2.2,2.99-4.22,4.29-6.07,1.3-1.85,2.49-3.53,3.56-5.04,1.08-1.51,2.05-2.87,2.91-4.09,.86-1.22,1.64-2.3,2.32-3.26,.68-.96,1.29-1.8,1.81-2.53,.52-.72,.97-1.34,1.35-1.86,.38-.51,.71-.95,.97-1.31,.27-.36,.49-.65,.65-.86,.16-.21,.29-.37,.37-.49,.08-.11,.17-.22,.27-.32h12.9c-.76,3.14-1.45,6.07-2.09,8.79-.64,2.72-1.24,5.26-1.81,7.61-.57,2.35-1.09,4.53-1.56,6.54-.47,2.01-.9,3.86-1.31,5.54-.4,1.69-.77,3.22-1.1,4.6-.33,1.38-.63,2.64-.91,3.77-.27,1.13-.51,2.15-.72,3.03-.21,.89-.39,1.67-.55,2.35-.15,.68-.29,1.27-.41,1.77-.12,.5-.22,.92-.3,1.26-.08,.34-.15,.62-.21,.84-.06,.22-.1,.4-.13,.53-.02,.13-.04,.22-.05,.26,0,.04-.03,.08-.05,.11l-2.3,.02Z"/>
    <path class="cls-2" d="M315.54,150.13c-5.96-.63-9.89-3.19-11.81-7.66-1.92-4.48-1.42-10.03,1.49-16.65,4.97-8.19,12.67-12,23.11-11.43h16.56l-.53,1.86h.03l-2.91,11.37-5.81,22.66h-11.59l-8.54-.15Zm14.39-22.53h-.03l.96-3.79h-5.56c-2.61-.08-5.17,.76-7.23,2.37-1.77,1.42-3.07,3.33-3.76,5.49-1.25,5.64,.72,8.42,5.92,8.35h6.45l3.26-12.42Z"/>
    <path class="cls-2" d="M383.6,114.31l-15.1,17.87,8.97,18.11h-11.8l-4.61-9.26-7.8,9.26h-12.65l15.81-18.63-8.58-17.33h11.84l4.22,8.53,7.23-8.53h12.47Z"/>
    <path class="cls-2" d="M128.36,164.54h4.78c.21,0,.55-.05,.55-.33,0-.21-.22-.29-.48-.36l-2.88-.93c-.39-.11-.73-.36-.96-.69-.23-.34-.33-.74-.29-1.15,0-.32,.04-.64,.1-.95,.02-.3,.1-.59,.24-.86s.33-.5,.57-.69c.23-.19,.5-.33,.79-.4,.29-.08,.59-.09,.89-.05h5.69l-.46,2.12h-4.39c-.21,0-.67,0-.67,.33,0,.31,.42,.34,.64,.42l2.5,.77c1.07,.33,1.57,.86,1.57,1.84,0,.32-.05,.64-.11,.95,0,.32-.09,.63-.23,.91s-.34,.53-.59,.73c-.25,.2-.53,.35-.84,.43-.31,.08-.63,.09-.94,.04h-5.96l.45-2.12Z"/>
    <path class="cls-2" d="M182.32,166.66l1.38-6.42h-3.08l.46-2.12h8.95l-.46,2.12h-3.08l-1.38,6.42h-2.79Z"/>
    <path class="cls-2" d="M242.22,161.09c0,.52-.05,1.04-.14,1.55-.62,3.7-2.03,4.12-5.49,4.12-2.9,0-4.15-.86-4.15-3.05,0-.52,.05-1.05,.14-1.56,.62-3.7,2.03-4.12,5.49-4.12,2.91,0,4.15,.87,4.15,3.07Zm-6.9,2.33c0,.86,.55,1.22,1.54,1.22,1.48,0,2.02-.54,2.37-2.12,.08-.37,.12-.75,.12-1.13,0-.86-.54-1.23-1.53-1.23-1.48,0-2.03,.54-2.37,2.12-.08,.38-.13,.76-.14,1.15Z"/>
    <path class="cls-2" d="M286.84,159.47c.06-.39,.26-.74,.56-.99,.3-.25,.69-.37,1.08-.35h4.62c.29-.05,.58-.02,.86,.06,.28,.09,.53,.24,.74,.44,.21,.2,.37,.45,.47,.72,.1,.27,.13,.57,.1,.86,0,.36-.03,.71-.1,1.06-.23,1.22-.59,2.8-2.56,2.8h-.25v.05s1.77,2.55,1.77,2.55h-3.11l-1.43-2.22c-.25-.39-.37-.52-.37-.92,0-.08,.01-.16,.02-.25l.04-.18c.16-.73,.71-.96,1.45-.96h.42c.14,.03,.29,.02,.43-.02,.14-.04,.27-.1,.39-.19,.11-.09,.2-.21,.27-.34,.07-.13,.1-.27,.11-.42,.03-.13,.05-.26,.05-.39,0-.42-.24-.54-.84-.54h-1.59c-.08,0-.16,0-.23,.02-.08,.02-.15,.06-.21,.11-.06,.05-.11,.11-.15,.18-.04,.07-.06,.15-.07,.22l-1.27,5.88h-2.78l1.56-7.2Z"/>
    <path class="cls-2" d="M347.14,160.2h-4.27c-.08,0-.16,0-.23,.02-.08,.02-.15,.06-.21,.11-.06,.05-.11,.11-.15,.18-.04,.07-.06,.15-.07,.22l-.14,.63h4.72l-.41,1.88h-4.72l-.17,.8c-.01,.06-.02,.13-.02,.19,0,.23,.14,.34,.44,.34h4.33l-.44,2.07h-6.29c-.14,.02-.28,0-.42-.04-.14-.04-.26-.12-.36-.21-.1-.1-.19-.21-.24-.35-.05-.13-.08-.27-.07-.41,0-.11,.01-.22,.04-.33l1.26-5.86c.04-.4,.23-.76,.54-1.01,.31-.25,.7-.37,1.1-.33h6.24l-.45,2.08Z"/>
    <path class="cls-2" d="M72.78,132.55l15.17,10.37,6.79-26.19-1.8-2.13-20.17,17.96Z"/>
    <path class="cls-2" d="M390.28,133.87l5.29,6.59-.43,.35,12.09-8.26-8.42-7.48v.02s-8.53,8.79-8.53,8.79Z"/>
    <path class="cls-2" d="M389.32,133.26l8.66-8.93-10.94-9.74-14.75,17.45,17.03,1.22Z"/>
    <path class="cls-2" d="M389.25,134.37l-17.09-1.23,8.78,17.36,13.72-9.38-5.41-6.75Z"/>
  </g>
</svg>