<svg id="Layer_1" data-name="Layer 1" xmlns="http://www.w3.org/2000/svg" viewBox="0 0 1030.93 612.78"><defs><style>.cls-1{fill:#fff;}</style></defs><path class="cls-1" d="M127.15,806.72a13.38,13.38,0,0,0-2.54-.93C110,803.4,98.27,792.5,95.78,778c-3-17.22,4.93-31,18.55-38,5.29-2.72,4.78-1.07,4.78-7.72q-.14-169.41-.28-338.8v-5.1c1.23-.09,2.23-.24,3.22-.24,5.79,0,11.58.14,17.36-.07,2.54-.09,3.88.87,5.24,2.93q49.33,74.7,98.8,149.32,11.4,17.22,22.78,34.44c.73,1.1,1.57,2.13,2.35,3.2l.88-.24c.09-1.29.26-2.59.26-3.88q0-22.74,0-45.48-.09-77.4-.19-154.81a9.19,9.19,0,0,1,0-1.39c.39-2.56-.78-3.9-3.08-5-10.73-5.28-20.8-17.74-19.06-35.63,1.29-13.24,11.19-25.34,24.5-29.57A35.4,35.4,0,0,1,298,367.55a17,17,0,0,1-1.91.84A2.35,2.35,0,0,0,294.3,371c.05.93,0,1.85,0,2.78q-.09,123.06-.17,246.11c0,5.52.55,5.52-5.47,5.51-4.51,0-9-.17-13.53.06-3.12.17-5.06-.86-6.8-3.54-9.21-14.16-18.62-28.18-28-42.25l-60.7-91.31q-16.42-24.71-32.83-49.43c-.69-1-1.41-2.06-2.29-3.33-1.18,1.52-.76,2.94-.76,4.21q-.08,42.87-.1,85.74-.08,103.8-.17,207.58a11.22,11.22,0,0,1,0,1.74c-.46,2.84.9,4.29,3.35,5.63A34.76,34.76,0,0,1,160.28,789a33.77,33.77,0,0,1-24.67,16.82,19.59,19.59,0,0,0-2.9.94Zm-14.21-35.51a17.3,17.3,0,0,0,17.38,17.45,17.62,17.62,0,0,0,17.22-17.38A17.33,17.33,0,0,0,130,753.86C120.57,753.71,112.94,761.73,112.94,771.21ZM299.53,335.75a16.95,16.95,0,1,0-16.95,17A17,17,0,0,0,299.53,335.75Z" transform="translate(-28.56 -193.94)"/><path class="cls-1" d="M1059.49,513.73a28.92,28.92,0,0,0-.56,3.66c-.14,6.71-.07,13.43-.35,20.13a120,120,0,0,1-3.65,26.4c-5.28,19.54-17.62,33.59-34.75,43.59-14.44,8.42-30.28,11-46.81,9.88-10.26-.66-20.19-2.8-29.42-7.36-18.74-9.28-32.4-23.2-38.78-43.52A95.09,95.09,0,0,1,901.32,544c-1.66-25.54-1.37-51.11-.47-76.66a141,141,0,0,1,2.94-24.41c4.94-23.17,19.41-39,40.24-49.16,13.72-6.72,28.45-8.5,43.61-7.25,9.66.8,19,2.86,27.68,7.23,24.24,12.22,38.78,31.41,42.09,58.76,1.35,11.19,1.18,22.4,1.52,33.6a36.65,36.65,0,0,0,.56,4Zm-24-11.45h-.29c0-5.09.08-10.18,0-15.27-.25-12.37-.47-24.75-2.71-37-3-16.64-12.23-28.78-27.21-36.37a54.65,54.65,0,0,0-44.11-2.88c-18.12,6.34-30.06,18.77-33.75,38a158.34,158.34,0,0,0-2.58,22.36c-1,20.11-.92,40.25-.06,60.37a190.44,190.44,0,0,0,2.09,21c3,19,13.76,32.07,31.28,39.38a54.69,54.69,0,0,0,41.67.58c17-6.52,28.37-18.46,32.1-36.67a134.34,134.34,0,0,0,2.53-19.57C1035.1,525,1035.19,513.61,1035.52,502.28Z" transform="translate(-28.56 -193.94)"/><path class="cls-1" d="M474.58,577.89v-3.66q-.1-154.11-.15-308.24c0-2.72-.86-4-3.28-5.25a35.35,35.35,0,0,1,11.13-66.41c19.28-2.89,37.5,10.33,40.23,29.62,2.49,17.64-6.8,31-19.32,37-3.1,1.5-4,3.17-4,6.53q0,176.33-.24,352.67c0,5.13,0,5.14-5.1,5.15-4.86,0-9.72-.11-14.57.07a5.82,5.82,0,0,1-5.67-3q-16.86-25.68-33.91-51.21-44-66.19-88-132.36c-.62-.94-1.32-1.82-2.07-2.86-1.37,1.14-.93,2.49-.94,3.64q-.07,18.57-.08,37.14-.12,86.26-.23,172.52a29.69,29.69,0,0,1,0,3.13c-.24,2.29.83,3.52,2.82,4.58,9.77,5.19,16,13.25,18.14,24.1a35,35,0,0,1-67.39,18.66c-5.83-17.51,1.76-35.7,18.37-43.36,3-1.37,3.71-3,3.71-6q-.21-128.61-.25-257.21v-5c8.06-.1,15.87,0,23.73,0q62.91,94.8,125.72,189.4C473.31,577.71,473.64,577.68,474.58,577.89Zm-156.78,110c-.1,9.61,7.67,17.79,17.14,17.67a17.33,17.33,0,1,0-17.14-17.67ZM470.61,229.2a16.91,16.91,0,1,0,16.84-16.82A17.06,17.06,0,0,0,470.61,229.2Z" transform="translate(-28.56 -193.94)"/><path class="cls-1" d="M683.24,502.09c-.29,11.55-.45,23.12-.91,34.67a123.29,123.29,0,0,1-3.61,26.75c-5.27,20-17.8,34.3-35.38,44.29-24.66,14-59.16,13.22-83.19-1.86-18.78-11.78-30.62-28.41-33.87-50.76A257.21,257.21,0,0,1,524,519.91c-.11-16,.05-31.91.29-47.87.16-10.76,1-21.5,3.71-32,5.07-19.61,17.36-33.7,34.53-43.68,15-8.7,31.38-11.24,48.49-9.92a78.32,78.32,0,0,1,19,3.69c19.9,6.71,34.73,19.41,44.29,38.1,3.89,7.59,5.64,15.87,6.68,24.28C683.07,469,683,485.54,683.24,502.09Zm-24-.07h-.29c0-5.56.13-11.12,0-16.67-.31-11.67-.52-23.35-2.6-34.9-2.23-12.31-7.76-22.68-17.63-30.54-14.83-11.8-31.7-15.05-49.71-10.31-20.06,5.27-33.37,18-37.73,38.75a118.4,118.4,0,0,0-2.56,21c-.48,17.22-.52,34.46-.48,51.69a185.17,185.17,0,0,0,2.37,31.8c2,11.27,6.55,21.2,15.24,28.89,16.46,14.56,35.5,17.94,56,11.34,17.31-5.57,28.88-17.45,33.53-35.4a106.3,106.3,0,0,0,3-22.32C658.69,524.23,658.89,513.12,659.19,502Z" transform="translate(-28.56 -193.94)"/><path class="cls-1" d="M801.15,615.53H781.72Q744.47,502.22,707,388.28h25.34q29.34,91.32,58.75,182.87l.89,0c6.66-20.2,13-40.5,19.58-60.74s13.07-40.72,19.61-61.08,13.07-40.68,19.63-61.11h24.77C875.47,390.85,803.42,610.83,801.15,615.53Z" transform="translate(-28.56 -193.94)"/><path class="cls-1" d="M28.56,388.25H51.77c.8,2.64,1.08,222,.26,227.34-7.69.19-15.45.15-23.47,0Z" transform="translate(-28.56 -193.94)"/></svg>