<svg id="Layer_1" data-name="Layer 1" xmlns="http://www.w3.org/2000/svg" viewBox="0 0 24 24"><defs><style>.cls-1{fill:#fff;}</style></defs><path class="cls-1" d="M12,0A12,12,0,1,0,24,12,12,12,0,0,0,12,0Zm1,16.06V13h3a19.07,19.07,0,0,1-.45,3.28A23.5,23.5,0,0,0,13,16.06Zm2,2.16a11.77,11.77,0,0,1-2,3.45V18.06C13.67,18.08,14.32,18.14,15,18.22ZM13,11V8a23.47,23.47,0,0,0,2.55-.22A17.7,17.7,0,0,1,16,11Zm0-5V2.33a11.79,11.79,0,0,1,2,3.49C14.33,5.91,13.67,6,13,6Zm2.7-3.27A10.11,10.11,0,0,1,19,4.86a15.34,15.34,0,0,1-2,.61A14.73,14.73,0,0,0,15.7,2.72ZM8.46,16.28A18.14,18.14,0,0,1,8,13h3v3.06A23.5,23.5,0,0,0,8.46,16.28ZM11,18.06v3.61a11.77,11.77,0,0,1-2-3.45C9.68,18.14,10.33,18.08,11,18.06ZM8,11a17.7,17.7,0,0,1,.44-3.24A23.47,23.47,0,0,0,11,8v3ZM9,5.82a12,12,0,0,1,2-3.49V6C10.33,6,9.67,5.91,9,5.82ZM7,5.47a15.34,15.34,0,0,1-2-.61A10,10,0,0,1,8.3,2.72,14.73,14.73,0,0,0,7,5.47ZM6.48,7.39A20,20,0,0,0,6,11H2.05A10,10,0,0,1,3.67,6.48,19.26,19.26,0,0,0,6.48,7.39Zm0,9.26a19.52,19.52,0,0,0-2.8.9A10,10,0,0,1,2.05,13H6A19.46,19.46,0,0,0,6.49,16.65ZM7,18.57A15.3,15.3,0,0,0,8.3,21.28,10,10,0,0,1,5,19.17,17.26,17.26,0,0,1,7,18.57Zm9.92,0a17.26,17.26,0,0,1,2,.6,10,10,0,0,1-3.26,2.11A15.3,15.3,0,0,0,17,18.57Zm.55-1.92A20.32,20.32,0,0,0,18,13H22a10,10,0,0,1-1.64,4.55A19.52,19.52,0,0,0,17.51,16.65ZM18,11a20,20,0,0,0-.5-3.61,19.26,19.26,0,0,0,2.81-.91A10,10,0,0,1,22,11Z"/></svg>