<?xml version="1.0" encoding="utf-8"?>
<!-- Generator: Adobe Illustrator 25.4.1, SVG Export Plug-In . SVG Version: 6.00 Build 0)  -->
<svg version="1.1" id="Layer_1" xmlns="http://www.w3.org/2000/svg" xmlns:xlink="http://www.w3.org/1999/xlink" x="0px" y="0px"
	 viewBox="0 0 24 24" style="enable-background:new 0 0 24 24;" xml:space="preserve">
<style type="text/css">
	.st0{fill:#FFFFFF;}
</style>
<path class="st0" d="M11.1,17.8c-0.9,0.5-2.4,1.3-5.1,2.1c-0.3,0.1-0.6-0.1-0.7-0.3c-0.2-0.4,0-0.8,0.4-1c3-0.9,4.4-1.7,5.2-2.2
	c1.2-0.7,1.5-0.7,2.4,0c0.3,0.2,0.6,0.5,1.1,0.8c0.3,0.2,0.4,0.6,0.2,0.9l0,0c-0.2,0.3-0.6,0.4-0.9,0.2c-0.2-0.2-0.5-0.3-0.6-0.4
	C12.1,17.3,12,17.3,11.1,17.8z M3.8,11.9c2.7-0.8,4.7-2.3,5.5-4.2c0.4-1.1,1.3-1.5,2.2-1.5c1.4,0,2.8,1.2,2.1,2.9
	c-0.4,1-1.1,2-1.8,2.8c-0.2,0.3-0.2,0.6,0,0.9c0.2,0.3,0.7,0.3,1-0.1c0.8-0.9,1.5-2,1.9-3.1c0.5-1.1,0.4-2.2-0.2-3.2
	c-0.6-1-1.8-1.6-3.1-1.6c-0.7,0-1.4,0.2-1.9,0.6c-0.6,0.4-1.1,1-1.4,1.7C7.5,8.7,5.8,10,3.5,10.6C3.2,10.7,3,11,3,11.3
	C3,11.7,3.4,12,3.8,11.9z M10.8,14.6c0.3-0.2,0.3-0.7,0.1-0.9l0,0c-0.2-0.2-0.6-0.3-0.8-0.1c-1.6,1.2-3.6,2.1-5.6,2.6
	c-0.2,0-0.3,0.2-0.4,0.3c-0.1,0.2-0.1,0.4,0,0.5c0.1,0.3,0.4,0.5,0.8,0.4c2-0.5,3.8-1.3,5.4-2.3C10.4,14.9,10.6,14.7,10.8,14.6z
	 M12.2,8.6c0.1-0.3,0-0.7-0.3-0.8s-0.7,0-0.8,0.3c-1.1,2.5-3.7,4.4-7.3,5.3c-0.3,0.1-0.6,0.4-0.5,0.7c0.1,0.4,0.4,0.6,0.8,0.5
	C7.5,13.8,10.8,11.8,12.2,8.6z M12.4,2.5C10.2,2.2,8,3.1,6.8,4.6c-0.3,0.3-0.2,0.8,0.1,1c0.3,0.2,0.6,0.1,0.8-0.1
	c1-1.1,2.7-1.9,4.5-1.7c1.5,0.2,2.9,1,3.7,2.3c0.2,0.3,0.5,0.4,0.8,0.3c0.4-0.1,0.6-0.6,0.4-0.9C16.1,3.7,14.4,2.7,12.4,2.5z M4.2,5
	C4.4,5.2,4.8,5.1,5,4.8l0.4-0.6c1.3-1.8,3.3-2.9,5.6-3c0.3,0,0.6-0.3,0.6-0.6c0-0.4-0.3-0.7-0.7-0.6c-2.3,0.1-4.4,1-6,2.7
	C4.5,3.2,4.2,3.6,4,4.1C3.8,4.5,3.9,4.8,4.2,5z M4,9.1c1.3-0.4,2-1,2.4-1.7c0.2-0.3,0.1-0.7-0.2-0.9C6,6.3,5.6,6.4,5.4,6.7
	C5,7.2,4.5,7.6,3.6,7.9C3.4,8,3.2,8.1,3.2,8.4C3.1,8.9,3.5,9.3,4,9.1z M20.1,14.7c-1.2-0.4-2-0.9-2.4-1.4c-0.5-0.7-0.3-1.7-0.1-2.8
	c0.1-0.7,0.3-1.6,0.3-2.4c0-0.2-0.1-0.4-0.3-0.5S17.2,7.4,17,7.5c-0.3,0.1-0.4,0.3-0.4,0.6c0,0.7-0.1,1.5-0.2,2.2
	c-0.2,1.3-0.5,2.6,0.3,3.7c0.5,0.9,1.6,1.5,3.2,2c0.3,0.1,0.7-0.1,0.8-0.4C20.7,15.2,20.5,14.9,20.1,14.7z M19.4,17.1
	c-2.3-0.7-3.8-1.8-4.6-3.1c-0.2-0.3-0.6-0.4-0.9-0.2c-0.3,0.2-0.4,0.6-0.2,0.9c0.9,1.6,2.7,2.8,5.3,3.7c0.3,0.1,0.7-0.1,0.8-0.4
	C19.9,17.6,19.7,17.2,19.4,17.1z M18.3,19.2c-0.7-0.3-1.3-0.5-1.9-0.8c-0.3-0.1-0.6,0-0.8,0.2c-0.2,0.4-0.1,0.8,0.2,0.9
	c0.6,0.3,1.2,0.5,2,0.8c0.3,0.1,0.6,0,0.7-0.2C18.8,19.8,18.7,19.3,18.3,19.2z M9,20.9c-0.1-0.3-0.5-0.4-0.8-0.3
	c-0.3,0.1-0.6,0.2-1,0.4c-0.2,0.1-0.4,0.3-0.4,0.5c-0.1,0.5,0.3,0.9,0.8,0.8C8,22,8.4,21.9,8.7,21.8C9,21.7,9.2,21.3,9,20.9z
	 M20.6,12.5c-0.2-0.1-0.3-0.2-0.4-0.3c-0.2-0.3-0.1-0.9,0-1.7c0.2-1.3,0.6-3.1-0.3-5.4c-0.9-2.6-3.5-4.3-6.4-4.9
	c-0.4-0.1-0.8,0.2-0.8,0.6c0,0.3,0.2,0.6,0.5,0.6C15.9,2,18,3.5,18.7,5.5c0.7,1.9,0.4,3.5,0.2,4.7c-0.2,1.1-0.4,2,0.2,2.7
	c0.2,0.3,0.6,0.5,1,0.7c0.4,0.1,0.8-0.1,0.8-0.5C21,12.9,20.9,12.6,20.6,12.5z M14,22.8c-2.5-1.1-1.8-1.1-4.2,0
	c-0.2,0.1-0.4,0.3-0.4,0.6c0,0.4,0.4,0.6,0.7,0.6c0.1,0,0.2,0,0.3-0.1c1.7-0.8,1.1-0.8,3,0c0.1,0,0.2,0,0.2,0c0.3,0,0.7-0.2,0.7-0.6
	C14.4,23.1,14.3,22.9,14,22.8z M16.6,21.2c-1.6-0.6-2.7-1.2-3.4-1.6c-1.1-0.6-1.3-0.7-2.6,0l-0.1,0.1c-0.3,0.2-0.4,0.5-0.3,0.8
	c0.2,0.4,0.6,0.4,0.9,0.3c0.6-0.3,0.9-0.4,1.6-0.1c0.8,0.4,1.9,1,3.6,1.7c0.5,0.2,0.9-0.2,0.9-0.7C17,21.5,16.8,21.3,16.6,21.2z"/>
</svg>
