<svg id="Layer_1" data-name="Layer 1" xmlns="http://www.w3.org/2000/svg" viewBox="0 0 24 24"><defs><style>.cls-1{fill:#fff;fill-rule:evenodd;}</style></defs><path class="cls-1" d="M16.79,5.8l1.5-1.51A2.94,2.94,0,0,1,18,3a3,3,0,1,1,3,3,3.09,3.09,0,0,1-1.29-.29L18.23,7.19A8,8,0,0,1,18.41,17l1.3,1.29A3.09,3.09,0,0,1,21,18a3,3,0,1,1-3,3,3.09,3.09,0,0,1,.29-1.29L17,18.44a8,8,0,0,1-10,0L5.71,19.71A2.94,2.94,0,0,1,6,21a3,3,0,1,1-3-3,3.09,3.09,0,0,1,1.29.29L5.59,17a8,8,0,0,1,.18-9.81L4.29,5.71A2.94,2.94,0,0,1,3,6,3,3,0,1,1,6,3a2.94,2.94,0,0,1-.29,1.29L7.21,5.8a8,8,0,0,1,9.58,0ZM21,20a1,1,0,1,1-1,1A1,1,0,0,1,21,20ZM3,20a1,1,0,1,1-1,1A1,1,0,0,1,3,20ZM12,6.21a6,6,0,1,1-6,6A6,6,0,0,1,12,6.21Zm.13,2.88a.32.32,0,0,1,.31-.42.31.31,0,0,1,.3.22l1.9,4.76a.32.32,0,0,1-.2.41.33.33,0,0,1-.41-.21,4.52,4.52,0,0,0-2.62.07l.94,1.46a.26.26,0,0,1-.14.39l-.63.21-.14,0a.43.43,0,0,1-.31-.14L9.84,14.44a1.39,1.39,0,0,1-1.75-.69A1.27,1.27,0,0,1,8,13.28a1.37,1.37,0,0,1,.83-1.23C11.68,10.65,12.13,9.09,12.13,9.09Zm2,.31a2.13,2.13,0,0,1,1.15,1.17,2.19,2.19,0,0,1,0,1.65l.49.2a2.65,2.65,0,0,0,.21-1A2.68,2.68,0,0,0,14.36,8.9Zm-.36.84a1.22,1.22,0,0,1,.67.67,1.3,1.3,0,0,1,0,.95l.48.2a1.77,1.77,0,0,0,0-1.34,1.69,1.69,0,0,0-.95-1ZM3,2A1,1,0,1,1,2,3,1,1,0,0,1,3,2ZM21,2a1,1,0,1,1-1,1A1,1,0,0,1,21,2Z" transform="translate(0 0)"/></svg>