<svg id="Layer_1" data-name="Layer 1" xmlns="http://www.w3.org/2000/svg" viewBox="0 0 24 22"><defs><style>.cls-1{fill:#fff;fill-rule:evenodd;}</style></defs><path class="cls-1" d="M20.63,23H14l-.35-1H0V18.82c0-1.9,0-3.54,2.78-4.18l.48-.11C4.76,14.19,6.63,13.77,7,13c0-.09.17-.37-.15-1-1.93-3.55-2.29-6.67-1-8.78A4.83,4.83,0,0,1,10.08,1a4.78,4.78,0,0,1,4.26,2.23c1.26,2.08.9,5.21-1,8.8-.31.6-.19.88-.14,1a2,2,0,0,0,1.12.81l2-3.55a.56.56,0,0,1,.47-.26.55.55,0,0,1,.47.84L15.47,14h4l-1.76-3.17a.55.55,0,0,1,.47-.84.54.54,0,0,1,.47.26L20.75,14H24v3h-.83a.22.22,0,0,0-.19.12ZM23,15H12v1a1.15,1.15,0,0,1,.9.67L14.75,22H20l2.12-5.29A1.19,1.19,0,0,1,23,16ZM12.73,14a1.73,1.73,0,0,1-.44-.6,2,2,0,0,1,.17-1.84c1.73-3.28,2.1-6.05,1-7.83A3.79,3.79,0,0,0,10.08,2,3.78,3.78,0,0,0,6.66,3.77c-1.08,1.8-.7,4.57,1,7.79a2,2,0,0,1,.18,1.85c-.55,1.22-2.51,1.67-4.41,2.1l-.47.1c-1.94.45-2,1.26-2,3.21V21H13.35L12,17.06a.27.27,0,0,0-.17-.07H11V14ZM16,17a.5.5,0,0,0-1,0v3a.5.5,0,0,0,1,0ZM18,17a.5.5,0,0,0-.5-.5.5.5,0,0,0-.5.5v3a.5.5,0,0,0,.5.5A.51.51,0,0,0,18,20Zm2,0a.5.5,0,0,0-.5-.5.5.5,0,0,0-.5.5v3a.5.5,0,0,0,.5.5A.51.51,0,0,0,20,20Z" transform="translate(0 -1)"/></svg>